<svg width="3575" height="1992" xmlns="http://www.w3.org/2000/svg" xmlns:xlink="http://www.w3.org/1999/xlink" xml:space="preserve" overflow="hidden"><defs><linearGradient x1="1043.5" y1="414.5" x2="1043.5" y2="282.5" gradientUnits="userSpaceOnUse" spreadMethod="reflect" id="fill0"><stop offset="0" stop-color="#8D8D8D"/><stop offset="0.5" stop-color="#CCCCCC"/><stop offset="1" stop-color="#F2F2F2"/></linearGradient><linearGradient x1="321.5" y1="710.5" x2="321.5" y2="578.5" gradientUnits="userSpaceOnUse" spreadMethod="reflect" id="fill1"><stop offset="0" stop-color="#8D8D8D"/><stop offset="0.5" stop-color="#CCCCCC"/><stop offset="1" stop-color="#F2F2F2"/></linearGradient><linearGradient x1="616.5" y1="710.5" x2="616.5" y2="578.5" gradientUnits="userSpaceOnUse" spreadMethod="reflect" id="fill2"><stop offset="0" stop-color="#8D8D8D"/><stop offset="0.5" stop-color="#CCCCCC"/><stop offset="1" stop-color="#F2F2F2"/></linearGradient><linearGradient x1="911.5" y1="710.5" x2="911.5" y2="578.5" gradientUnits="userSpaceOnUse" spreadMethod="reflect" id="fill3"><stop offset="0" stop-color="#8D8D8D"/><stop offset="0.5" stop-color="#CCCCCC"/><stop offset="1" stop-color="#F2F2F2"/></linearGradient><linearGradient x1="1206.5" y1="710.5" x2="1206.5" y2="578.5" gradientUnits="userSpaceOnUse" spreadMethod="reflect" id="fill4"><stop offset="0" stop-color="#8D8D8D"/><stop offset="0.5" stop-color="#CCCCCC"/><stop offset="1" stop-color="#F2F2F2"/></linearGradient><linearGradient x1="1501.5" y1="710.5" x2="1501.5" y2="578.5" gradientUnits="userSpaceOnUse" spreadMethod="reflect" id="fill5"><stop offset="0" stop-color="#8D8D8D"/><stop offset="0.5" stop-color="#CCCCCC"/><stop offset="1" stop-color="#F2F2F2"/></linearGradient><linearGradient x1="1796.5" y1="710.5" x2="1796.5" y2="578.5" gradientUnits="userSpaceOnUse" spreadMethod="reflect" id="fill6"><stop offset="0" stop-color="#8D8D8D"/><stop offset="0.5" stop-color="#CCCCCC"/><stop offset="1" stop-color="#F2F2F2"/></linearGradient><linearGradient x1="2141" y1="578.5" x2="2141" y2="710.5" gradientUnits="userSpaceOnUse" spreadMethod="reflect" id="fill7"><stop offset="0" stop-color="#F5B8A4"/><stop offset="0.5" stop-color="#F2AB96"/><stop offset="1" stop-color="#F59E81"/></linearGradient><linearGradient x1="1966.5" y1="1340.5" x2="1966.5" y2="1472.5" gradientUnits="userSpaceOnUse" spreadMethod="reflect" id="fill8"><stop offset="0" stop-color="#F5B8A4"/><stop offset="0.5" stop-color="#F2AB96"/><stop offset="1" stop-color="#F59E81"/></linearGradient><linearGradient x1="2623" y1="1340.5" x2="2623" y2="1472.5" gradientUnits="userSpaceOnUse" spreadMethod="reflect" id="fill9"><stop offset="0" stop-color="#F5B8A4"/><stop offset="0.5" stop-color="#F2AB96"/><stop offset="1" stop-color="#F59E81"/></linearGradient><linearGradient x1="3326.5" y1="1340.5" x2="3326.5" y2="1472.5" gradientUnits="userSpaceOnUse" spreadMethod="reflect" id="fill10"><stop offset="0" stop-color="#F5B8A4"/><stop offset="0.5" stop-color="#F2AB96"/><stop offset="1" stop-color="#F59E81"/></linearGradient><linearGradient x1="3627.5" y1="1340.5" x2="3627.5" y2="1472.5" gradientUnits="userSpaceOnUse" spreadMethod="reflect" id="fill11"><stop offset="0" stop-color="#F5B8A4"/><stop offset="0.5" stop-color="#F2AB96"/><stop offset="1" stop-color="#F59E81"/></linearGradient><linearGradient x1="322.5" y1="897.5" x2="322.5" y2="765.5" gradientUnits="userSpaceOnUse" spreadMethod="reflect" id="fill12"><stop offset="0" stop-color="#8D8D8D"/><stop offset="0.5" stop-color="#CCCCCC"/><stop offset="1" stop-color="#F2F2F2"/></linearGradient><linearGradient x1="3544.5" y1="1537.5" x2="3544.5" y2="1669.5" gradientUnits="userSpaceOnUse" spreadMethod="reflect" id="fill13"><stop offset="0" stop-color="#F5B8A4"/><stop offset="0.5" stop-color="#F2AB96"/><stop offset="1" stop-color="#F59E81"/></linearGradient><linearGradient x1="3546.5" y1="1709.5" x2="3546.5" y2="1841.5" gradientUnits="userSpaceOnUse" spreadMethod="reflect" id="fill14"><stop offset="0" stop-color="#F5B8A4"/><stop offset="0.5" stop-color="#F2AB96"/><stop offset="1" stop-color="#F59E81"/></linearGradient><linearGradient x1="3544.5" y1="1880.5" x2="3544.5" y2="2012.5" gradientUnits="userSpaceOnUse" spreadMethod="reflect" id="fill15"><stop offset="0" stop-color="#F5B8A4"/><stop offset="0.5" stop-color="#F2AB96"/><stop offset="1" stop-color="#F59E81"/></linearGradient><linearGradient x1="2265.5" y1="1340.5" x2="2265.5" y2="1472.5" gradientUnits="userSpaceOnUse" spreadMethod="reflect" id="fill16"><stop offset="0" stop-color="#F5B8A4"/><stop offset="0.5" stop-color="#F2AB96"/><stop offset="1" stop-color="#F59E81"/></linearGradient><linearGradient x1="2998.5" y1="1340.5" x2="2998.5" y2="1472.5" gradientUnits="userSpaceOnUse" spreadMethod="reflect" id="fill17"><stop offset="0" stop-color="#F5B8A4"/><stop offset="0.5" stop-color="#F2AB96"/><stop offset="1" stop-color="#F59E81"/></linearGradient><linearGradient x1="1701.5" y1="897.5" x2="1701.5" y2="765.5" gradientUnits="userSpaceOnUse" spreadMethod="reflect" id="fill18"><stop offset="0" stop-color="#8D8D8D"/><stop offset="0.5" stop-color="#CCCCCC"/><stop offset="1" stop-color="#F2F2F2"/></linearGradient><linearGradient x1="1702.5" y1="1064.5" x2="1702.5" y2="932.5" gradientUnits="userSpaceOnUse" spreadMethod="reflect" id="fill19"><stop offset="0" stop-color="#8D8D8D"/><stop offset="0.5" stop-color="#CCCCCC"/><stop offset="1" stop-color="#F2F2F2"/></linearGradient><linearGradient x1="1140" y1="1546.5" x2="1140" y2="919.5" gradientUnits="userSpaceOnUse" spreadMethod="reflect" id="fill20"><stop offset="0" stop-color="#878787"/><stop offset="0.5" stop-color="#C3C3C3"/><stop offset="1" stop-color="#E8E8E8"/></linearGradient><linearGradient x1="2258" y1="1951.5" x2="2258" y2="2269.5" gradientUnits="userSpaceOnUse" spreadMethod="reflect" id="fill21"><stop offset="0" stop-color="#F5B8A4"/><stop offset="0.5" stop-color="#F2AB96"/><stop offset="1" stop-color="#F59E81"/></linearGradient></defs><g transform="translate(-187 -280)"><path d="M911.5 304.5C911.5 292.35 921.35 282.5 933.5 282.5L1153.5 282.5C1165.65 282.5 1175.5 292.35 1175.5 304.5L1175.5 392.5C1175.5 404.65 1165.65 414.5 1153.5 414.5L933.5 414.5C921.35 414.5 911.5 404.65 911.5 392.5Z" stroke="#000000" stroke-width="4.58333" stroke-miterlimit="8" fill="url(#fill0)" fill-rule="evenodd"/><text font-family="Arial,Arial_MSFontService,sans-serif" font-weight="400" font-size="37" transform="matrix(1 0 0 1 988.345 362)">HOME</text><path d="M189.5 600.5C189.5 588.35 199.35 578.5 211.5 578.5L431.5 578.5C443.65 578.5 453.5 588.35 453.5 600.5L453.5 688.5C453.5 700.65 443.65 710.5 431.5 710.5L211.5 710.5C199.35 710.5 189.5 700.65 189.5 688.5Z" stroke="#000000" stroke-width="4.58333" stroke-miterlimit="8" fill="url(#fill1)" fill-rule="evenodd"/><text font-family="Arial,Arial_MSFontService,sans-serif" font-weight="400" font-size="37" transform="matrix(1 0 0 1 252.617 658)">RECIPE</text><path d="M484.5 600.5C484.5 588.35 494.35 578.5 506.5 578.5L726.5 578.5C738.65 578.5 748.5 588.35 748.5 600.5L748.5 688.5C748.5 700.65 738.65 710.5 726.5 710.5L506.5 710.5C494.35 710.5 484.5 700.65 484.5 688.5Z" stroke="#000000" stroke-width="4.58333" stroke-miterlimit="8" fill="url(#fill2)" fill-rule="evenodd"/><text font-family="Arial,Arial_MSFontService,sans-serif" font-weight="400" font-size="37" transform="matrix(1 0 0 1 532.487 658)">PORTION</text><path d="M779.5 600.5C779.5 588.35 789.35 578.5 801.5 578.5L1021.5 578.5C1033.65 578.5 1043.5 588.35 1043.5 600.5L1043.5 688.5C1043.5 700.65 1033.65 710.5 1021.5 710.5L801.5 710.5C789.35 710.5 779.5 700.65 779.5 688.5Z" stroke="#000000" stroke-width="4.58333" stroke-miterlimit="8" fill="url(#fill3)" fill-rule="evenodd"/><text font-family="Arial,Arial_MSFontService,sans-serif" font-weight="400" font-size="37" transform="matrix(1 0 0 1 861.056 658)">RAKE</text><path d="M1074.5 600.5C1074.5 588.35 1084.35 578.5 1096.5 578.5L1316.5 578.5C1328.65 578.5 1338.5 588.35 1338.5 600.5L1338.5 688.5C1338.5 700.65 1328.65 710.5 1316.5 710.5L1096.5 710.5C1084.35 710.5 1074.5 700.65 1074.5 688.5Z" stroke="#000000" stroke-width="4.58333" stroke-miterlimit="8" fill="url(#fill4)" fill-rule="evenodd"/><text font-family="Arial,Arial_MSFontService,sans-serif" font-weight="400" font-size="37" transform="matrix(1 0 0 1 1128.61 658)">HOPPER</text><path d="M1369.5 600.5C1369.5 588.35 1379.35 578.5 1391.5 578.5L1611.5 578.5C1623.65 578.5 1633.5 588.35 1633.5 600.5L1633.5 688.5C1633.5 700.65 1623.65 710.5 1611.5 710.5L1391.5 710.5C1379.35 710.5 1369.5 700.65 1369.5 688.5Z" stroke="#000000" stroke-width="4.58333" stroke-miterlimit="8" fill="url(#fill5)" fill-rule="evenodd"/><text font-family="Arial,Arial_MSFontService,sans-serif" font-weight="400" font-size="37" transform="matrix(1 0 0 1 1424.81 658)">MANUAL</text><path d="M1664.5 600.5C1664.5 588.35 1674.35 578.5 1686.5 578.5L1906.5 578.5C1918.65 578.5 1928.5 588.35 1928.5 600.5L1928.5 688.5C1928.5 700.65 1918.65 710.5 1906.5 710.5L1686.5 710.5C1674.35 710.5 1664.5 700.65 1664.5 688.5Z" stroke="#000000" stroke-width="4.58333" stroke-miterlimit="8" fill="url(#fill6)" fill-rule="evenodd"/><text font-family="Arial,Arial_MSFontService,sans-serif" font-weight="400" font-size="37" transform="matrix(1 0 0 1 1733.04 658)">ALARM</text><path d="M1959.5 600.5C1959.5 588.35 1969.35 578.5 1981.5 578.5L2300.5 578.5C2312.65 578.5 2322.5 588.35 2322.5 600.5L2322.5 688.5C2322.5 700.65 2312.65 710.5 2300.5 710.5L1981.5 710.5C1969.35 710.5 1959.5 700.65 1959.5 688.5Z" stroke="#E97132" stroke-width="4.58333" stroke-miterlimit="8" fill="url(#fill7)" fill-rule="evenodd"/><text font-family="Arial,Arial_MSFontService,sans-serif" font-weight="400" font-size="37" transform="matrix(1 0 0 1 2007.41 658)">MAINTENANCE</text><path d="M1834.5 1362.5C1834.5 1350.35 1844.35 1340.5 1856.5 1340.5L2076.5 1340.5C2088.65 1340.5 2098.5 1350.35 2098.5 1362.5L2098.5 1450.5C2098.5 1462.65 2088.65 1472.5 2076.5 1472.5L1856.5 1472.5C1844.35 1472.5 1834.5 1462.65 1834.5 1450.5Z" stroke="#E97132" stroke-width="4.58333" stroke-miterlimit="8" fill="url(#fill8)" fill-rule="evenodd"/><text font-family="Arial,Arial_MSFontService,sans-serif" font-weight="400" font-size="37" transform="matrix(1 0 0 1 1897.71 1398)">MOTOR</text><text font-family="Arial,Arial_MSFontService,sans-serif" font-weight="400" font-size="37" transform="matrix(1 0 0 1 1904.59 1442)">SETUP</text><path d="M2441.5 1362.5C2441.5 1350.35 2451.35 1340.5 2463.5 1340.5L2782.5 1340.5C2794.65 1340.5 2804.5 1350.35 2804.5 1362.5L2804.5 1450.5C2804.5 1462.65 2794.65 1472.5 2782.5 1472.5L2463.5 1472.5C2451.35 1472.5 2441.5 1462.65 2441.5 1450.5Z" stroke="#E97132" stroke-width="4.58333" stroke-miterlimit="8" fill="url(#fill9)" fill-rule="evenodd"/><text font-family="Arial,Arial_MSFontService,sans-serif" font-weight="400" font-size="37" transform="matrix(1 0 0 1 2494.7 1398)">CALIBRATION/</text><text font-family="Arial,Arial_MSFontService,sans-serif" font-weight="400" font-size="37" transform="matrix(1 0 0 1 2539.11 1442)">TUNNING</text><path d="M3194.5 1362.5C3194.5 1350.35 3204.35 1340.5 3216.5 1340.5L3436.5 1340.5C3448.65 1340.5 3458.5 1350.35 3458.5 1362.5L3458.5 1450.5C3458.5 1462.65 3448.65 1472.5 3436.5 1472.5L3216.5 1472.5C3204.35 1472.5 3194.5 1462.65 3194.5 1450.5Z" stroke="#E97132" stroke-width="4.58333" stroke-miterlimit="8" fill="url(#fill10)" fill-rule="evenodd"/><text font-family="Arial,Arial_MSFontService,sans-serif" font-weight="400" font-size="37" transform="matrix(1 0 0 1 3241.22 1398)">MACHINE</text><text font-family="Arial,Arial_MSFontService,sans-serif" font-weight="400" font-size="37" transform="matrix(1 0 0 1 3242.94 1442)">OPTIONS</text><path d="M3495.5 1362.5C3495.5 1350.35 3505.35 1340.5 3517.5 1340.5L3737.5 1340.5C3749.65 1340.5 3759.5 1350.35 3759.5 1362.5L3759.5 1450.5C3759.5 1462.65 3749.65 1472.5 3737.5 1472.5L3517.5 1472.5C3505.35 1472.5 3495.5 1462.65 3495.5 1450.5Z" stroke="#E97132" stroke-width="4.58333" stroke-miterlimit="8" fill="url(#fill11)" fill-rule="evenodd"/><text font-family="Arial,Arial_MSFontService,sans-serif" font-weight="400" font-size="37" transform="matrix(1 0 0 1 3543.35 1398)">DEFAULT</text><text font-family="Arial,Arial_MSFontService,sans-serif" font-weight="400" font-size="37" transform="matrix(1 0 0 1 3558.55 1442)">RECIPE</text><path d="M0-2.29167 184.202-2.29167 184.202 71.6357 179.618 71.6357 179.618 0 181.91 2.29167 0 2.29167ZM195.66 67.0524 181.91 94.5524 168.16 67.0524Z" transform="matrix(-1 1.22465e-16 1.22465e-16 1 2148.41 1245.5)"/><path d="M2148.5 1243.21 2625.45 1243.21 2625.45 1317.14 2620.87 1317.14 2620.87 1245.5 2623.16 1247.79 2148.5 1247.79ZM2636.91 1312.55 2623.16 1340.05 2609.41 1312.55Z"/><path d="M2148.5 1243.21 3629.99 1243.21 3629.99 1317.14 3625.41 1317.14 3625.41 1245.5 3627.7 1247.79 2148.5 1247.79ZM3641.45 1312.55 3627.7 1340.05 3613.95 1312.55Z"/><path d="M190.5 787.5C190.5 775.35 200.35 765.5 212.5 765.5L432.5 765.5C444.65 765.5 454.5 775.35 454.5 787.5L454.5 875.5C454.5 887.65 444.65 897.5 432.5 897.5L212.5 897.5C200.35 897.5 190.5 887.65 190.5 875.5Z" stroke="#000000" stroke-width="4.58333" stroke-miterlimit="8" fill="url(#fill12)" fill-rule="evenodd"/><text font-family="Arial,Arial_MSFontService,sans-serif" font-weight="400" font-size="37" transform="matrix(1 0 0 1 253.779 823)">RECIPE</text><text font-family="Arial,Arial_MSFontService,sans-serif" font-weight="400" font-size="37" transform="matrix(1 0 0 1 234.3 867)">CATALOG</text><path d="M0.0138862-2.29162 31.9766-2.09795 31.9488 2.4853-0.0138862 2.29162ZM27.9645-13.7377 54.8589 1.16207 26.8024 13.7377Z" transform="matrix(1.83697e-16 1 1 -1.83697e-16 321.5 710.5)"/><path d="M0-2.29167 728.472-2.29167 728.472 63.3344 723.889 63.3344 723.889 0 726.181 2.29167 0 2.29167ZM739.931 58.7511 726.181 86.2511 712.431 58.7511Z" transform="matrix(-1 1.22465e-16 1.22465e-16 1 1047.68 492.5)"/><path d="M0-2.29167 433.419-2.29167 433.419 63.3344 428.836 63.3344 428.836 0 431.128 2.29167 0 2.29167ZM444.878 58.7511 431.128 86.2511 417.378 58.7511Z" transform="matrix(-1 1.22465e-16 1.22465e-16 1 1047.63 492.5)"/><path d="M0-2.29167 138.367-2.29167 138.367 63.3344 133.783 63.3344 133.783 0 136.075 2.29167 0 2.29167ZM149.825 58.7511 136.075 86.2511 122.325 58.7511Z" transform="matrix(-1 1.22465e-16 1.22465e-16 1 1047.57 492.5)"/><path d="M1047.5 490.208 1208.77 490.208 1208.77 555.835 1204.19 555.835 1204.19 492.5 1206.48 494.792 1047.5 494.792ZM1220.23 551.251 1206.48 578.751 1192.73 551.251Z"/><path d="M1047.5 490.208 1503.82 490.208 1503.82 555.835 1499.24 555.835 1499.24 492.5 1501.53 494.792 1047.5 494.792ZM1515.28 551.251 1501.53 578.751 1487.78 551.251Z"/><path d="M1047.5 490.208 1798.88 490.208 1798.88 555.835 1794.29 555.835 1794.29 492.5 1796.58 494.792 1047.5 494.792ZM1810.33 551.251 1796.58 578.751 1782.83 551.251Z"/><path d="M1047.5 490.208 2143.43 490.208 2143.43 555.835 2138.84 555.835 2138.84 492.5 2141.14 494.792 1047.5 494.792ZM2154.89 551.251 2141.14 578.751 2127.39 551.251Z"/><path d="M3412.5 1559.5C3412.5 1547.35 3422.35 1537.5 3434.5 1537.5L3654.5 1537.5C3666.65 1537.5 3676.5 1547.35 3676.5 1559.5L3676.5 1647.5C3676.5 1659.65 3666.65 1669.5 3654.5 1669.5L3434.5 1669.5C3422.35 1669.5 3412.5 1659.65 3412.5 1647.5Z" stroke="#E97132" stroke-width="4.58333" stroke-miterlimit="8" fill="url(#fill13)" fill-rule="evenodd"/><text font-family="Arial,Arial_MSFontService,sans-serif" font-weight="400" font-size="37" transform="matrix(1 0 0 1 3461.41 1617)">OPTIONS</text><path d="M3414.5 1731.5C3414.5 1719.35 3424.35 1709.5 3436.5 1709.5L3656.5 1709.5C3668.65 1709.5 3678.5 1719.35 3678.5 1731.5L3678.5 1819.5C3678.5 1831.65 3668.65 1841.5 3656.5 1841.5L3436.5 1841.5C3424.35 1841.5 3414.5 1831.65 3414.5 1819.5Z" stroke="#E97132" stroke-width="4.58333" stroke-miterlimit="8" fill="url(#fill14)" fill-rule="evenodd"/><text font-family="Arial,Arial_MSFontService,sans-serif" font-weight="400" font-size="37" transform="matrix(1 0 0 1 3466.8 1767)">CUSTOM</text><text font-family="Arial,Arial_MSFontService,sans-serif" font-weight="400" font-size="37" transform="matrix(1 0 0 1 3454.19 1811)">SETTINGS</text><path d="M3412.5 1902.5C3412.5 1890.35 3422.35 1880.5 3434.5 1880.5L3654.5 1880.5C3666.65 1880.5 3676.5 1890.35 3676.5 1902.5L3676.5 1990.5C3676.5 2002.65 3666.65 2012.5 3654.5 2012.5L3434.5 2012.5C3422.35 2012.5 3412.5 2002.65 3412.5 1990.5Z" stroke="#E97132" stroke-width="4.58333" stroke-miterlimit="8" fill="url(#fill15)" fill-rule="evenodd"/><text font-family="Arial,Arial_MSFontService,sans-serif" font-weight="400" font-size="37" transform="matrix(1 0 0 1 3469.72 1938)">TARGET</text><text font-family="Arial,Arial_MSFontService,sans-serif" font-weight="400" font-size="37" transform="matrix(1 0 0 1 3484.91 1982)">LIMITS</text><path d="M0-2.29167 133.639-2.29167 133.639 63.5521 129.055 63.5521 129.055 0 131.347 2.29167 0 2.29167ZM145.097 58.9687 131.347 86.4687 117.597 58.9687Z" transform="matrix(1.83697e-16 1 1 -1.83697e-16 3326.5 1472.5)"/><path d="M0-2.29167 304.998-2.29167 304.998 65.5034 300.415 65.5034 300.415 0 302.707 2.29167 0 2.29167ZM316.457 60.9201 302.707 88.4201 288.957 60.9201Z" transform="matrix(1.83697e-16 1 1 -1.83697e-16 3326.5 1472.5)"/><path d="M0-2.29167 476.358-2.29167 476.358 63.5521 471.775 63.5521 471.775 0 474.066 2.29167 0 2.29167ZM487.816 58.9687 474.066 86.4687 460.316 58.9687Z" transform="matrix(1.83697e-16 1 1 -1.83697e-16 3326.5 1472.5)"/><path d="M2133.5 1362.5C2133.5 1350.35 2143.35 1340.5 2155.5 1340.5L2375.5 1340.5C2387.65 1340.5 2397.5 1350.35 2397.5 1362.5L2397.5 1450.5C2397.5 1462.65 2387.65 1472.5 2375.5 1472.5L2155.5 1472.5C2143.35 1472.5 2133.5 1462.65 2133.5 1450.5Z" stroke="#E97132" stroke-width="4.58333" stroke-miterlimit="8" fill="url(#fill16)" fill-rule="evenodd"/><text font-family="Arial,Arial_MSFontService,sans-serif" font-weight="400" font-size="37" transform="matrix(1 0 0 1 2225.2 1398)">RUN</text><text font-family="Arial,Arial_MSFontService,sans-serif" font-weight="400" font-size="37" transform="matrix(1 0 0 1 2181.95 1442)">OPTIONS</text><path d="M2833.5 1362.5C2833.5 1350.35 2843.35 1340.5 2855.5 1340.5L3141.5 1340.5C3153.65 1340.5 3163.5 1350.35 3163.5 1362.5L3163.5 1450.5C3163.5 1462.65 3153.65 1472.5 3141.5 1472.5L2855.5 1472.5C2843.35 1472.5 2833.5 1462.65 2833.5 1450.5Z" stroke="#E97132" stroke-width="4.58333" stroke-miterlimit="8" fill="url(#fill17)" fill-rule="evenodd"/><text font-family="Arial,Arial_MSFontService,sans-serif" font-weight="400" font-size="37" transform="matrix(1 0 0 1 2929.05 1398)">HEIGHT</text><text font-family="Arial,Arial_MSFontService,sans-serif" font-weight="400" font-size="37" transform="matrix(1 0 0 1 2902.4 1442)">OVERRIDE</text><path d="M2148.5 1243.21 2267.73 1243.21 2267.73 1317.14 2263.15 1317.14 2263.15 1245.5 2265.44 1247.79 2148.5 1247.79ZM2279.19 1312.55 2265.44 1340.05 2251.69 1312.55Z"/><path d="M2148.5 1243.21 3001.35 1243.21 3001.35 1317.14 2996.77 1317.14 2996.77 1245.5 2999.06 1247.79 2148.5 1247.79ZM3012.81 1312.55 2999.06 1340.05 2985.31 1312.55Z"/><path d="M0-2.29167 123.151-2.29167 123.151 44.5287 118.567 44.5287 118.567 0 120.859 2.29167 0 2.29167ZM134.609 39.9454 120.859 67.4454 107.109 39.9454Z" transform="matrix(1.83697e-16 1 1 -1.83697e-16 1501.5 710.5)"/><path d="M1569.5 787.5C1569.5 775.35 1579.35 765.5 1591.5 765.5L1811.5 765.5C1823.65 765.5 1833.5 775.35 1833.5 787.5L1833.5 875.5C1833.5 887.65 1823.65 897.5 1811.5 897.5L1591.5 897.5C1579.35 897.5 1569.5 887.65 1569.5 875.5Z" stroke="#000000" stroke-width="4.58333" stroke-miterlimit="8" fill="url(#fill18)" fill-rule="evenodd"/><text font-family="Arial,Arial_MSFontService,sans-serif" font-weight="400" font-size="37" transform="matrix(1 0 0 1 1629.12 823)">SAFETY</text><text font-family="Arial,Arial_MSFontService,sans-serif" font-weight="400" font-size="37" transform="matrix(1 0 0 1 1664.94 867)">PLC</text><path d="M1570.5 954.5C1570.5 942.35 1580.35 932.5 1592.5 932.5L1812.5 932.5C1824.65 932.5 1834.5 942.35 1834.5 954.5L1834.5 1042.5C1834.5 1054.65 1824.65 1064.5 1812.5 1064.5L1592.5 1064.5C1580.35 1064.5 1570.5 1054.65 1570.5 1042.5Z" stroke="#000000" stroke-width="4.58333" stroke-miterlimit="8" fill="url(#fill19)" fill-rule="evenodd"/><text font-family="Arial,Arial_MSFontService,sans-serif" font-weight="400" font-size="37" transform="matrix(1 0 0 1 1629.43 990)">INPUTS/</text><text font-family="Arial,Arial_MSFontService,sans-serif" font-weight="400" font-size="37" transform="matrix(1 0 0 1 1614.23 1034)">OUTPUTS</text><path d="M0-2.29167 290.003-2.29167 290.003 45.6792 285.419 45.6792 285.419 0 287.711 2.29167 0 2.29167ZM301.461 41.0959 287.711 68.5959 273.961 41.0959Z" transform="matrix(1.83697e-16 1 1 -1.83697e-16 1501.5 710.5)"/><path d="M2141.5 710.5 2141.5 1245.88" stroke="#000000" stroke-width="4.58333" stroke-miterlimit="8" fill="none" fill-rule="evenodd"/><path d="M2148.5 1243.21 3328.72 1243.21 3328.72 1317.14 3324.14 1317.14 3324.14 1245.5 3326.43 1247.79 2148.5 1247.79ZM3340.18 1312.55 3326.43 1340.05 3312.68 1312.55Z"/><path d="M2148.5 1245.5C2148.5 1245.5 2148.5 1245.5 2148.5 1245.5 2148.5 1245.5 2148.5 1245.5 2148.5 1245.5 2148.5 1245.5 2148.5 1245.5 2148.5 1245.5 2148.5 1245.5 2148.5 1245.5 2148.5 1245.5Z" stroke="#000000" stroke-width="4.58333" stroke-miterlimit="8" fill="#E97132" fill-rule="evenodd"/><path d="M0 0.000180446C-2.29732e-20 8.07885e-05 8.07885e-05 -2.29732e-20 0.000180446 -4.59464e-20 0.000280104 -9.18928e-20 0.000360892 8.07885e-05 0.000360892 0.000180446 0.000360892 0.000280104 0.000280104 0.000360892 0.000180446 0.000360892 8.07885e-05 0.000360892 -1.14866e-19 0.000280104 0 0.000180446Z" stroke="#000000" stroke-width="4.58333" stroke-miterlimit="8" fill="#E97132" fill-rule="evenodd" transform="matrix(1 0 0 -1 1047.5 492.5)"/><path d="M1043.5 414.5 1043.5 492.461" stroke="#000000" stroke-width="4.58333" stroke-miterlimit="8" fill="none" fill-rule="evenodd"/><path d="M1503.96 710.5 1503.96 1233.52 1440.42 1233.52 1440.42 1228.94 1501.67 1228.94 1499.38 1231.23 1499.38 710.5ZM1445 1244.98 1417.5 1231.23 1445 1217.48Z"/><path d="M2625.41 1472.5 2625.41 2112.66 2560.42 2112.66 2560.42 2108.07 2623.12 2108.07 2620.82 2110.36 2620.82 1472.5ZM2565 2124.11 2537.5 2110.36 2565 2096.61Z"/><path d="M860.5 1012.67C860.5 961.212 902.212 919.5 953.667 919.5L1326.33 919.5C1377.79 919.5 1419.5 961.212 1419.5 1012.67L1419.5 1453.33C1419.5 1504.79 1377.79 1546.5 1326.33 1546.5L953.667 1546.5C902.212 1546.5 860.5 1504.79 860.5 1453.33Z" stroke="#000000" stroke-width="4.58333" stroke-miterlimit="8" fill="url(#fill20)" fill-rule="evenodd"/><text font-family="Arial,Arial_MSFontService,sans-serif" font-weight="400" font-size="37" transform="matrix(1 0 0 1 1062.91 971)">MANUAL</text><text font-family="Arial,Arial_MSFontService,sans-serif" font-weight="400" font-size="37" transform="matrix(1 0 0 1 891.904 1015)">•</text><text font-family="Arial,Arial_MSFontService,sans-serif" font-weight="400" font-size="37" transform="matrix(1 0 0 1 953.779 1015)">PRODUCT CONVEYOR</text><text font-family="Arial,Arial_MSFontService,sans-serif" font-weight="400" font-size="37" transform="matrix(1 0 0 1 891.904 1059)">•</text><text font-family="Arial,Arial_MSFontService,sans-serif" font-weight="400" font-size="37" transform="matrix(1 0 0 1 953.779 1059)">PORTION CONVEYOR</text><text font-family="Arial,Arial_MSFontService,sans-serif" font-weight="400" font-size="37" transform="matrix(1 0 0 1 891.904 1103)">•</text><text font-family="Arial,Arial_MSFontService,sans-serif" font-weight="400" font-size="37" transform="matrix(1 0 0 1 953.779 1103)">RETURN #1 CONVEYOR</text><text font-family="Arial,Arial_MSFontService,sans-serif" font-weight="400" font-size="37" transform="matrix(1 0 0 1 891.904 1147)">•</text><text font-family="Arial,Arial_MSFontService,sans-serif" font-weight="400" font-size="37" transform="matrix(1 0 0 1 953.779 1147)">RETURN #2 CONVEYOR</text><text font-family="Arial,Arial_MSFontService,sans-serif" font-weight="400" font-size="37" transform="matrix(1 0 0 1 891.904 1191)">•</text><text font-family="Arial,Arial_MSFontService,sans-serif" font-weight="400" font-size="37" transform="matrix(1 0 0 1 953.779 1191)">RETURN #3 CONVEYOR</text><text font-family="Arial,Arial_MSFontService,sans-serif" font-weight="400" font-size="37" transform="matrix(1 0 0 1 891.904 1235)">•</text><text font-family="Arial,Arial_MSFontService,sans-serif" font-weight="400" font-size="37" transform="matrix(1 0 0 1 953.779 1235)">RAKE</text><text font-family="Arial,Arial_MSFontService,sans-serif" font-weight="400" font-size="37" transform="matrix(1 0 0 1 891.904 1279)">•</text><text font-family="Arial,Arial_MSFontService,sans-serif" font-weight="400" font-size="37" transform="matrix(1 0 0 1 953.779 1279)">RAKE HEIGHT</text><text font-family="Arial,Arial_MSFontService,sans-serif" font-weight="400" font-size="37" transform="matrix(1 0 0 1 891.904 1323)">•</text><text font-family="Arial,Arial_MSFontService,sans-serif" font-weight="400" font-size="37" transform="matrix(1 0 0 1 953.779 1323)">FLICKER</text><text font-family="Arial,Arial_MSFontService,sans-serif" font-weight="400" font-size="37" transform="matrix(1 0 0 1 891.904 1367)">•</text><text font-family="Arial,Arial_MSFontService,sans-serif" font-weight="400" font-size="37" transform="matrix(1 0 0 1 953.779 1367)">FLICKER HEIGHT</text><text font-family="Arial,Arial_MSFontService,sans-serif" font-weight="400" font-size="37" transform="matrix(1 0 0 1 891.904 1411)">•</text><text font-family="Arial,Arial_MSFontService,sans-serif" font-weight="400" font-size="37" transform="matrix(1 0 0 1 953.779 1411)">AUX1 CONVEYOR</text><text font-family="Arial,Arial_MSFontService,sans-serif" font-weight="400" font-size="37" transform="matrix(1 0 0 1 891.904 1455)">•</text><text font-family="Arial,Arial_MSFontService,sans-serif" font-weight="400" font-size="37" transform="matrix(1 0 0 1 953.779 1455)">AUX2 CONVEYOR</text><text font-family="Arial,Arial_MSFontService,sans-serif" font-weight="400" font-size="37" transform="matrix(1 0 0 1 891.904 1499)">•</text><text font-family="Arial,Arial_MSFontService,sans-serif" font-weight="400" font-size="37" transform="matrix(1 0 0 1 953.779 1499)">PCM CONVEYOR</text><path d="M858.5 1010.67C858.5 959.212 900.212 917.5 951.667 917.5L1324.33 917.5C1375.79 917.5 1417.5 959.212 1417.5 1010.67L1417.5 1451.33C1417.5 1502.79 1375.79 1544.5 1324.33 1544.5L951.667 1544.5C900.212 1544.5 858.5 1502.79 858.5 1451.33Z" stroke="#000000" stroke-width="4.58333" stroke-miterlimit="8" fill="none" fill-rule="evenodd"/><path d="M1978.5 2004.5C1978.5 1975.23 2002.23 1951.5 2031.5 1951.5L2484.5 1951.5C2513.77 1951.5 2537.5 1975.23 2537.5 2004.5L2537.5 2216.5C2537.5 2245.77 2513.77 2269.5 2484.5 2269.5L2031.5 2269.5C2002.23 2269.5 1978.5 2245.77 1978.5 2216.5Z" stroke="#E97132" stroke-width="4.58333" stroke-miterlimit="8" fill="url(#fill21)" fill-rule="evenodd"/><text font-family="Arial,Arial_MSFontService,sans-serif" font-weight="400" font-size="37" transform="matrix(1 0 0 1 2134.71 2012)">CALIBRATION</text><text font-family="Arial,Arial_MSFontService,sans-serif" font-weight="400" font-size="37" transform="matrix(1 0 0 1 2009.82 2056)">•</text><text font-family="Arial,Arial_MSFontService,sans-serif" font-weight="400" font-size="37" transform="matrix(1 0 0 1 2071.69 2056)">RAKE LOAD CELLS</text><text font-family="Arial,Arial_MSFontService,sans-serif" font-weight="400" font-size="37" transform="matrix(1 0 0 1 2009.82 2100)">•</text><text font-family="Arial,Arial_MSFontService,sans-serif" font-weight="400" font-size="37" transform="matrix(1 0 0 1 2071.69 2100)">PORTION LOAD CELLS</text><text font-family="Arial,Arial_MSFontService,sans-serif" font-weight="400" font-size="37" transform="matrix(1 0 0 1 2009.82 2144)">•</text><text font-family="Arial,Arial_MSFontService,sans-serif" font-weight="400" font-size="37" transform="matrix(1 0 0 1 2071.69 2144)">HOPPER HEIGHT</text><text font-family="Arial,Arial_MSFontService,sans-serif" font-weight="400" font-size="37" transform="matrix(1 0 0 1 2009.82 2188)">•</text><text font-family="Arial,Arial_MSFontService,sans-serif" font-weight="400" font-size="37" transform="matrix(1 0 0 1 2071.69 2188)">RAKE HEIGHT</text><text font-family="Arial,Arial_MSFontService,sans-serif" font-weight="400" font-size="37" transform="matrix(1 0 0 1 2009.82 2232)">•</text><text font-family="Arial,Arial_MSFontService,sans-serif" font-weight="400" font-size="37" transform="matrix(1 0 0 1 2071.69 2232)">FLICKER HEIGHT</text></g></svg>