<svg width="461" height="722" xmlns="http://www.w3.org/2000/svg" xmlns:xlink="http://www.w3.org/1999/xlink" xml:space="preserve" overflow="hidden"><g><path d="M33.8438 704.904 110.603 704.904 110.603 735.607 72.2233 743.283 33.8438 735.607Z" stroke="#000000" stroke-width="1.0661" stroke-miterlimit="8" fill="#FFFFFF" fill-rule="evenodd" transform="matrix(1.00097 0 0 1 -13.9697 -22.0973)"/><text font-family="Arial,Arial_MSFontService,sans-serif" font-weight="400" font-size="37" transform="matrix(0.232828 0 0 0.232603 40.8022 691)">TARGET </text><text font-family="Arial,Arial_MSFontService,sans-serif" font-weight="400" font-size="37" transform="matrix(0.232828 0 0 0.232603 41.069 701)">WEIGHT </text><text font-family="Arial,Arial_MSFontService,sans-serif" font-weight="400" font-size="37" transform="matrix(0.232828 0 0 0.232603 43.8702 712)">SETUP</text><path d="M150.378 22.6788 227.137 22.6788 227.137 53.3824 188.757 61.0583 150.378 53.3824Z" stroke="#000000" stroke-width="1.0661" stroke-miterlimit="8" fill="#FFFFFF" fill-rule="evenodd" transform="matrix(1.00097 0 0 1 -13.9697 -22.0973)"/><text font-family="Arial,Arial_MSFontService,sans-serif" font-weight="400" font-size="37" transform="matrix(0.232828 0 0 0.232603 158.987 19)">RECIPE</text><path d="M0-0.53305 59.2935-0.53305 59.2935 16.2984 58.2275 16.2984 58.2275 0 58.7604 0.53305 0 0.53305ZM61.9587 15.2323 58.7604 21.6289 55.5621 15.2323Z" transform="matrix(-1.00097 1.22465e-16 1.22584e-16 1 117.141 86.1794)"/><path d="M245.745 107.744 308.497 107.744 308.497 124.575 307.429 124.575 307.429 108.277 307.964 108.81 245.745 108.81ZM311.162 123.509 307.964 129.906 304.766 123.509Z" transform="matrix(1.00097 0 0 1 -13.9697 -22.0973)"/><path d="M250.63 644.427 365.768 644.427 365.768 682.806 250.63 682.806Z" stroke="#000000" stroke-width="1.0661" stroke-miterlimit="8" fill="#FFFFFF" transform="matrix(1.00097 0 0 1 -13.9697 -22.0973)"/><text font-family="Arial,Arial_MSFontService,sans-serif" font-weight="400" font-size="37" transform="matrix(0.232828 0 0 0.232603 282.97 639)">SAVE</text><text font-family="Arial,Arial_MSFontService,sans-serif" font-weight="400" font-size="37" transform="matrix(0.232828 0 0 0.232603 278.498 650)">RECIPE</text><path d="M0-0.53305 25.8894-0.53305 25.8894 140.386 25.3563 139.853 45.382 139.853 45.382 140.919 24.8232 140.919 24.8232 0 25.3563 0.53305 0 0.53305ZM44.3158 137.188 50.7124 140.386 44.3158 143.584Z" transform="matrix(1.83875e-16 1 1.00097 -1.83697e-16 154.016 511.145)"/><path d="M308.822 682.806 308.822 694.374 72.2233 694.374 72.7564 693.841 72.7564 699.544 71.6901 699.544 71.6901 693.306 308.29 693.306 307.757 693.841 307.757 682.806ZM75.4216 698.477 72.2233 704.873 69.025 698.477Z" transform="matrix(1.00097 0 0 1 -13.9697 -22.0973)"/><path d="M308.334 168.288 308.334 182.768 150.494 182.768 151.027 182.235 151.027 215.372 150.494 214.839 164.353 214.839 164.353 215.905 149.961 215.905 149.961 181.702 307.801 181.702 307.269 182.235 307.269 168.288ZM163.287 212.174 169.684 215.372 163.287 218.57Z" transform="matrix(1.00097 0 0 1 -13.9697 -22.0973)"/><path d="M0.532782-0.0168846 0.892031 11.319-0.173531 11.3528-0.532782 0.0168846ZM3.52217 10.169 0.528095 16.6637-2.87121 10.3716Z" transform="matrix(-1.00097 0 0 1 175.033 38.961)"/><path d="M72.7564 168.288 72.7564 190.852 71.6904 190.852 71.6901 168.288ZM75.4216 189.786 72.2233 196.182 69.025 189.786Z" transform="matrix(1.00097 0 0 1 -13.9697 -22.0973)"/><path d="M130.607 108.858 187.943 78.5035 245.28 108.858 187.943 139.213Z" stroke="#000000" stroke-width="1.0661" stroke-miterlimit="8" fill="#FFFFFF" fill-rule="evenodd" transform="matrix(1.00097 0 0 1 -13.9697 -22.0973)"/><text font-family="Arial,Arial_MSFontService,sans-serif" font-weight="400" font-size="37" transform="matrix(0.232828 0 0 0.232603 165.861 84)">New</text><text font-family="Arial,Arial_MSFontService,sans-serif" font-weight="400" font-size="37" transform="matrix(0.232828 0 0 0.232603 158.658 94)">Recipe</text><text font-family="Arial,Arial_MSFontService,sans-serif" font-weight="400" font-size="37" transform="matrix(0.232828 0 0 0.232603 185.474 94)">?</text><text font-family="Arial,Arial_MSFontService,sans-serif" font-weight="700" font-size="41" transform="matrix(0.232828 0 0 0.232603 88.1551 83)">NO</text><text font-family="Arial,Arial_MSFontService,sans-serif" font-weight="700" font-size="41" transform="matrix(0.232828 0 0 0.232603 240.437 83)">YES</text><path d="M284.822 214.741 304.771 214.741 304.771 215.807 284.822 215.807ZM303.705 212.076 310.102 215.274 303.705 218.472Z" transform="matrix(1.00097 0 0 1 -13.9697 -22.0973)"/><path d="M307.618 506.958 308.122 583.79" stroke="#000000" stroke-width="1.0661" stroke-miterlimit="8" fill="none" fill-rule="evenodd" transform="matrix(1.00097 0 0 1 -13.9697 -22.0973)"/><path d="M72.2233 234.58 72.2233 704.866" stroke="#000000" stroke-width="1.0661" stroke-miterlimit="8" fill="none" fill-rule="evenodd" transform="matrix(1.00097 0 0 1 -13.9697 -22.0973)"/><path d="M169.684 196.201 284.822 196.201 284.822 234.58 169.684 234.58Z" stroke="#000000" stroke-width="1.0661" stroke-miterlimit="8" fill="#FFFFFF" transform="matrix(1.00097 0 0 1 -13.9697 -22.0973)"/><text font-family="Arial,Arial_MSFontService,sans-serif" font-weight="400" font-size="37" transform="matrix(0.232828 0 0 0.232603 175.872 191)">RAKE SPEED AND </text><text font-family="Arial,Arial_MSFontService,sans-serif" font-weight="400" font-size="37" transform="matrix(0.232828 0 0 0.232603 197.348 201)">HEIGHT</text><path d="M0-0.53305 84.106-0.53305 84.106 10.0776 83.04 10.0776 83.04 0 83.5731 0.53305 0 0.53305ZM86.7714 9.01155 83.5731 15.4081 80.3748 9.01155Z" transform="matrix(-1.00097 1.22465e-16 1.22584e-16 1 237.669 352.045)"/><path d="M0-0.53305 9.5728-0.53305 9.5728 140.255 9.03975 139.722 12.7488 139.722 12.7488 140.788 8.50669 140.788 8.50669 0 9.03975 0.53305 0 0.53305ZM11.6827 137.056 18.0793 140.255 11.6827 143.453Z" transform="matrix(1.83875e-16 1 1.00097 -1.83697e-16 154.016 405.776)"/><path d="M0-0.53305 83.4057-0.53305 83.4057 13.002 82.3394 13.002 82.3394 0 82.8725 0.53305 0 0.53305ZM86.0708 11.9359 82.8725 18.3325 79.6742 11.9359Z" transform="matrix(-1.00097 1.22465e-16 1.22584e-16 1 236.968 454.39)"/><path d="M90.1337 332.041 473.929 332.041 473.929 543.245 90.1337 543.245Z" stroke="#E97132" stroke-width="1.0661" stroke-linejoin="round" stroke-miterlimit="10" stroke-dasharray="4.26438 3.19829" fill="none" transform="matrix(1.00097 0 0 1 -13.9697 -22.0973)"/><path d="M251.095 373.793 308.432 343.438 365.768 373.793 308.432 404.148Z" stroke="#000000" stroke-width="1.0661" stroke-miterlimit="8" fill="#FFFFFF" fill-rule="evenodd" transform="matrix(1.00097 0 0 1 -13.9697 -22.0973)"/><text font-family="Arial,Arial_MSFontService,sans-serif" font-weight="400" font-size="37" transform="matrix(0.232828 0 0 0.232603 258.125 350)">Auxiliary conveyors </text><text font-family="Arial,Arial_MSFontService,sans-serif" font-weight="400" font-size="37" transform="matrix(0.232828 0 0 0.232603 277.264 360)">enabled</text><text font-family="Arial,Arial_MSFontService,sans-serif" font-weight="400" font-size="37" transform="matrix(0.232828 0 0 0.232603 307.924 360)">?</text><text font-family="Arial,Arial_MSFontService,sans-serif" font-weight="700" font-size="41" transform="matrix(0.232828 0 0 0.232603 206.363 341)">YES</text><text font-family="Arial,Arial_MSFontService,sans-serif" font-weight="700" font-size="41" transform="matrix(0.232828 0 0 0.232603 276.563 392)">NO</text><path d="M250.397 476.72 307.734 446.482 365.071 476.72 307.734 506.958Z" stroke="#000000" stroke-width="1.0661" stroke-miterlimit="8" fill="#FFFFFF" fill-rule="evenodd" transform="matrix(1.00097 0 0 1 -13.9697 -22.0973)"/><text font-family="Arial,Arial_MSFontService,sans-serif" font-weight="400" font-size="37" transform="matrix(0.232828 0 0 0.232603 269.361 452)">PCM System</text><text font-family="Arial,Arial_MSFontService,sans-serif" font-weight="400" font-size="37" transform="matrix(0.232828 0 0 0.232603 276.102 463)">Enabled</text><text font-family="Arial,Arial_MSFontService,sans-serif" font-weight="400" font-size="37" transform="matrix(0.232828 0 0 0.232603 307.717 463)">?</text><text font-family="Arial,Arial_MSFontService,sans-serif" font-weight="700" font-size="41" transform="matrix(0.232828 0 0 0.232603 205.662 449)">YES</text><text font-family="Arial,Arial_MSFontService,sans-serif" font-weight="700" font-size="41" transform="matrix(0.232828 0 0 0.232603 276.563 498)">NO</text><path d="M0 0 0.32621 41.9158" stroke="#000000" stroke-width="1.0661" stroke-miterlimit="8" fill="none" fill-rule="evenodd" transform="matrix(-1.00097 0 0 1 294.737 382.051)"/><path d="M333.669 406.474 469.044 406.474 469.044 452.529 333.669 452.529Z" stroke="#000000" stroke-width="1.0661" stroke-miterlimit="8" stroke-dasharray="4.26438 3.19829" fill="none" transform="matrix(1.00097 0 0 1 -13.9697 -22.0973)"/><text font-family="Arial,Arial_MSFontService,sans-serif" font-style="italic" font-weight="400" font-size="37" transform="matrix(0.232828 0 0 0.232603 341.526 400)">Note</text><text font-family="Arial,Arial_MSFontService,sans-serif" font-style="italic" font-weight="400" font-size="37" transform="matrix(0.232828 0 0 0.232603 359.723 400)">: </text><text font-family="Arial,Arial_MSFontService,sans-serif" font-style="italic" font-weight="400" font-size="37" transform="matrix(0.232828 0 0 0.232603 364.51 400)">Applies only when </text><text font-family="Arial,Arial_MSFontService,sans-serif" font-style="italic" font-weight="400" font-size="37" transform="matrix(0.232828 0 0 0.232603 337.329 411)">Auxiliary conveyors and</text><text font-family="Arial,Arial_MSFontService,sans-serif" font-style="italic" font-weight="400" font-size="37" transform="matrix(0.232828 0 0 0.232603 428.304 411)">/</text><text font-family="Arial,Arial_MSFontService,sans-serif" font-style="italic" font-weight="400" font-size="37" transform="matrix(0.232828 0 0 0.232603 430.697 411)">or </text><text font-family="Arial,Arial_MSFontService,sans-serif" font-style="italic" font-weight="400" font-size="37" transform="matrix(0.232828 0 0 0.232603 337.524 421)">PCM System are enabled</text><text font-family="Arial,Arial_MSFontService,sans-serif" font-style="italic" font-weight="400" font-size="37" transform="matrix(0.232828 0 0 0.232603 435.68 421)">.</text><path d="M110.37 389.494 225.509 389.494 225.509 427.873 110.37 427.873Z" stroke="#000000" stroke-width="1.0661" stroke-miterlimit="8" fill="#FFFFFF" transform="matrix(1.00097 0 0 1 -13.9697 -22.0973)"/><text font-family="Arial,Arial_MSFontService,sans-serif" font-weight="400" font-size="37" transform="matrix(0.232828 0 0 0.232603 112.898 385)">AUXILIARY conveyor </text><text font-family="Arial,Arial_MSFontService,sans-serif" font-weight="400" font-size="37" transform="matrix(0.232828 0 0 0.232603 139.379 395)">SPEED</text><path d="M110.37 494.863 225.509 494.863 225.509 533.243 110.37 533.243Z" stroke="#000000" stroke-width="1.0661" stroke-miterlimit="8" fill="#FFFFFF" transform="matrix(1.00097 0 0 1 -13.9697 -22.0973)"/><text font-family="Arial,Arial_MSFontService,sans-serif" font-weight="400" font-size="37" transform="matrix(0.232828 0 0 0.232603 110.097 495)">PCM conveyor SPEED</text><path d="M250.63 583.95 365.768 583.95 365.768 622.33 250.63 622.33Z" stroke="#000000" stroke-width="1.0661" stroke-miterlimit="8" fill="#FFFFFF" transform="matrix(1.00097 0 0 1 -13.9697 -22.0973)"/><text font-family="Arial,Arial_MSFontService,sans-serif" font-weight="400" font-size="37" transform="matrix(0.232828 0 0 0.232603 261.422 574)">ENTER TARGET</text><text font-family="Arial,Arial_MSFontService,sans-serif" font-weight="400" font-size="37" transform="matrix(0.232828 0 0 0.232603 252.553 584)">TYPE</text><text font-family="Arial,Arial_MSFontService,sans-serif" font-weight="400" font-size="37" transform="matrix(0.232828 0 0 0.232603 275.053 584)">, </text><text font-family="Arial,Arial_MSFontService,sans-serif" font-weight="400" font-size="37" transform="matrix(0.232828 0 0 0.232603 279.84 584)">DIMENSIONS</text><text font-family="Arial,Arial_MSFontService,sans-serif" font-weight="400" font-size="37" transform="matrix(0.232828 0 0 0.232603 334.405 584)">,</text><text font-family="Arial,Arial_MSFontService,sans-serif" font-weight="400" font-size="37" transform="matrix(0.232828 0 0 0.232603 267.156 594)">AND WEIGHT</text><path d="M311.572 196.201 426.71 196.201 426.71 234.58 311.572 234.58Z" stroke="#000000" stroke-width="1.0661" stroke-miterlimit="8" fill="#FFFFFF" transform="matrix(1.00097 0 0 1 -13.9697 -22.0973)"/><text font-family="Arial,Arial_MSFontService,sans-serif" font-weight="400" font-size="37" transform="matrix(0.232828 0 0 0.232603 311.431 191)">FLICKER SPEED AND </text><text font-family="Arial,Arial_MSFontService,sans-serif" font-weight="400" font-size="37" transform="matrix(0.232828 0 0 0.232603 339.31 201)">HEIGHT</text><path d="M171.545 265.749 286.683 265.749 286.683 304.129 171.545 304.129Z" stroke="#000000" stroke-width="1.0661" stroke-miterlimit="8" fill="#FFFFFF" transform="matrix(1.00097 0 0 1 -13.9697 -22.0973)"/><text font-family="Arial,Arial_MSFontService,sans-serif" font-weight="400" font-size="37" transform="matrix(0.232828 0 0 0.232603 197.189 261)">HOPPER</text><text font-family="Arial,Arial_MSFontService,sans-serif" font-weight="400" font-size="37" transform="matrix(0.232828 0 0 0.232603 180.585 271)">TARGET HEIGHT</text><path d="M310.176 265.749 425.315 265.749 425.315 304.129 310.176 304.129Z" stroke="#000000" stroke-width="1.0661" stroke-miterlimit="8" fill="#FFFFFF" transform="matrix(1.00097 0 0 1 -13.9697 -22.0973)"/><text font-family="Arial,Arial_MSFontService,sans-serif" font-weight="400" font-size="37" transform="matrix(0.232828 0 0 0.232603 313.492 261)">PRODUCT</text><text font-family="Arial,Arial_MSFontService,sans-serif" font-weight="400" font-size="37" transform="matrix(0.232828 0 0 0.232603 356.085 261)">/</text><text font-family="Arial,Arial_MSFontService,sans-serif" font-weight="400" font-size="37" transform="matrix(0.232828 0 0 0.232603 358.479 261)">PORTION</text><text font-family="Arial,Arial_MSFontService,sans-serif" font-weight="400" font-size="37" transform="matrix(0.232828 0 0 0.232603 320.891 271)">conveyor SPEED</text><path d="M171.545 285.355 152.354 285.355 152.887 284.822 152.887 323.76 152.354 323.228 308.936 323.228 308.936 338.177 307.871 338.177 307.871 323.76 308.404 324.293 151.821 324.293 151.821 284.29 171.545 284.29ZM311.602 337.112 308.404 343.508 305.206 337.112Z" transform="matrix(1.00097 0 0 1 -13.9697 -22.0973)"/><path d="M0 0.53305-39.4455 0.53305-38.9126 0-38.9126 69.5139-39.4455 68.9808-3.92425 68.9808-3.92425 70.047-39.9787 70.047-39.9787-0.53305 0-0.53305ZM-4.99034 66.3156 1.40624 69.5139-4.99034 72.7122Z" transform="matrix(-1.00097 0 0 1 413.165 193.177)"/><path d="M1.90385e-06-0.53305 18.1728-0.532984 18.1728 0.533115-1.90385e-06 0.53305ZM17.1067-3.19822 23.5031 8.39446e-05 17.1067 3.19836Z" transform="matrix(-1.00097 0 0 1 296.516 262.725)"/><path d="M308.848 622.33 308.848 639.068 307.783 639.068 307.783 622.33ZM311.514 638 308.315 644.397 305.117 638Z" transform="matrix(1.00097 0 0 1 -13.9697 -22.0973)"/><path d="M14.5377 129.909 129.676 129.909 129.676 168.288 14.5377 168.288Z" stroke="#000000" stroke-width="1.0661" stroke-miterlimit="8" fill="#FFFFFF" transform="matrix(1.00097 0 0 1 -13.9697 -22.0973)"/><text font-family="Arial,Arial_MSFontService,sans-serif" font-weight="400" font-size="37" transform="matrix(0.232828 0 0 0.232603 22.9278 125)">ENTER RECIPE </text><text font-family="Arial,Arial_MSFontService,sans-serif" font-weight="400" font-size="37" transform="matrix(0.232828 0 0 0.232603 88.9846 125)">#</text><text font-family="Arial,Arial_MSFontService,sans-serif" font-weight="400" font-size="37" transform="matrix(0.232828 0 0 0.232603 38.6681 135)">(</text><text font-family="Arial,Arial_MSFontService,sans-serif" font-weight="400" font-size="37" transform="matrix(0.232828 0 0 0.232603 41.5369 135)">RECALL</text><text font-family="Arial,Arial_MSFontService,sans-serif" font-weight="400" font-size="37" transform="matrix(0.232828 0 0 0.232603 75.0532 135)">)</text><path d="M250.397 129.909 365.536 129.909 365.536 168.288 250.397 168.288Z" stroke="#000000" stroke-width="1.0661" stroke-miterlimit="8" fill="#FFFFFF" transform="matrix(1.00097 0 0 1 -13.9697 -22.0973)"/><text font-family="Arial,Arial_MSFontService,sans-serif" font-weight="400" font-size="37" transform="matrix(0.232828 0 0 0.232603 258.898 125)">ENTER RECIPE </text><text font-family="Arial,Arial_MSFontService,sans-serif" font-weight="400" font-size="37" transform="matrix(0.232828 0 0 0.232603 324.955 125)">#</text><text font-family="Arial,Arial_MSFontService,sans-serif" font-weight="400" font-size="37" transform="matrix(0.232828 0 0 0.232603 281.373 135)">(</text><text font-family="Arial,Arial_MSFontService,sans-serif" font-weight="400" font-size="37" transform="matrix(0.232828 0 0 0.232603 284.242 135)">NEW</text><text font-family="Arial,Arial_MSFontService,sans-serif" font-weight="400" font-size="37" transform="matrix(0.232828 0 0 0.232603 304.34 135)">)</text><path d="M238.302 51.2881 245.047 44.5435 269.936 44.5435 276.681 51.2881 276.681 60.8266 269.936 67.571 245.047 67.571 238.302 60.8266Z" stroke="#000000" stroke-width="1.59915" stroke-miterlimit="8" fill="#FFFFFF" fill-rule="evenodd" transform="matrix(1.00097 0 0 1 -13.9697 -22.0973)"/><text font-family="Arial,Arial_MSFontService,sans-serif" font-weight="700" font-size="37" transform="matrix(0.232828 0 0 0.232603 241.366 37)">1</text><path d="M32.2155 82.9221 38.9601 76.1775 63.8505 76.1775 70.595 82.9221 70.595 92.4607 63.8505 99.2052 38.9601 99.2052 32.2155 92.4607Z" stroke="#000000" stroke-width="1.59915" stroke-miterlimit="8" fill="#FFFFFF" fill-rule="evenodd" transform="matrix(1.00097 0 0 1 -13.9697 -22.0973)"/><text font-family="Arial,Arial_MSFontService,sans-serif" font-weight="700" font-size="37" transform="matrix(0.232828 0 0 0.232603 34.9233 69)">2</text><path d="M358.092 85.0155 364.838 78.2709 389.726 78.2709 396.472 85.0155 396.472 94.5541 389.726 101.298 364.838 101.298 358.092 94.5541Z" stroke="#000000" stroke-width="1.59915" stroke-miterlimit="8" fill="#FFFFFF" fill-rule="evenodd" transform="matrix(1.00097 0 0 1 -13.9697 -22.0973)"/><text font-family="Arial,Arial_MSFontService,sans-serif" font-weight="700" font-size="37" transform="matrix(0.232828 0 0 0.232603 361.261 71)">3</text><path d="M84.086 249.002 90.8306 242.256 115.721 242.256 122.466 249.002 122.466 258.538 115.721 265.284 90.8306 265.284 84.086 258.538Z" stroke="#000000" stroke-width="1.59915" stroke-miterlimit="8" fill="#FFFFFF" fill-rule="evenodd" transform="matrix(1.00097 0 0 1 -13.9697 -22.0973)"/><text font-family="Arial,Arial_MSFontService,sans-serif" font-weight="700" font-size="37" transform="matrix(0.232828 0 0 0.232603 86.872 235)">4</text><path d="M419.5 175.731 426.245 168.986 451.134 168.986 457.879 175.731 457.879 185.269 451.134 192.014 426.245 192.014 419.5 185.269Z" stroke="#000000" stroke-width="1.59915" stroke-miterlimit="8" fill="#FFFFFF" fill-rule="evenodd" transform="matrix(1.00097 0 0 1 -13.9697 -22.0973)"/><text font-family="Arial,Arial_MSFontService,sans-serif" font-weight="700" font-size="37" transform="matrix(0.232828 0 0 0.232603 422.704 162)">5</text><path d="M422.756 246.443 429.502 239.697 454.39 239.697 461.136 246.443 461.136 255.98 454.39 262.725 429.502 262.725 422.756 255.98Z" stroke="#000000" stroke-width="1.59915" stroke-miterlimit="8" fill="#FFFFFF" fill-rule="evenodd" transform="matrix(1.00097 0 0 1 -13.9697 -22.0973)"/><text font-family="Arial,Arial_MSFontService,sans-serif" font-weight="700" font-size="37" transform="matrix(0.232828 0 0 0.232603 425.806 232)">6</text><path d="M101.531 297.616 108.276 290.87 133.166 290.87 139.911 297.616 139.911 307.152 133.166 313.898 108.276 313.898 101.531 307.152Z" stroke="#000000" stroke-width="1.59915" stroke-miterlimit="8" fill="#FFFFFF" fill-rule="evenodd" transform="matrix(1.00097 0 0 1 -13.9697 -22.0973)"/><text font-family="Arial,Arial_MSFontService,sans-serif" font-weight="700" font-size="37" transform="matrix(0.232828 0 0 0.232603 104.359 283)">7</text><path d="M363.908 344.834 370.653 338.089 395.542 338.089 402.287 344.834 402.287 354.371 395.542 361.116 370.653 361.116 363.908 354.371Z" stroke="#000000" stroke-width="1.59915" stroke-miterlimit="8" fill="#FFFFFF" fill-rule="evenodd" transform="matrix(1.00097 0 0 1 -13.9697 -22.0973)"/><text font-family="Arial,Arial_MSFontService,sans-serif" font-weight="700" font-size="37" transform="matrix(0.232828 0 0 0.232603 367.084 331)">8</text><path d="M348.091 496.957 354.836 490.211 379.725 490.211 386.47 496.957 386.47 506.493 379.725 513.239 354.836 513.239 348.091 506.493Z" stroke="#000000" stroke-width="1.59915" stroke-miterlimit="8" fill="#FFFFFF" fill-rule="evenodd" transform="matrix(1.00097 0 0 1 -13.9697 -22.0973)"/><text font-family="Arial,Arial_MSFontService,sans-serif" font-weight="700" font-size="37" transform="matrix(0.232828 0 0 0.232603 351.235 483)">9</text><path d="M372.979 570.459 379.725 563.714 404.613 563.714 411.359 570.459 411.359 579.996 404.613 586.741 379.725 586.741 372.979 579.996Z" stroke="#000000" stroke-width="1.59915" stroke-miterlimit="8" fill="#FFFFFF" fill-rule="evenodd" transform="matrix(1.00097 0 0 1 -13.9697 -22.0973)"/><text font-family="Arial,Arial_MSFontService,sans-serif" font-weight="700" font-size="37" transform="matrix(0.232828 0 0 0.232603 373.594 556)">10</text><path d="M372.979 637.449 379.725 630.703 404.613 630.703 411.359 637.449 411.359 646.985 404.613 653.731 379.725 653.731 372.979 646.985Z" stroke="#000000" stroke-width="1.59915" stroke-miterlimit="8" fill="#FFFFFF" fill-rule="evenodd" transform="matrix(1.00097 0 0 1 -13.9697 -22.0973)"/><text font-family="Arial,Arial_MSFontService,sans-serif" font-weight="700" font-size="37" transform="matrix(0.232828 0 0 0.232603 373.589 623)">11</text><path d="M14.5377 196.201 129.676 196.201 129.676 234.58 14.5377 234.58Z" stroke="#000000" stroke-width="1.0661" stroke-miterlimit="8" fill="#FFFFFF" transform="matrix(1.00097 0 0 1 -13.9697 -22.0973)"/><text font-family="Arial,Arial_MSFontService,sans-serif" font-weight="400" font-size="37" transform="matrix(0.232828 0 0 0.232603 30.7312 191)">LOAD SAVED</text><text font-family="Arial,Arial_MSFontService,sans-serif" font-weight="400" font-size="37" transform="matrix(0.232828 0 0 0.232603 42.2029 201)">RECIPE</text></g></svg>