<svg width="451" height="598" xmlns="http://www.w3.org/2000/svg" xmlns:xlink="http://www.w3.org/1999/xlink" xml:space="preserve" overflow="hidden"><g><path d="M117.473 274.401 117.473 291.184 82.4291 291.184 82.984 290.63 82.984 301.313 81.8743 301.313 81.8743 290.076 116.918 290.076 116.364 290.63 116.364 274.401ZM85.7578 300.202 82.4291 306.859 79.1005 300.202Z" transform="matrix(1 0 0 1.0009 -7.26248 -23.5032)"/><path d="M7.86773 33.8916C7.86773 30.2148 10.8483 27.2343 14.525 27.2343L99.9801 27.2343C103.657 27.2343 106.637 30.2148 106.637 33.8916L106.637 60.5207C106.637 64.1974 103.657 67.1779 99.9801 67.1779L14.525 67.1779C10.8483 67.1779 7.86773 64.1974 7.86773 60.5207Z" stroke="#000000" stroke-width="1.10954" stroke-miterlimit="8" fill="#FFFFFF" fill-rule="evenodd" transform="matrix(1 0 0 1.0009 -7.26248 -23.5032)"/><text font-family="Arial,Arial_MSFontService,sans-serif" font-style="italic" font-weight="400" font-size="37" transform="matrix(0.242083 0 0 0.242301 12.1432 22)">Applicator Running </text><text font-family="Arial,Arial_MSFontService,sans-serif" font-style="italic" font-weight="400" font-size="37" transform="matrix(0.242083 0 0 0.242301 22.8947 32)">In RUN mode</text><text font-family="Arial Narrow,Arial Narrow_MSFontService,sans-serif" font-weight="700" font-stretch="condensed" font-size="41" transform="matrix(0.242083 0 0 0.242301 83.923 201)">YES</text><path d="M69.1146 182.651 117.047 150.696 164.979 182.651 117.047 214.606Z" stroke="#000000" stroke-width="1.10954" stroke-miterlimit="8" fill="#FFFFFF" fill-rule="evenodd" transform="matrix(1 0 0 1.0009 -7.26248 -23.5032)"/><text font-family="Arial,Arial_MSFontService,sans-serif" font-weight="700" font-size="41" transform="matrix(0.242083 0 0 0.242301 96.0034 157)">Timer </text><text font-family="Arial,Arial_MSFontService,sans-serif" font-weight="700" font-size="41" transform="matrix(0.242083 0 0 0.242301 88.2365 169)">Expired</text><text font-family="Arial,Arial_MSFontService,sans-serif" font-weight="700" font-size="41" transform="matrix(0.242083 0 0 0.242301 124.642 169)">?</text><text font-family="Arial Narrow,Arial Narrow_MSFontService,sans-serif" font-weight="700" font-stretch="condensed" font-size="41" transform="matrix(0.242083 0 0 0.242301 166.194 152)">NO</text><path d="M61.1259 94.4122C61.1259 90.7355 64.1064 87.755 67.7831 87.755L166.311 87.755C169.988 87.755 172.968 90.7355 172.968 94.4122L172.968 121.041C172.968 124.718 169.988 127.699 166.311 127.699L67.7831 127.699C64.1064 127.699 61.1259 124.718 61.1259 121.041Z" stroke="#000000" stroke-width="1.10954" stroke-miterlimit="8" fill="#FFFFFF" fill-rule="evenodd" transform="matrix(1 0 0 1.0009 -7.26248 -23.5032)"/><text font-family="Arial,Arial_MSFontService,sans-serif" font-style="italic" font-weight="400" font-size="37" transform="matrix(0.242083 0 0 0.242301 100.164 77)">Start </text><text font-family="Arial,Arial_MSFontService,sans-serif" font-style="italic" font-weight="400" font-size="37" transform="matrix(0.242083 0 0 0.242301 84.6304 87)">CONSERVE </text><text font-family="Arial,Arial_MSFontService,sans-serif" font-style="italic" font-weight="400" font-size="37" transform="matrix(0.242083 0 0 0.242301 98.2945 98)">Timer</text><path d="M117.602 214.606 117.602 229.067 116.492 229.067 116.492 214.606ZM120.376 227.957 117.047 234.615 113.718 227.957Z" transform="matrix(1 0 0 1.0009 -7.26248 -23.5032)"/><path d="M54.8317 241.114C54.8317 237.438 57.8122 234.457 61.489 234.457L172.605 234.457C176.282 234.457 179.262 237.438 179.262 241.114L179.262 267.743C179.262 271.421 176.282 274.401 172.605 274.401L61.489 274.401C57.8122 274.401 54.8317 271.421 54.8317 267.743Z" stroke="#000000" stroke-width="1.10954" stroke-miterlimit="8" fill="#FFFFFF" fill-rule="evenodd" transform="matrix(1 0 0 1.0009 -7.26248 -23.5032)"/><text font-family="Arial,Arial_MSFontService,sans-serif" font-style="italic" font-weight="400" font-size="37" transform="matrix(0.242083 0 0 0.242301 72.2176 229)">CONSERVE Mode</text><text font-family="Arial,Arial_MSFontService,sans-serif" font-style="italic" font-weight="400" font-size="37" transform="matrix(0.242083 0 0 0.242301 97.4596 240)">Active</text><path d="M38.8543 313.739C38.8543 310.062 41.8348 307.082 45.5115 307.082L119.589 307.082C123.266 307.082 126.246 310.062 126.246 313.739L126.246 340.368C126.246 344.045 123.266 347.025 119.589 347.025L45.5115 347.025C41.8348 347.025 38.8543 344.045 38.8543 340.368Z" stroke="#000000" stroke-width="1.10954" stroke-miterlimit="8" fill="#FFFFFF" fill-rule="evenodd" transform="matrix(1 0 0 1.0009 -7.26248 -23.5032)"/><text font-family="Arial,Arial_MSFontService,sans-serif" font-style="italic" font-weight="400" font-size="37" transform="matrix(0.242083 0 0 0.242301 61.5142 302)">Motors</text><text font-family="Arial,Arial_MSFontService,sans-serif" font-style="italic" font-weight="400" font-size="37" transform="matrix(0.242083 0 0 0.242301 65.8859 312)">Stop</text><path d="M38.6122 371.113C38.6122 367.435 41.5927 364.455 45.2695 364.455L119.831 364.455C123.508 364.455 126.488 367.435 126.488 371.113L126.488 397.742C126.488 401.419 123.508 404.399 119.831 404.399L45.2695 404.399C41.5927 404.399 38.6122 401.419 38.6122 397.742Z" stroke="#000000" stroke-width="1.10954" stroke-miterlimit="8" fill="#FFFFFF" fill-rule="evenodd" transform="matrix(1 0 0 1.0009 -7.26248 -23.5032)"/><text font-family="Arial,Arial_MSFontService,sans-serif" font-style="italic" font-weight="400" font-size="37" transform="matrix(0.242083 0 0 0.242301 53.7474 359)">Pause PID </text><text font-family="Arial,Arial_MSFontService,sans-serif" font-style="italic" font-weight="400" font-size="37" transform="matrix(0.242083 0 0 0.242301 62.9011 370)">Loops</text><path d="M0-0.554774 16.7844-0.554774 16.7844 112.102 16.2297 111.547 26.9114 111.547 26.9114 112.656 15.6749 112.656 15.6749 0 16.2297 0.554774 0 0.554774ZM25.8019 108.773 32.4592 112.102 25.8019 115.43Z" transform="matrix(1.83697e-16 1.0009 1 -1.83863e-16 109.784 251.145)"/><path d="M166.916 396.289C166.916 392.612 169.897 389.632 173.573 389.632L284.689 389.632C288.366 389.632 291.346 392.612 291.346 396.289L291.346 422.918C291.346 426.596 288.366 429.576 284.689 429.576L173.573 429.576C169.897 429.576 166.916 426.596 166.916 422.918Z" stroke="#000000" stroke-width="1.10954" stroke-miterlimit="8" fill="#FFFFFF" fill-rule="evenodd" transform="matrix(1 0 0 1.0009 -7.26248 -23.5032)"/><text font-family="Arial,Arial_MSFontService,sans-serif" font-style="italic" font-weight="400" font-size="37" transform="matrix(0.242083 0 0 0.242301 202.419 385)">Turn OFF</text><text font-family="Arial,Arial_MSFontService,sans-serif" font-style="italic" font-weight="400" font-size="37" transform="matrix(0.242083 0 0 0.242301 191.185 395)">Interlock Signal</text><path d="M22.6347 427.76C22.6347 424.083 25.6152 421.103 29.292 421.103L135.808 421.103C139.485 421.103 142.466 424.083 142.466 427.76L142.466 454.389C142.466 458.066 139.485 461.046 135.808 461.046L29.292 461.046C25.6152 461.046 22.6347 458.066 22.6347 454.389Z" stroke="#000000" stroke-width="1.10954" stroke-miterlimit="8" fill="#FFFFFF" fill-rule="evenodd" transform="matrix(1 0 0 1.0009 -7.26248 -23.5032)"/><text font-family="Arial,Arial_MSFontService,sans-serif" font-style="italic" font-weight="400" font-size="37" transform="matrix(0.242083 0 0 0.242301 34.3305 416)">Display CONSERVE </text><text font-family="Arial,Arial_MSFontService,sans-serif" font-style="italic" font-weight="400" font-size="37" transform="matrix(0.242083 0 0 0.242301 50.5575 427)">Mode Active</text><path d="M329.111 402.099C329.111 398.422 332.091 395.442 335.769 395.442L446.642 395.442C450.32 395.442 453.3 398.422 453.3 402.099L453.3 428.728C453.3 432.406 450.32 435.386 446.642 435.386L335.769 435.386C332.091 435.386 329.111 432.406 329.111 428.728Z" stroke="#000000" stroke-width="1.10954" stroke-miterlimit="8" fill="#FFFFFF" fill-rule="evenodd" transform="matrix(1 0 0 1.0009 -7.26248 -23.5032)"/><text font-family="Arial,Arial_MSFontService,sans-serif" font-style="italic" font-weight="400" font-size="37" transform="matrix(0.242083 0 0 0.242301 346.415 390)">CONSERVE Mode</text><text font-family="Arial,Arial_MSFontService,sans-serif" font-style="italic" font-weight="400" font-size="37" transform="matrix(0.242083 0 0 0.242301 363.475 401)">Not Active</text><path d="M344.12 525.198 392.053 493.243 439.985 525.198 392.053 557.153Z" stroke="#000000" stroke-width="1.10954" stroke-miterlimit="8" fill="#FFFFFF" fill-rule="evenodd" transform="matrix(1 0 0 1.0009 -7.26248 -23.5032)"/><text font-family="Arial,Arial_MSFontService,sans-serif" font-weight="700" font-size="41" transform="matrix(0.242083 0 0 0.242301 356.602 500)">SHREDDER</text><text font-family="Arial,Arial_MSFontService,sans-serif" font-weight="700" font-size="41" transform="matrix(0.242083 0 0 0.242301 362.151 512)">Enabled</text><text font-family="Arial,Arial_MSFontService,sans-serif" font-weight="700" font-size="41" transform="matrix(0.242083 0 0 0.242301 400.757 512)">?</text><path d="M204.439 474.966C204.439 471.289 207.419 468.309 211.096 468.309L285.658 468.309C289.335 468.309 292.315 471.289 292.315 474.966L292.315 501.595C292.315 505.272 289.335 508.253 285.658 508.253L211.096 508.253C207.419 508.253 204.439 505.272 204.439 501.595Z" stroke="#000000" stroke-width="1.10954" stroke-miterlimit="8" fill="#FFFFFF" fill-rule="evenodd" transform="matrix(1 0 0 1.0009 -7.26248 -23.5032)"/><text font-family="Arial,Arial_MSFontService,sans-serif" font-style="italic" font-weight="400" font-size="37" transform="matrix(0.242083 0 0 0.242301 224.352 463)">Resume</text><text font-family="Arial,Arial_MSFontService,sans-serif" font-style="italic" font-weight="400" font-size="37" transform="matrix(0.242083 0 0 0.242301 218.943 474)">RUN </text><text font-family="Arial,Arial_MSFontService,sans-serif" font-style="italic" font-weight="400" font-size="37" transform="matrix(0.242083 0 0 0.242301 240.579 474)">Mode</text><path d="M204.439 528.466C204.439 524.789 207.419 521.809 211.096 521.809L285.658 521.809C289.335 521.809 292.315 524.789 292.315 528.466L292.315 555.096C292.315 558.773 289.335 561.753 285.658 561.753L211.096 561.753C207.419 561.753 204.439 558.773 204.439 555.096Z" stroke="#000000" stroke-width="1.10954" stroke-miterlimit="8" fill="#FFFFFF" fill-rule="evenodd" transform="matrix(1 0 0 1.0009 -7.26248 -23.5032)"/><text font-family="Arial,Arial_MSFontService,sans-serif" font-style="italic" font-weight="400" font-size="37" transform="matrix(0.242083 0 0 0.242301 224.352 517)">Resum</text><text font-family="Arial,Arial_MSFontService,sans-serif" font-style="italic" font-weight="400" font-size="37" transform="matrix(0.242083 0 0 0.242301 252.507 517)">e</text><text font-family="Arial,Arial_MSFontService,sans-serif" font-style="italic" font-weight="400" font-size="37" transform="matrix(0.242083 0 0 0.242301 220.052 527)">PID </text><text font-family="Arial,Arial_MSFontService,sans-serif" font-style="italic" font-weight="400" font-size="37" transform="matrix(0.242083 0 0 0.242301 237.389 527)">Loops</text><path d="M336.858 579.546C336.858 575.869 339.838 572.889 343.515 572.889L440.59 572.889C444.268 572.889 447.248 575.869 447.248 579.546L447.248 606.175C447.248 609.852 444.268 612.832 440.59 612.832L343.515 612.832C339.838 612.832 336.858 609.852 336.858 606.175Z" stroke="#000000" stroke-width="1.10954" stroke-miterlimit="8" fill="#FFFFFF" fill-rule="evenodd" transform="matrix(1 0 0 1.0009 -7.26248 -23.5032)"/><text font-family="Arial,Arial_MSFontService,sans-serif" font-style="italic" font-weight="400" font-size="37" transform="matrix(0.242083 0 0 0.242301 343.704 568)">Turn Interlock Signal </text><text font-family="Arial,Arial_MSFontService,sans-serif" font-style="italic" font-weight="400" font-size="37" transform="matrix(0.242083 0 0 0.242301 377.961 578)">ON</text><path d="M186.041 581.967C186.041 578.289 189.021 575.309 192.698 575.309L303.814 575.309C307.491 575.309 310.471 578.289 310.471 581.967L310.471 608.596C310.471 612.273 307.491 615.253 303.814 615.253L192.698 615.253C189.021 615.253 186.041 612.273 186.041 608.596Z" stroke="#000000" stroke-width="1.10954" stroke-miterlimit="8" fill="#FFFFFF" fill-rule="evenodd" transform="matrix(1 0 0 1.0009 -7.26248 -23.5032)"/><text font-family="Arial,Arial_MSFontService,sans-serif" font-style="italic" font-weight="400" font-size="37" transform="matrix(0.242083 0 0 0.242301 226.36 570)">Display</text><text font-family="Arial,Arial_MSFontService,sans-serif" font-style="italic" font-weight="400" font-size="37" transform="matrix(0.242083 0 0 0.242301 218.943 581)">RUN </text><text font-family="Arial,Arial_MSFontService,sans-serif" font-style="italic" font-weight="400" font-size="37" transform="matrix(0.242083 0 0 0.242301 240.579 581)">Mode</text><path d="M106.637 46.7723 117.765 46.7725 117.765 47.882 106.637 47.882ZM116.656 43.9985 123.313 47.3272 116.656 50.6558Z" transform="matrix(1 0 0 1.0009 -7.26248 -23.5032)"/><path d="M223.079 43.6252 278.119 43.6252 278.119 69.7041 277.01 69.7041 277.01 44.1801 277.565 44.7349 223.079 44.7349ZM280.893 68.5946 277.565 75.2519 274.236 68.5946Z" transform="matrix(1 0 0 1.0009 -7.26248 -23.5032)"/><path d="M229.615 107.122 277.548 75.1667 325.48 107.122 277.548 139.076Z" stroke="#000000" stroke-width="1.10954" stroke-miterlimit="8" fill="#FFFFFF" fill-rule="evenodd" transform="matrix(1 0 0 1.0009 -7.26248 -23.5032)"/><text font-family="Arial,Arial_MSFontService,sans-serif" font-weight="700" font-size="41" transform="matrix(0.242083 0 0 0.242301 254.935 81)">Target</text><text font-family="Arial,Arial_MSFontService,sans-serif" font-weight="700" font-size="41" transform="matrix(0.242083 0 0 0.242301 246.058 93)">Detected</text><text font-family="Arial,Arial_MSFontService,sans-serif" font-weight="700" font-size="41" transform="matrix(0.242083 0 0 0.242301 287.979 93)">?</text><text font-family="Arial Narrow,Arial Narrow_MSFontService,sans-serif" font-weight="700" font-stretch="condensed" font-size="41" transform="matrix(0.242083 0 0 0.242301 200.745 78)">NO</text><text font-family="Arial Narrow,Arial Narrow_MSFontService,sans-serif" font-weight="700" font-stretch="condensed" font-size="41" transform="matrix(0.242083 0 0 0.242301 326.821 78)">YES</text><path d="M181.199 339.037 229.131 307.082 277.064 339.037 229.131 370.992Z" stroke="#000000" stroke-width="1.10954" stroke-miterlimit="8" fill="#FFFFFF" fill-rule="evenodd" transform="matrix(1 0 0 1.0009 -7.26248 -23.5032)"/><text font-family="Arial,Arial_MSFontService,sans-serif" font-weight="700" font-size="41" transform="matrix(0.242083 0 0 0.242301 193.681 313)">SHREDDER</text><text font-family="Arial,Arial_MSFontService,sans-serif" font-weight="700" font-size="41" transform="matrix(0.242083 0 0 0.242301 199.229 325)">Enabled</text><text font-family="Arial,Arial_MSFontService,sans-serif" font-weight="700" font-size="41" transform="matrix(0.242083 0 0 0.242301 237.835 325)">?</text><text font-family="Arial Narrow,Arial Narrow_MSFontService,sans-serif" font-weight="700" font-stretch="condensed" font-size="41" transform="matrix(0.242083 0 0 0.242301 231.006 357)">YES</text><path d="M229.686 370.992 229.686 384.272 228.576 384.272 228.576 370.992ZM232.46 383.164 229.131 389.821 225.803 383.164Z" transform="matrix(1 0 0 1.0009 -7.26248 -23.5032)"/><path d="M391.678 435.386 391.678 452.363 248.256 452.363 248.81 451.809 248.81 462.683 247.701 462.683 247.701 451.254 391.123 451.254 390.566 451.809 390.566 435.386ZM251.584 461.572 248.256 468.229 244.927 461.572Z" transform="matrix(1 0 0 1.0009 -7.26248 -23.5032)"/><text font-family="Arial Narrow,Arial Narrow_MSFontService,sans-serif" font-weight="700" font-stretch="condensed" font-size="41" transform="matrix(0.242083 0 0 0.242301 395.074 543)">YES</text><path d="M392.607 557.153 392.607 567.234 391.498 567.234 391.498 557.153ZM395.382 566.125 392.053 572.782 388.724 566.125Z" transform="matrix(1 0 0 1.0009 -7.26248 -23.5032)"/><path d="M0.554774-2.74914e-06 0.554832 12.0825-0.554713 12.0825-0.554774 2.74914e-06ZM3.32869 10.973 8.73657e-05 17.6303-3.32859 10.973Z" transform="matrix(-1 0 0 1.0009 75.1669 323.836)"/><path d="M325.48 106.567 391.704 106.567 391.704 390.022 390.596 390.022 390.596 107.122 391.15 107.676 325.48 107.676ZM394.479 388.911 391.15 395.568 387.821 388.911Z" transform="matrix(1 0 0 1.0009 -7.26248 -23.5032)"/><path d="M82.984 404.399 82.984 415.528 81.8745 415.528 81.8743 404.399ZM85.7578 414.416 82.4294 421.074 79.1005 414.416Z" transform="matrix(1 0 0 1.0009 -7.26248 -23.5032)"/><path d="M123.341 30.7445C123.341 27.0677 126.322 24.0872 129.998 24.0872L216.422 24.0872C220.099 24.0872 223.079 27.0677 223.079 30.7445L223.079 57.3736C223.079 61.0503 220.099 64.0309 216.422 64.0309L129.998 64.0309C126.322 64.0309 123.341 61.0503 123.341 57.3736Z" stroke="#000000" stroke-width="1.10954" stroke-miterlimit="8" fill="#FFFFFF" fill-rule="evenodd" transform="matrix(1 0 0 1.0009 -7.26248 -23.5032)"/><text font-family="Arial,Arial_MSFontService,sans-serif" font-style="italic" font-weight="400" font-size="37" transform="matrix(0.242083 0 0 0.242301 152.878 19)">Target</text><text font-family="Arial,Arial_MSFontService,sans-serif" font-style="italic" font-weight="400" font-size="37" transform="matrix(0.242083 0 0 0.242301 146.915 29)">Detection</text><path d="M164.979 182.097 391.799 182.097 391.799 390.058 390.69 390.058 390.69 182.651 391.244 183.206 164.979 183.206ZM394.573 388.949 391.244 395.607 387.916 388.949Z" transform="matrix(1 0 0 1.0009 -7.26248 -23.5032)"/><path d="M391.639 435.378 392.387 487.603 391.278 487.62 390.53 435.393ZM395.144 486.453 391.91 493.159 388.487 486.55Z" transform="matrix(1 0 0 1.0009 -7.26248 -23.5032)"/><path d="M248.81 508.253 248.81 516.234 247.701 516.234 247.701 508.253ZM251.584 515.125 248.256 521.783 244.927 515.125Z" transform="matrix(1 0 0 1.0009 -7.26248 -23.5032)"/><path d="M248.81 561.753 248.81 569.734 247.701 569.734 247.701 561.753ZM251.584 568.625 248.256 575.283 244.927 568.625Z" transform="matrix(1 0 0 1.0009 -7.26248 -23.5032)"/><path d="M0.00585678-0.554742 51.2007-0.0142423 51.1891 1.09524-0.00585678 0.554742ZM50.1206-2.79966 56.7422 0.599067 50.0503 3.85725Z" transform="matrix(-1 0 0 1.0009 222.448 83.7152)"/><path d="M117.602 127.699 117.602 145.117 116.492 145.117 116.492 127.699ZM120.376 144.008 117.047 150.665 113.718 144.008Z" transform="matrix(1 0 0 1.0009 -7.26248 -23.5032)"/><path d="M157.717 300.061 299.335 300.061 299.335 439.017 157.717 439.017Z" stroke="#E97132" stroke-width="1.10954" stroke-linejoin="round" stroke-miterlimit="10" stroke-dasharray="4.43817 3.32864" fill="none" transform="matrix(1 0 0 1.0009 -7.26248 -23.5032)"/><path d="M330.564 479.687 457.657 479.687 457.657 620.337 330.564 620.337Z" stroke="#E97132" stroke-width="1.10954" stroke-linejoin="round" stroke-miterlimit="10" stroke-dasharray="4.43817 3.32864" fill="none" transform="matrix(1 0 0 1.0009 -7.26248 -23.5032)"/><path d="M312.65 42.7266 319.67 35.7072 345.573 35.7072 352.593 42.7266 352.593 52.6539 345.573 59.6734 319.67 59.6734 312.65 52.6539Z" stroke="#000000" stroke-width="1.66432" stroke-miterlimit="8" fill="#FFFFFF" fill-rule="evenodd" transform="matrix(1 0 0 1.0009 -7.26248 -23.5032)"/><text font-family="Arial,Arial_MSFontService,sans-serif" font-weight="700" font-size="37" transform="matrix(0.242083 0 0 0.242301 322.737 27)">1</text><path d="M191.124 125.035 198.144 118.015 224.048 118.015 231.068 125.035 231.068 134.962 224.048 141.981 198.144 141.981 191.124 134.962Z" stroke="#000000" stroke-width="1.66432" stroke-miterlimit="8" fill="#FFFFFF" fill-rule="evenodd" transform="matrix(1 0 0 1.0009 -7.26248 -23.5032)"/><text font-family="Arial,Arial_MSFontService,sans-serif" font-weight="700" font-size="37" transform="matrix(0.242083 0 0 0.242301 201.261 110)">2</text><path d="M21.1823 207.101 28.2017 200.081 54.1064 200.081 61.1259 207.101 61.1259 217.028 54.1064 224.048 28.2017 224.048 21.1823 217.028Z" stroke="#000000" stroke-width="1.66432" stroke-miterlimit="8" fill="#FFFFFF" fill-rule="evenodd" transform="matrix(1 0 0 1.0009 -7.26248 -23.5032)"/><text font-family="Arial,Arial_MSFontService,sans-serif" font-weight="700" font-size="37" transform="matrix(0.242083 0 0 0.242301 31.3558 192)">3</text><path d="M206.133 258.665 213.153 251.645 239.058 251.645 246.077 258.665 246.077 268.591 239.058 275.611 213.153 275.611 206.133 268.591Z" stroke="#000000" stroke-width="1.66432" stroke-miterlimit="8" fill="#FFFFFF" fill-rule="evenodd" transform="matrix(1 0 0 1.0009 -7.26248 -23.5032)"/><text font-family="Arial,Arial_MSFontService,sans-serif" font-weight="700" font-size="37" transform="matrix(0.242083 0 0 0.242301 216.205 244)">4</text><path d="M21.1823 488.886 28.2017 481.866 54.1064 481.866 61.1259 488.886 61.1259 498.811 54.1064 505.832 28.2017 505.832 21.1823 498.811Z" stroke="#000000" stroke-width="1.66432" stroke-miterlimit="8" fill="#FFFFFF" fill-rule="evenodd" transform="matrix(1 0 0 1.0009 -7.26248 -23.5032)"/><text font-family="Arial,Arial_MSFontService,sans-serif" font-weight="700" font-size="37" transform="matrix(0.242083 0 0 0.242301 31.3558 474)">5</text><path d="M400.768 130.603 407.788 123.583 433.691 123.583 440.711 130.603 440.711 140.53 433.691 147.549 407.788 147.549 400.768 140.53Z" stroke="#000000" stroke-width="1.66432" stroke-miterlimit="8" fill="#FFFFFF" fill-rule="evenodd" transform="matrix(1 0 0 1.0009 -7.26248 -23.5032)"/><text font-family="Arial,Arial_MSFontService,sans-serif" font-weight="700" font-size="37" transform="matrix(0.242083 0 0 0.242301 410.887 115)">6</text><path d="M400.768 365.182 407.788 358.161 433.691 358.161 440.711 365.182 440.711 375.107 433.691 382.127 407.788 382.127 400.768 375.107Z" stroke="#000000" stroke-width="1.66432" stroke-miterlimit="8" fill="#FFFFFF" fill-rule="evenodd" transform="matrix(1 0 0 1.0009 -7.26248 -23.5032)"/><text font-family="Arial,Arial_MSFontService,sans-serif" font-weight="700" font-size="37" transform="matrix(0.242083 0 0 0.242301 410.887 350)">7</text></g></svg>