<svg width="480" height="509" xmlns="http://www.w3.org/2000/svg" xmlns:xlink="http://www.w3.org/1999/xlink" xml:space="preserve" overflow="hidden"><g><path d="M29.7005 129.23 81.9733 94.3815 134.246 129.23 81.9733 164.079Z" stroke="#000000" stroke-width="1.21002" stroke-miterlimit="8" fill="#FFFFFF" fill-rule="evenodd" transform="matrix(1.00063 0 0 1 -16.1145 -16.8963)"/><text font-family="Arial,Arial_MSFontService,sans-serif" font-weight="700" font-size="41" transform="matrix(0.264172 0 0 0.264004 55.2195 110)">Run</text><text font-family="Arial,Arial_MSFontService,sans-serif" font-weight="700" font-size="41" transform="matrix(0.264172 0 0 0.264004 33.7281 123)">Production</text><text font-family="Arial,Arial_MSFontService,sans-serif" font-weight="700" font-size="41" transform="matrix(0.264172 0 0 0.264004 90.8872 123)">?</text><text font-family="Arial Narrow,Arial Narrow_MSFontService,sans-serif" font-weight="700" font-stretch="condensed" font-size="41" transform="matrix(0.264172 0 0 0.264004 72.9185 162)">YES</text><path d="M32.6045 481.676 119.726 481.676 119.726 525.236 32.6045 525.236Z" stroke="#000000" stroke-width="1.21002" stroke-miterlimit="8" fill="#FFFFFF" transform="matrix(1.00063 0 0 1 -16.1145 -16.8963)"/><text font-family="Arial,Arial_MSFontService,sans-serif" font-weight="400" font-size="37" transform="matrix(0.264172 0 0 0.264004 41.0626 484)">SELECT</text><text font-family="Arial,Arial_MSFontService,sans-serif" font-weight="700" font-size="37" transform="matrix(0.264172 0 0 0.264004 28.7247 496)">PRIME </text><text font-family="Arial,Arial_MSFontService,sans-serif" font-weight="400" font-size="37" transform="matrix(0.264172 0 0 0.264004 62.1728 496)">MODE</text><path d="M226.648 481.676 313.769 481.676 313.769 525.236 226.648 525.236Z" stroke="#000000" stroke-width="1.21002" stroke-miterlimit="8" fill="#FFFFFF" transform="matrix(1.00063 0 0 1 -16.1145 -16.8963)"/><text font-family="Arial,Arial_MSFontService,sans-serif" font-weight="400" font-size="37" transform="matrix(0.264172 0 0 0.264004 235.13 484)">SELECT</text><text font-family="Arial,Arial_MSFontService,sans-serif" font-weight="700" font-size="37" transform="matrix(0.264172 0 0 0.264004 227.714 496)">RUN </text><text font-family="Arial,Arial_MSFontService,sans-serif" font-weight="400" font-size="37" transform="matrix(0.264172 0 0 0.264004 251.325 496)">MODE</text><path d="M0-0.60501 45.2033-0.60501 45.2033 29.7026 43.9931 29.7026 43.9931 0 44.5982 0.60501 0 0.60501ZM48.2283 28.4926 44.5982 35.7528 40.9682 28.4926Z" transform="matrix(-1.00063 1.22465e-16 1.22543e-16 1 104.726 429.139)"/><path d="M225.328 445.43 270.736 445.43 270.736 475.738 269.527 475.738 269.527 446.035 270.132 446.64 225.328 446.64ZM273.762 474.526 270.132 481.786 266.502 474.526Z" transform="matrix(1.00063 0 0 1 -16.1145 -16.8963)"/><text font-family="Arial Narrow,Arial Narrow_MSFontService,sans-serif" font-weight="700" font-stretch="condensed" font-size="41" transform="matrix(0.264172 0 0 0.264004 78.3105 422)">NO</text><text font-family="Arial Narrow,Arial Narrow_MSFontService,sans-serif" font-weight="700" font-stretch="condensed" font-size="41" transform="matrix(0.264172 0 0 0.264004 223.946 422)">YES</text><path d="M0-0.60501 194.793-0.60501 194.793 91.0392 194.187 90.4341 241.045 90.4341 241.045 91.6443 193.582 91.6443 193.582 0 194.187 0.60501 0 0.60501ZM239.835 87.4091 247.095 91.0392 239.835 94.6692Z" transform="matrix(1.83814e-16 1 1.00063 -1.83697e-16 65.9108 147.182)"/><path d="M16.7643 24.8163C16.7643 20.8067 20.0148 17.5562 24.0244 17.5562L140.186 17.5562C144.196 17.5562 147.446 20.8067 147.446 24.8163L147.446 53.8566C147.446 57.8663 144.196 61.1167 140.186 61.1167L24.0244 61.1167C20.0148 61.1167 16.7643 57.8663 16.7643 53.8566Z" stroke="#000000" stroke-width="1.21002" stroke-miterlimit="8" fill="#FFFFFF" fill-rule="evenodd" transform="matrix(1.00063 0 0 1 -16.1145 -16.8963)"/><text font-family="Arial,Arial_MSFontService,sans-serif" font-style="italic" font-weight="400" font-size="37" transform="matrix(0.264172 0 0 0.264004 52.268 14)">Select </text><text font-family="Arial,Arial_MSFontService,sans-serif" font-style="italic" font-weight="400" font-size="37" transform="matrix(0.264172 0 0 0.264004 44.398 26)">Operating</text><text font-family="Arial,Arial_MSFontService,sans-serif" font-style="italic" font-weight="400" font-size="37" transform="matrix(0.264172 0 0 0.264004 53.6303 37)">Mode</text><path d="M194.252 221.085 195.365 257.099 194.156 257.136 193.042 221.122ZM198.351 255.796 194.947 263.164 191.095 256.02Z" transform="matrix(1.00063 0 0 1 -16.1145 -16.8963)"/><text font-family="Arial Narrow,Arial Narrow_MSFontService,sans-serif" font-weight="700" font-stretch="condensed" font-size="41" transform="matrix(0.264172 0 0 0.264004 184.999 229)">YES</text><path d="M151.142 263.344 238.264 263.344 238.264 306.905 151.142 306.905Z" stroke="#000000" stroke-width="1.21002" stroke-miterlimit="8" fill="#FFFFFF" transform="matrix(1.00063 0 0 1 -16.1145 -16.8963)"/><text font-family="Arial,Arial_MSFontService,sans-serif" font-weight="400" font-size="37" transform="matrix(0.264172 0 0 0.264004 159.785 266)">SELECT</text><text font-family="Arial,Arial_MSFontService,sans-serif" font-weight="700" font-size="37" transform="matrix(0.264172 0 0 0.264004 146.085 277)">EMPTY </text><text font-family="Arial,Arial_MSFontService,sans-serif" font-weight="400" font-size="37" transform="matrix(0.264172 0 0 0.264004 182.257 277)">MODE</text><path d="M141.374 186.255 193.647 151.406 245.92 186.255 193.647 221.103Z" stroke="#000000" stroke-width="1.21002" stroke-miterlimit="8" fill="#FFFFFF" fill-rule="evenodd" transform="matrix(1.00063 0 0 1 -16.1145 -16.8963)"/><text font-family="Arial,Arial_MSFontService,sans-serif" font-weight="700" font-size="41" transform="matrix(0.264172 0 0 0.264004 160.751 167)">Empty</text><text font-family="Arial,Arial_MSFontService,sans-serif" font-weight="700" font-size="41" transform="matrix(0.264172 0 0 0.264004 147.13 180)">Applicator</text><text font-family="Arial,Arial_MSFontService,sans-serif" font-weight="700" font-size="41" transform="matrix(0.264172 0 0 0.264004 200.688 180)">?</text><path d="M134.246 128.625 194.093 128.625 194.093 145.373 192.883 145.373 192.883 129.23 193.488 129.835 134.246 129.835ZM197.118 144.163 193.488 151.423 189.858 144.163Z" transform="matrix(1.00063 0 0 1 -16.1145 -16.8963)"/><text font-family="Arial Narrow,Arial Narrow_MSFontService,sans-serif" font-weight="700" font-stretch="condensed" font-size="41" transform="matrix(0.264172 0 0 0.264004 140.153 106)">NO</text><path d="M120.782 446.035 173.055 411.186 225.328 446.035 173.055 480.884Z" stroke="#000000" stroke-width="1.21002" stroke-miterlimit="8" fill="#FFFFFF" fill-rule="evenodd" transform="matrix(1.00063 0 0 1 -16.1145 -16.8963)"/><text font-family="Arial,Arial_MSFontService,sans-serif" font-weight="700" font-size="41" transform="matrix(0.264172 0 0 0.264004 129.971 427)">Applicator</text><text font-family="Arial,Arial_MSFontService,sans-serif" font-weight="700" font-size="41" transform="matrix(0.264172 0 0 0.264004 135.117 440)">Primed</text><text font-family="Arial,Arial_MSFontService,sans-serif" font-weight="700" font-size="41" transform="matrix(0.264172 0 0 0.264004 171.835 440)">?</text><path d="M245.92 185.65 310.883 185.65 310.883 198.169 309.674 198.169 309.674 186.255 310.279 186.86 245.92 186.86ZM313.909 196.959 310.279 204.219 306.649 196.959Z" transform="matrix(1.00063 0 0 1 -16.1145 -16.8963)"/><text font-family="Arial Narrow,Arial Narrow_MSFontService,sans-serif" font-weight="700" font-stretch="condensed" font-size="41" transform="matrix(0.264172 0 0 0.264004 256.859 161)">NO</text><path d="M310.677 273.886 311.792 309.899 310.582 309.936 309.468 273.923ZM314.777 308.597 311.372 315.965 307.52 308.821Z" transform="matrix(1.00063 0 0 1 -16.1145 -16.8963)"/><text font-family="Arial Narrow,Arial Narrow_MSFontService,sans-serif" font-weight="700" font-stretch="condensed" font-size="41" transform="matrix(0.264172 0 0 0.264004 301.705 282)">YES</text><path d="M267.832 316.145 354.954 316.145 354.954 359.706 267.832 359.706Z" stroke="#000000" stroke-width="1.21002" stroke-miterlimit="8" fill="#FFFFFF" transform="matrix(1.00063 0 0 1 -16.1145 -16.8963)"/><text font-family="Arial,Arial_MSFontService,sans-serif" font-weight="400" font-size="37" transform="matrix(0.264172 0 0 0.264004 276.487 313)">SELECT</text><text font-family="Arial,Arial_MSFontService,sans-serif" font-weight="700" font-size="37" transform="matrix(0.264172 0 0 0.264004 275.428 324)">BYPASS </text><text font-family="Arial,Arial_MSFontService,sans-serif" font-weight="400" font-size="37" transform="matrix(0.264172 0 0 0.264004 280.878 336)">MOD</text><text font-family="Arial,Arial_MSFontService,sans-serif" font-weight="400" font-size="37" transform="matrix(0.264172 0 0 0.264004 303.428 336)">E</text><path d="M257.8 239.056 310.073 204.207 362.346 239.056 310.073 273.904Z" stroke="#000000" stroke-width="1.21002" stroke-miterlimit="8" fill="#FFFFFF" fill-rule="evenodd" transform="matrix(1.00063 0 0 1 -16.1145 -16.8963)"/><text font-family="Arial,Arial_MSFontService,sans-serif" font-weight="700" font-size="41" transform="matrix(0.264172 0 0 0.264004 274.733 220)">Bypass </text><text font-family="Arial,Arial_MSFontService,sans-serif" font-weight="700" font-size="41" transform="matrix(0.264172 0 0 0.264004 263.836 233)">Applicator</text><text font-family="Arial,Arial_MSFontService,sans-serif" font-weight="700" font-size="41" transform="matrix(0.264172 0 0 0.264004 317.394 233)">?</text><path d="M430.799 326.951 431.913 362.963 430.704 363 429.59 326.988ZM434.899 361.662 431.494 369.03 427.642 361.886Z" transform="matrix(1.00063 0 0 1 -16.1145 -16.8963)"/><text font-family="Arial Narrow,Arial Narrow_MSFontService,sans-serif" font-weight="700" font-stretch="condensed" font-size="41" transform="matrix(0.264172 0 0 0.264004 421.843 335)">YES</text><path d="M387.954 368.946 475.075 368.946 475.075 412.506 387.954 412.506Z" stroke="#000000" stroke-width="1.21002" stroke-miterlimit="8" fill="#FFFFFF" transform="matrix(1.00063 0 0 1 -16.1145 -16.8963)"/><text font-family="Arial,Arial_MSFontService,sans-serif" font-weight="400" font-size="37" transform="matrix(0.264172 0 0 0.264004 396.63 372)">SELECT</text><text font-family="Arial,Arial_MSFontService,sans-serif" font-weight="700" font-size="37" transform="matrix(0.264172 0 0 0.264004 384.898 383)">WASH </text><text font-family="Arial,Arial_MSFontService,sans-serif" font-weight="400" font-size="37" transform="matrix(0.264172 0 0 0.264004 417.135 383)">MOD</text><text font-family="Arial,Arial_MSFontService,sans-serif" font-weight="400" font-size="37" transform="matrix(0.264172 0 0 0.264004 439.685 383)">E</text><path d="M377.922 292.121 430.195 257.272 482.468 292.121 430.195 326.969Z" stroke="#000000" stroke-width="1.21002" stroke-miterlimit="8" fill="#FFFFFF" fill-rule="evenodd" transform="matrix(1.00063 0 0 1 -16.1145 -16.8963)"/><text font-family="Arial,Arial_MSFontService,sans-serif" font-weight="700" font-size="41" transform="matrix(0.264172 0 0 0.264004 380.341 272)">Wash </text><text font-family="Arial,Arial_MSFontService,sans-serif" font-weight="700" font-size="41" transform="matrix(0.264172 0 0 0.264004 411.835 272)">/ </text><text font-family="Arial,Arial_MSFontService,sans-serif" font-weight="700" font-size="41" transform="matrix(0.264172 0 0 0.264004 417.853 272)">Clean</text><text font-family="Arial,Arial_MSFontService,sans-serif" font-weight="700" font-size="41" transform="matrix(0.264172 0 0 0.264004 383.974 286)">Applicator</text><text font-family="Arial,Arial_MSFontService,sans-serif" font-weight="700" font-size="41" transform="matrix(0.264172 0 0 0.264004 437.531 286)">?</text><path d="M362.346 238.451 430.741 238.451 430.741 251.085 429.529 251.085 429.529 239.056 430.137 239.661 362.346 239.661ZM433.767 249.875 430.137 257.136 426.507 249.875Z" transform="matrix(1.00063 0 0 1 -16.1145 -16.8963)"/><text font-family="Arial Narrow,Arial Narrow_MSFontService,sans-serif" font-weight="700" font-stretch="condensed" font-size="41" transform="matrix(0.264172 0 0 0.264004 373.565 216)">NO</text><path d="M82.5784 61.117 82.5784 88.472 81.3685 88.472 81.3682 61.117ZM85.6033 87.2621 81.9733 94.5222 78.3432 87.2621Z" transform="matrix(1.00063 0 0 1 -16.1145 -16.8963)"/><path d="M123.422 75.9001 131.077 68.2451 159.328 68.2451 166.983 75.9001 166.983 86.7264 159.328 94.3815 131.077 94.3815 123.422 86.7264Z" stroke="#000000" stroke-width="1.81503" stroke-miterlimit="8" fill="#FFFFFF" fill-rule="evenodd" transform="matrix(1.00063 0 0 1 -16.1145 -16.8963)"/><text font-family="Arial,Arial_MSFontService,sans-serif" font-weight="700" font-size="37" transform="matrix(0.264172 0 0 0.264004 126.293 68)">1</text><path d="M219.255 124.741 226.91 117.086 255.161 117.086 262.816 124.741 262.816 135.567 255.161 143.222 226.91 143.222 219.255 135.567Z" stroke="#000000" stroke-width="1.81503" stroke-miterlimit="8" fill="#FFFFFF" fill-rule="evenodd" transform="matrix(1.00063 0 0 1 -16.1145 -16.8963)"/><text font-family="Arial,Arial_MSFontService,sans-serif" font-weight="700" font-size="37" transform="matrix(0.264172 0 0 0.264004 222.208 117)">2</text><path d="M333.833 181.502 341.489 173.847 369.738 173.847 377.394 181.502 377.394 192.328 369.738 199.983 341.489 199.983 333.833 192.328Z" stroke="#000000" stroke-width="1.81503" stroke-miterlimit="8" fill="#FFFFFF" fill-rule="evenodd" transform="matrix(1.00063 0 0 1 -16.1145 -16.8963)"/><text font-family="Arial,Arial_MSFontService,sans-serif" font-weight="700" font-size="37" transform="matrix(0.264172 0 0 0.264004 336.824 173)">3</text><path d="M451.315 230.079 458.971 222.423 487.22 222.423 494.876 230.079 494.876 240.905 487.22 248.56 458.971 248.56 451.315 240.905Z" stroke="#000000" stroke-width="1.81503" stroke-miterlimit="8" fill="#FFFFFF" fill-rule="evenodd" transform="matrix(1.00063 0 0 1 -16.1145 -16.8963)"/><text font-family="Arial,Arial_MSFontService,sans-serif" font-weight="700" font-size="37" transform="matrix(0.264172 0 0 0.264004 454.418 222)">4</text></g></svg>