<svg width="163" height="164" xmlns="http://www.w3.org/2000/svg" xmlns:xlink="http://www.w3.org/1999/xlink" xml:space="preserve" overflow="hidden"><g><path d="M113.439 150.518C113.439 146.801 116.452 143.788 120.17 143.788L227.857 143.788C231.575 143.788 234.588 146.801 234.588 150.518L234.588 177.44C234.588 181.157 231.575 184.17 227.857 184.17L120.17 184.17C116.452 184.17 113.439 181.157 113.439 177.44Z" stroke="#000000" stroke-width="1.12175" stroke-miterlimit="8" fill="#FFFFFF" fill-rule="evenodd" transform="matrix(1 0 0 1.00312 -112.827 -21.3593)"/><text font-family="Arial,Arial_MSFontService,sans-serif" font-style="italic" font-weight="400" font-size="37" transform="matrix(0.244745 0 0 0.245509 20.9465 141)">Machine Running In </text><text font-family="Arial,Arial_MSFontService,sans-serif" font-style="italic" font-weight="400" font-size="37" transform="matrix(0.244745 0 0 0.245509 35.8096 152)">Empty Mode</text><path d="M174.697 122.739 174.697 138.128 173.575 138.128 173.575 122.739ZM177.501 137.006 174.136 143.737 170.771 137.007Z" transform="matrix(1 0 0 1.00312 -112.827 -21.3593)"/><path d="M174.697 62.2875 174.697 76.7179 173.575 76.7179 173.575 62.2875ZM177.501 75.5963 174.136 82.3267 170.771 75.5963Z" transform="matrix(1 0 0 1.00312 -112.827 -21.3593)"/><path d="M133.753 21.9046 214.519 21.9046 214.519 54.211 174.136 62.2875 133.753 54.211Z" stroke="#000000" stroke-width="1.12175" stroke-miterlimit="8" fill="#FFFFFF" fill-rule="evenodd" transform="matrix(1 0 0 1.00312 -112.827 -21.3593)"/><text font-family="Arial,Arial_MSFontService,sans-serif" font-weight="700" font-size="37" transform="matrix(0.244745 0 0 0.245509 45.6251 20)">EMPTY</text><path d="M113.439 82.3566 234.588 82.3566 234.588 122.739 113.439 122.739Z" stroke="#000000" stroke-width="1.12175" stroke-miterlimit="8" fill="#FFFFFF" transform="matrix(1 0 0 1.00312 -112.827 -21.3593)"/><text font-family="Arial,Arial_MSFontService,sans-serif" font-weight="400" font-size="37" transform="matrix(0.244745 0 0 0.245509 16.5998 85)">START APPLICATOR</text><path d="M234.588 54.21 241.684 47.1134 267.873 47.1134 274.971 54.21 274.971 64.2465 267.873 71.3431 241.684 71.3431 234.588 64.2465Z" stroke="#000000" stroke-width="1.68262" stroke-miterlimit="8" fill="#FFFFFF" fill-rule="evenodd" transform="matrix(1 0 0 1.00312 -112.827 -21.3593)"/><text font-family="Arial,Arial_MSFontService,sans-serif" font-weight="700" font-size="37" transform="matrix(0.244745 0 0 0.245509 139.36 41)">1</text></g></svg>