<svg width="73" height="24" viewBox="0 0 73 24" fill="none" xmlns="http://www.w3.org/2000/svg">
<path d="M56.1304 20.8514H53.5279C53.2199 20.8512 52.9293 20.7021 52.7403 20.4473C52.5513 20.1925 52.4852 19.8605 52.5611 19.5477L56.2137 4.40591C56.3635 3.78923 56.8933 3.35753 57.5006 3.35727H60.3633L56.1304 20.8514Z" fill="#26211C"/>
<path d="M64.9386 6.76227L65.7623 3.35727H60.1982L59.3745 6.76227H64.9386Z" fill="#26211C"/>
<path d="M56.8229 17.3114L55.9653 20.8514H61.5295L62.3857 17.3114H56.8229Z" fill="#26211C"/>
<path d="M63.3511 13.3254L64.193 9.84409H58.6289L57.7856 13.3254H63.3511Z" fill="#26211C"/>
<path fill-rule="evenodd" clip-rule="evenodd" d="M63.9643 20.7523C64.4267 20.9567 64.9611 20.8483 65.3173 20.4777L65.3199 20.4709C65.6798 20.1005 65.7905 19.5389 65.6003 19.0493C65.41 18.5596 64.9564 18.2389 64.452 18.2373C64.1343 18.2336 63.8279 18.3604 63.5983 18.5905C63.3412 18.8334 63.1985 19.1823 63.208 19.545C63.2031 20.0709 63.5019 20.5478 63.9643 20.7523ZM63.722 18.7937C63.4313 19.103 63.3459 19.5647 63.5053 19.9654C63.6646 20.3661 64.0377 20.6277 64.452 20.6291C64.7244 20.633 64.986 20.5179 65.1741 20.3114C65.5728 19.8912 65.5728 19.2125 65.1741 18.7923C64.9844 18.5845 64.7219 18.467 64.4474 18.467C64.1729 18.467 63.9104 18.5845 63.7207 18.7923L63.722 18.7937ZM63.9067 18.8277V20.2705L64.2555 20.2773V19.7673H64.3309H64.409C64.4511 19.7688 64.4927 19.7766 64.5326 19.7905C64.5793 19.8081 64.616 19.8466 64.6328 19.8955C64.6484 19.9527 64.6563 20.0119 64.6563 20.0714C64.6576 20.1388 64.665 20.2059 64.6784 20.2718H65.0232L65.0102 20.2309C65.0056 20.2173 65.0025 20.2031 65.0011 20.1887C65.0002 20.175 65.0002 20.1614 65.0011 20.1477V20.0114C65.011 19.8898 64.9663 19.7703 64.8801 19.6882C64.8219 19.6453 64.7551 19.6169 64.6849 19.605C64.7716 19.5979 64.8544 19.5642 64.923 19.5082C64.9923 19.4414 65.0279 19.3446 65.0193 19.2464C65.0281 19.1036 64.9564 18.9686 64.8358 18.9014C64.7518 18.8566 64.6594 18.8314 64.5652 18.8277H64.2815H63.9067ZM64.3492 19.0814C64.4201 19.0784 64.4911 19.0885 64.5587 19.1114L64.5574 19.1127C64.6258 19.1344 64.6717 19.2015 64.6693 19.2764C64.675 19.3423 64.648 19.4067 64.5977 19.4468C64.5393 19.4862 64.4704 19.5048 64.4012 19.5H64.262V19.0814H64.3492Z" fill="#26211C"/>
<path d="M55.0193 6.76227L55.8417 3.35727H45.6113L44.7876 6.76227H55.0193Z" fill="#26211C"/>
<path d="M47.8235 6.62454L44.3804 20.8514H48.2698L51.7142 6.62454H47.8235Z" fill="#26211C"/>
<path d="M22.0091 20.8514H18.1196L22.1535 4.18911C22.2719 3.69967 22.6919 3.35666 23.1737 3.35593H26.2433L22.0091 20.8514Z" fill="#26211C"/>
<path d="M28.8253 13.4714C28.8253 13.4714 29.6945 13.5014 30.146 13.2696C30.5976 13.0377 30.8331 12.0532 30.8331 12.0532L32.5416 5.00046C32.5416 5.00046 32.7316 4.35546 32.4597 3.84546C32.2098 3.33546 31.567 3.35728 31.567 3.35728H25.9196L25.0959 6.76637H28.2189L27.4381 9.9941H24.4635L23.6216 13.4755L28.8253 13.4714Z" fill="#26211C"/>
<path d="M23.8896 13.0295L25.7999 20.8514H29.6893L27.7791 13.0295H23.8896Z" fill="#26211C"/>
<path d="M20.7144 6.76227L21.5381 3.35727H14.2915L13.4678 6.76227H20.7144Z" fill="#26211C"/>
<path d="M18.3644 10.1346H13.6799L12.8354 13.6118H15.1776L14.2485 17.445H11.2049L14.6142 3.35593H13.5966L13.5823 3.36411C11.8228 3.37013 10.311 4.6744 9.96741 6.48274L7.09035 18.3737C6.94239 18.9654 7.06454 19.5957 7.42109 20.0801C7.77765 20.5645 8.32832 20.8484 8.9121 20.8487H17.3064L19.9089 10.1346H18.3644Z" fill="#26211C"/>
<path d="M35.7686 20.8514L36.5923 17.4423H34.25L36.833 6.75956H38.4348L39.2598 3.35046H35.1114C34.27 3.34956 33.5495 3.98214 33.4029 4.85046L30.0197 18.8386C29.9815 18.9779 29.9623 19.122 29.9624 19.2668C29.9625 20.109 30.5973 20.8007 31.4003 20.8336L35.7686 20.8514Z" fill="#26211C"/>
<path d="M43.6137 3.35593H38.9292L38.1055 6.76502H40.2916C39.4094 10.4155 38.0795 15.8918 37.7061 17.4491H36.2656L35.4419 20.8582H39.4016H39.4276C40.2689 20.8585 40.9891 20.2262 41.1362 19.3582L44.6495 4.84365C44.6828 4.73339 44.6995 4.61838 44.699 4.50274C44.699 3.87465 44.2131 3.36547 43.6137 3.36547" fill="#26211C"/>
<path fill-rule="evenodd" clip-rule="evenodd" d="M2.6024 23.9768H65.5828C66.7056 23.9783 67.6894 23.1891 67.981 22.0527L72.7891 3.27274C72.9922 2.49252 72.836 1.65767 72.3667 1.0156C71.8975 0.373529 71.1691 -0.0021072 70.3974 8.89292e-06H7.41701C6.294 -0.00194656 5.31003 0.787503 5.01881 1.9241L0.210704 20.7041C0.00761526 21.4843 0.163828 22.3192 0.633049 22.9612C1.10227 23.6033 1.83067 23.9789 2.6024 23.9768ZM6.16391 2.24319C6.31705 1.64964 6.83029 1.2369 7.41701 1.23546H70.3974C70.7992 1.2388 71.177 1.4365 71.421 1.7711C71.665 2.1057 71.7478 2.53965 71.6453 2.94683L66.8359 21.7323C66.6828 22.3258 66.1695 22.7386 65.5828 22.74H2.6024C2.20057 22.7367 1.82276 22.539 1.57878 22.2044C1.3348 21.8698 1.25202 21.4358 1.3545 21.0286L6.16391 2.24319Z" fill="#26211C"/>
</svg>
