<svg width="167" height="219" xmlns="http://www.w3.org/2000/svg" xmlns:xlink="http://www.w3.org/1999/xlink" xml:space="preserve" overflow="hidden"><g><path d="M281.145 245.958C281.145 242.334 284.082 239.397 287.706 239.397L392.673 239.397C396.297 239.397 399.234 242.334 399.234 245.958L399.234 272.199C399.234 275.823 396.297 278.76 392.673 278.76L287.706 278.76C284.082 278.76 281.145 275.823 281.145 272.199Z" stroke="#000000" stroke-width="1.09341" stroke-miterlimit="8" fill="#FFFFFF" fill-rule="evenodd" transform="matrix(1.00147 0 0 1 -280.961 -60.3562)"/><text font-family="Arial,Arial_MSFontService,sans-serif" font-style="italic" font-weight="400" font-size="37" transform="matrix(0.238913 0 0 0.238562 20.4772 197)">Machine Running In </text><text font-family="Arial,Arial_MSFontService,sans-serif" font-style="italic" font-weight="700" font-size="37" transform="matrix(0.238913 0 0 0.238562 34.0976 207)">WASH</text><text font-family="Arial,Arial_MSFontService,sans-serif" font-style="italic" font-weight="400" font-size="37" transform="matrix(0.238913 0 0 0.238562 63.2521 207)">Mode</text><path d="M0.546703-0.00140284 0.585193 14.9985-0.508214 15.0013-0.546703 0.00140284ZM3.31589 13.8981 0.052518 20.4669-3.24454 13.9149Z" transform="matrix(-1.00147 0 0 1 59.9002 158.525)"/><path d="M340.378 100.293 341.094 117.839 340.001 117.884 339.285 100.338ZM343.78 116.635 340.772 123.324 337.227 116.902Z" transform="matrix(1.00147 0 0 1 -280.961 -60.3562)"/><path d="M281.384 186.078C281.384 182.455 284.321 179.518 287.944 179.518L392.912 179.518C396.536 179.518 399.472 182.455 399.472 186.078L399.472 212.32C399.472 215.943 396.536 218.88 392.912 218.88L287.944 218.88C284.321 218.88 281.384 215.943 281.384 212.32Z" stroke="#000000" stroke-width="1.09341" stroke-miterlimit="8" fill="#FFFFFF" fill-rule="evenodd" transform="matrix(1.00147 0 0 1 -280.961 -60.3562)"/><text font-family="Arial,Arial_MSFontService,sans-serif" font-style="italic" font-weight="400" font-size="37" transform="matrix(0.238913 0 0 0.238562 27.506 131)">Wait For RAKE </text><text font-family="Arial,Arial_MSFontService,sans-serif" font-style="italic" font-weight="400" font-size="37" transform="matrix(0.238913 0 0 0.238562 89.7254 131)">/ </text><text font-family="Arial,Arial_MSFontService,sans-serif" font-style="italic" font-weight="400" font-size="37" transform="matrix(0.238913 0 0 0.238562 19.3663 142)">FLICKER to Move to </text><text font-family="Arial,Arial_MSFontService,sans-serif" font-style="italic" font-weight="400" font-size="37" transform="matrix(0.238913 0 0 0.238562 48.7215 152)">Place</text><path d="M340.855 159 340.893 174 339.801 174.003 339.763 159.003ZM343.625 172.9 340.361 179.469 337.064 172.917Z" transform="matrix(1.00147 0 0 1 -280.961 -60.3562)"/><path d="M300.469 60.9526 379.194 60.9526 379.194 92.4428 339.832 100.315 300.469 92.4428Z" stroke="#000000" stroke-width="1.09341" stroke-miterlimit="8" fill="#FFFFFF" fill-rule="evenodd" transform="matrix(1.00147 0 0 1 -280.961 -60.3562)"/><text font-family="Arial,Arial_MSFontService,sans-serif" font-weight="700" font-size="37" transform="matrix(0.238913 0 0 0.238562 45.8784 20)">WASH</text><path d="M281.145 119.639 399.234 119.639 399.234 159.002 281.145 159.002Z" stroke="#000000" stroke-width="1.09341" stroke-miterlimit="8" fill="#FFFFFF" transform="matrix(1.00147 0 0 1 -280.961 -60.3562)"/><text font-family="Arial,Arial_MSFontService,sans-serif" font-weight="400" font-size="37" transform="matrix(0.238913 0 0 0.238562 16.2317 82)">START APPLICATOR</text><path d="M407.106 97.9288 414.025 91.0114 439.551 91.0114 446.469 97.9288 446.469 107.712 439.551 114.629 414.025 114.629 407.106 107.712Z" stroke="#000000" stroke-width="1.64011" stroke-miterlimit="8" fill="#FFFFFF" fill-rule="evenodd" transform="matrix(1.00147 0 0 1 -280.961 -60.3562)"/><text font-family="Arial,Arial_MSFontService,sans-serif" font-weight="700" font-size="37" transform="matrix(0.238913 0 0 0.238562 143.859 46)">1</text><path d="M407.106 226.752 414.025 219.835 439.551 219.835 446.469 226.752 446.469 236.535 439.551 243.453 414.025 243.453 407.106 236.535Z" stroke="#000000" stroke-width="1.64011" stroke-miterlimit="8" fill="#FFFFFF" fill-rule="evenodd" transform="matrix(1.00147 0 0 1 -280.961 -60.3562)"/><text font-family="Arial,Arial_MSFontService,sans-serif" font-weight="700" font-size="37" transform="matrix(0.238913 0 0 0.238562 143.859 174)">2</text></g></svg>