<svg width="154" height="153" xmlns="http://www.w3.org/2000/svg" xmlns:xlink="http://www.w3.org/1999/xlink" xml:space="preserve" overflow="hidden"><g><path d="M184.102 58.0621 184.102 71.5667 183.052 71.5667 183.052 58.0621ZM186.726 70.517 183.577 76.8156 180.428 70.517Z" transform="matrix(1.00353 0 0 1 -126.878 -19.6976)"/><path d="M145.785 20.2702 221.369 20.2702 221.369 50.5037 183.577 58.0621 145.785 50.5037Z" stroke="#000000" stroke-width="1.04977" stroke-miterlimit="8" fill="#FFFFFF" fill-rule="evenodd" transform="matrix(1.00353 0 0 1 -126.878 -19.6976)"/><text font-family="Arial,Arial_MSFontService,sans-serif" font-weight="700" font-size="37" transform="matrix(0.229851 0 0 0.229042 39.8803 19)">BYPASS</text><path d="M127.004 140.632C127.004 137.153 129.824 134.333 133.302 134.333L234.081 134.333C237.56 134.333 240.38 137.153 240.38 140.632L240.38 165.826C240.38 169.305 237.56 172.125 234.081 172.125L133.302 172.125C129.824 172.125 127.004 169.305 127.004 165.826Z" stroke="#000000" stroke-width="1.04977" stroke-miterlimit="8" fill="#FFFFFF" fill-rule="evenodd" transform="matrix(1.00353 0 0 1 -126.878 -19.6976)"/><text font-family="Arial,Arial_MSFontService,sans-serif" font-style="italic" font-weight="400" font-size="37" transform="matrix(0.229851 0 0 0.229042 19.5348 131)">Machine Running In</text><text font-family="Arial,Arial_MSFontService,sans-serif" font-style="italic" font-weight="400" font-size="37" transform="matrix(0.229851 0 0 0.229042 31.5865 142)">Bypass Mode</text><path d="M127.004 76.8436 240.38 76.8436 240.38 114.635 127.004 114.635Z" stroke="#000000" stroke-width="1.04977" stroke-miterlimit="8" fill="#FFFFFF" transform="matrix(1.00353 0 0 1 -126.878 -19.6976)"/><text font-family="Arial,Arial_MSFontService,sans-serif" font-weight="400" font-size="37" transform="matrix(0.229851 0 0 0.229042 15.4526 79)">START APPLICATOR</text><path d="M184.102 114.635 184.102 129.037 183.052 129.037 183.052 114.635ZM186.726 127.987 183.577 134.286 180.428 127.987Z" transform="matrix(1.00353 0 0 1 -126.878 -19.6976)"/><path d="M241.296 53.4804 247.938 46.8391 272.445 46.8391 279.088 53.4804 279.088 62.8729 272.445 69.5142 247.938 69.5142 241.296 62.8729Z" stroke="#000000" stroke-width="1.57466" stroke-miterlimit="8" fill="#FFFFFF" fill-rule="evenodd" transform="matrix(1.00353 0 0 1 -126.878 -19.6976)"/><text font-family="Arial,Arial_MSFontService,sans-serif" font-weight="700" font-size="37" transform="matrix(0.229851 0 0 0.229042 131.757 41)">1</text></g></svg>