<svg width="701" height="600" xmlns="http://www.w3.org/2000/svg" xmlns:xlink="http://www.w3.org/1999/xlink" xml:space="preserve" overflow="hidden"><g><path d="M268.506 563.777 362.137 563.777 362.137 594.987 268.506 594.987Z" stroke="#000000" stroke-width="1.30044" stroke-miterlimit="8" fill="#FFFFFF" transform="matrix(1.00053 0 0 1 -7.19168 -18.9155)"/><text font-family="Arial,Arial_MSFontService,sans-serif" font-weight="700" font-size="37" transform="matrix(0.189255 0 0 0.189155 286.195 559)">RAKE LEVEL</text><text font-family="Arial,Arial_MSFontService,sans-serif" font-weight="400" font-size="37" transform="matrix(0.189255 0 0 0.189155 292.051 567)">(</text><text font-family="Arial,Arial_MSFontService,sans-serif" font-weight="400" font-size="37" transform="matrix(0.189255 0 0 0.189155 294.382 567)">WEIGHT</text><text font-family="Arial,Arial_MSFontService,sans-serif" font-weight="400" font-size="37" transform="matrix(0.189255 0 0 0.189155 322.389 567)">)</text><text font-family="Arial,Arial_MSFontService,sans-serif" font-weight="700" font-size="37" transform="matrix(0.189255 0 0 0.189155 379.505 548)">SENSOR</text><text font-family="Arial,Arial_MSFontService,sans-serif" font-weight="700" font-size="37" transform="matrix(0.189255 0 0 0.189155 374.952 556)">FEEDBACK</text><text font-family="Arial,Arial_MSFontService,sans-serif" font-weight="700" font-size="37" transform="matrix(0.189255 0 0 0.189155 206.649 571)">MEASURED</text><text font-family="Arial,Arial_MSFontService,sans-serif" font-weight="700" font-size="37" transform="matrix(0.189255 0 0 0.189155 214.729 579)">VALUE</text><path d="M116.425 423.235 210.057 423.235 210.057 454.445 116.425 454.445Z" stroke="#000000" stroke-width="1.30044" stroke-miterlimit="8" fill="#FFFFFF" transform="matrix(1.00053 0 0 1 -7.19168 -18.9155)"/><text font-family="Arial,Arial_MSFontService,sans-serif" font-weight="700" font-size="37" transform="matrix(0.189255 0 0 0.189155 137.585 418)">SET POINT</text><text font-family="Arial,Arial_MSFontService,sans-serif" font-weight="700" font-size="37" transform="matrix(0.189255 0 0 0.189155 124.573 427)">(</text><text font-family="Arial,Arial_MSFontService,sans-serif" font-weight="700" font-size="37" transform="matrix(0.189255 0 0 0.189155 126.905 427)">TARGET WEIGHT</text><text font-family="Arial,Arial_MSFontService,sans-serif" font-weight="700" font-size="37" transform="matrix(0.189255 0 0 0.189155 185.123 427)">)</text><path d="M360.246 486.791 474.874 486.791 474.874 518.001 360.246 518.001Z" stroke="#000000" stroke-width="1.30044" stroke-miterlimit="8" fill="#FFFFFF" transform="matrix(1.00053 0 0 1 -7.19168 -18.9155)"/><text font-family="Arial,Arial_MSFontService,sans-serif" font-weight="700" font-size="37" transform="matrix(0.189255 0 0 0.189155 365.377 478)">PORTION conveyor SPEED</text><text font-family="Arial,Arial_MSFontService,sans-serif" font-weight="400" font-size="37" transform="matrix(0.189255 0 0 0.189155 383.216 486)">MIN SPEED</text><text font-family="Arial,Arial_MSFontService,sans-serif" font-weight="400" font-size="37" transform="matrix(0.189255 0 0 0.189155 421.737 486)">: </text><text font-family="Arial,Arial_MSFontService,sans-serif" font-weight="400" font-size="37" transform="matrix(0.189255 0 0 0.189155 425.394 486)">xx</text><text font-family="Arial,Arial_MSFontService,sans-serif" font-weight="400" font-size="37" transform="matrix(0.189255 0 0 0.189155 432.396 486)">.</text><text font-family="Arial,Arial_MSFontService,sans-serif" font-weight="400" font-size="37" transform="matrix(0.189255 0 0 0.189155 434.342 486)">x</text><text font-family="Arial,Arial_MSFontService,sans-serif" font-weight="400" font-size="37" transform="matrix(0.189255 0 0 0.189155 382.024 494)">MAX SPEED</text><text font-family="Arial,Arial_MSFontService,sans-serif" font-weight="400" font-size="37" transform="matrix(0.189255 0 0 0.189155 422.883 494)">: </text><text font-family="Arial,Arial_MSFontService,sans-serif" font-weight="400" font-size="37" transform="matrix(0.189255 0 0 0.189155 426.586 494)">xx</text><text font-family="Arial,Arial_MSFontService,sans-serif" font-weight="400" font-size="37" transform="matrix(0.189255 0 0 0.189155 433.589 494)">.</text><text font-family="Arial,Arial_MSFontService,sans-serif" font-weight="400" font-size="37" transform="matrix(0.189255 0 0 0.189155 435.534 494)">x</text><path d="M332.44 501.868 355.892 501.868 355.892 502.735 332.44 502.735ZM355.025 499.701 360.227 502.301 355.025 504.902Z" transform="matrix(1.00053 0 0 1 -7.19168 -18.9155)"/><path d="M268.47 579.804 207.354 579.804 207.354 526.12 208.22 526.12 208.22 579.371 207.787 578.938 268.47 578.938ZM205.186 526.986 207.787 521.784 210.388 526.986Z" transform="matrix(1.00053 0 0 1 -7.19168 -18.9155)"/><path d="M609.741 451.419C609.741 451.419 609.741 451.419 609.741 451.419 609.741 451.419 609.741 451.419 609.741 451.419 609.741 451.419 609.741 451.419 609.741 451.419 609.741 451.419 609.741 451.419 609.741 451.419Z" stroke="#042433" stroke-width="1.30044" stroke-miterlimit="8" fill="none" fill-rule="evenodd" transform="matrix(1.00053 0 0 1 -7.19168 -18.9155)"/><path d="M189.061 503.058C189.061 492.715 197.444 484.332 207.787 484.332 218.13 484.332 226.513 492.715 226.513 503.058 226.513 513.401 218.13 521.784 207.787 521.784 197.444 521.784 189.061 513.401 189.061 503.058Z" fill="#FFFFFF" fill-rule="evenodd" transform="matrix(1.00053 0 0 1 -7.19168 -18.9155)"/><path d="M194.546 489.817 221.028 516.299M221.028 489.817 194.546 516.299" stroke="#000000" stroke-width="1.30044" stroke-miterlimit="8" fill="none" fill-rule="evenodd" transform="matrix(1.00053 0 0 1 -7.19168 -18.9155)"/><path d="M189.061 503.058C189.061 492.715 197.444 484.332 207.787 484.332 218.13 484.332 226.513 492.715 226.513 503.058 226.513 513.401 218.13 521.784 207.787 521.784 197.444 521.784 189.061 513.401 189.061 503.058Z" stroke="#000000" stroke-width="1.30044" stroke-miterlimit="8" fill="none" fill-rule="evenodd" transform="matrix(1.00053 0 0 1 -7.19168 -18.9155)"/><path d="M190.668 499.937 203.153 499.937 203.153 506.179 190.668 506.179Z" fill="#FFFFFF" transform="matrix(1.00053 0 0 1 -7.19168 -18.9155)"/><text font-family="Arial,Arial_MSFontService,sans-serif" font-weight="700" font-size="64" transform="matrix(0.189255 0 0 0.189155 186.378 489)">+</text><path d="M201.072 511.097 213.556 511.097 213.556 517.339 201.072 517.339Z" fill="#FFFFFF" transform="matrix(1.00053 0 0 1 -7.19168 -18.9155)"/><text font-family="Arial,Arial_MSFontService,sans-serif" font-weight="700" font-size="82" transform="matrix(0.189255 0 0 0.189155 197.55 501)">-</text><path d="M270.019 486.791 332.44 486.791 332.44 518.001 270.019 518.001Z" stroke="#000000" stroke-width="1.30044" stroke-miterlimit="8" fill="#FFFFFF" transform="matrix(1.00053 0 0 1 -7.19168 -18.9155)"/><text font-family="Arial,Arial_MSFontService,sans-serif" font-weight="700" font-size="37" transform="matrix(0.189255 0 0 0.189155 288.381 482)">PID</text><text font-family="Arial,Arial_MSFontService,sans-serif" font-weight="700" font-size="37" transform="matrix(0.189255 0 0 0.189155 277.054 490)">CONTROL</text><path d="M0.0074891-0.433415 39.2217 0.244175 39.2066 1.11101-0.0074891 0.433415ZM38.3922-1.93788 43.5482 0.752482 38.3024 3.26311Z" transform="matrix(1.00053 0 0 -1 219.441 484.139)"/><path d="M7.84996 410.183 349.275 410.183 349.275 534.269 7.84996 534.269Z" stroke="#156082" stroke-width="1.30044" stroke-linejoin="round" stroke-miterlimit="10" stroke-dasharray="5.20177 3.90132" fill="none" transform="matrix(1.00053 0 0 1 -7.19168 -18.9155)"/><path d="M0-0.433481 49.1101-0.433481 49.1101 21.6023 48.2433 21.6023 48.2433 0 48.6768 0.433481 0 0.433481ZM51.2777 20.7354 48.6768 25.9371 46.0759 20.7354Z" transform="matrix(1.83794e-16 1 1.00053 -1.83697e-16 156.041 435.53)"/><path d="M71.2169 19.5776 133.638 19.5776 133.638 44.546 102.427 50.7881 71.2169 44.546Z" stroke="#000000" stroke-width="1.30044" stroke-miterlimit="8" fill="#FFFFFF" fill-rule="evenodd" transform="matrix(1.00053 0 0 1 -7.19168 -18.9155)"/><text font-family="Arial,Arial_MSFontService,sans-serif" font-weight="400" font-size="37" transform="matrix(0.189255 0 0 0.189155 79.3301 12)">PORTION </text><text font-family="Arial,Arial_MSFontService,sans-serif" font-weight="400" font-size="37" transform="matrix(0.189255 0 0 0.189155 78.1895 20)">CONTROL</text><path d="M55.517 172.32C55.517 169.447 57.8459 167.119 60.7188 167.119L143.947 167.119C146.82 167.119 149.149 169.447 149.149 172.32L149.149 193.127C149.149 196.001 146.82 198.329 143.947 198.329L60.7188 198.329C57.8459 198.329 55.517 196.001 55.517 193.127Z" stroke="#000000" stroke-width="1.30044" stroke-miterlimit="8" fill="#FFFFFF" fill-rule="evenodd" transform="matrix(1.00053 0 0 1 -7.19168 -18.9155)"/><text font-family="Arial,Arial_MSFontService,sans-serif" font-style="italic" font-weight="400" font-size="37" transform="matrix(0.189255 0 0 0.189155 65.2867 162)">Portion Belt Weight </text><text font-family="Arial,Arial_MSFontService,sans-serif" font-style="italic" font-weight="400" font-size="37" transform="matrix(0.189255 0 0 0.189155 69.3549 171)">Average Sample</text><path d="M107.156 372.108 113.185 372.108 113.185 372.974 107.156 372.974ZM112.318 369.94 117.52 372.541 112.318 375.142Z" transform="matrix(1.00053 0 0 1 -7.19168 -18.9155)"/><text font-family="Arial Narrow,Arial Narrow_MSFontService,sans-serif" font-weight="700" font-stretch="condensed" font-size="41" transform="matrix(0.189255 0 0 0.189155 228.998 479)">ERROR</text><path d="M0 0.433481-15.6051 0.433481-15.1716 0-15.1716 77.0659-15.6051 76.6324 108.313 76.6324 108.313 77.4993-16.0386 77.4993-16.0386-0.433481 0-0.433481ZM107.446 74.4651 112.648 77.0659 107.446 79.6668Z" transform="matrix(-1.00053 0 0 1 467.844 483.386)"/><text font-family="Arial Narrow,Arial Narrow_MSFontService,sans-serif" font-weight="700" font-stretch="condensed" font-size="41" transform="matrix(0.189255 0 0 0.189155 104.509 89)">YES</text><text font-family="Arial Narrow,Arial Narrow_MSFontService,sans-serif" font-weight="700" font-stretch="condensed" font-size="41" transform="matrix(0.189255 0 0 0.189155 151.52 57)">NO</text><path d="M55.517 81.715 102.333 59.8676 149.149 81.715 102.333 103.562Z" stroke="#000000" stroke-width="1.30044" stroke-miterlimit="8" fill="#FFFFFF" fill-rule="evenodd" transform="matrix(1.00053 0 0 1 -7.19168 -18.9155)"/><text font-family="Arial,Arial_MSFontService,sans-serif" font-weight="400" font-size="37" transform="matrix(0.189255 0 0 0.189155 86.1047 61)">Prime</text><text font-family="Arial,Arial_MSFontService,sans-serif" font-weight="400" font-size="37" transform="matrix(0.189255 0 0 0.189155 78.298 70)">Complete</text><text font-family="Arial,Arial_MSFontService,sans-serif" font-weight="400" font-size="37" transform="matrix(0.189255 0 0 0.189155 108.267 70)">?</text><path d="M215.731 154.067 278.153 154.067 278.153 179.035 246.942 185.277 215.731 179.035Z" stroke="#000000" stroke-width="1.30044" stroke-miterlimit="8" fill="#FFFFFF" fill-rule="evenodd" transform="matrix(1.00053 0 0 1 -7.19168 -18.9155)"/><text font-family="Arial,Arial_MSFontService,sans-serif" font-weight="400" font-size="37" transform="matrix(0.189255 0 0 0.189155 229.39 146)">MODE</text><text font-family="Arial,Arial_MSFontService,sans-serif" font-weight="400" font-size="37" transform="matrix(0.189255 0 0 0.189155 226.245 154)">SELECT</text><text font-family="Arial Narrow,Arial Narrow_MSFontService,sans-serif" font-weight="700" font-stretch="condensed" font-size="41" transform="matrix(0.189255 0 0 0.189155 102.287 146)">YES</text><text font-family="Arial Narrow,Arial Narrow_MSFontService,sans-serif" font-weight="700" font-stretch="condensed" font-size="41" transform="matrix(0.189255 0 0 0.189155 151.52 111)">NO</text><path d="M55.517 134.868 102.333 113.02 149.149 134.868 102.333 156.715Z" stroke="#000000" stroke-width="1.30044" stroke-miterlimit="8" fill="#FFFFFF" fill-rule="evenodd" transform="matrix(1.00053 0 0 1 -7.19168 -18.9155)"/><text font-family="Arial,Arial_MSFontService,sans-serif" font-weight="400" font-size="37" transform="matrix(0.189255 0 0 0.189155 81.9824 114)">Machine</text><text font-family="Arial,Arial_MSFontService,sans-serif" font-weight="400" font-size="37" transform="matrix(0.189255 0 0 0.189155 80.1954 123)">Running</text><text font-family="Arial,Arial_MSFontService,sans-serif" font-weight="400" font-size="37" transform="matrix(0.189255 0 0 0.189155 106.28 123)">?</text><path d="M102.861 50.7881 102.861 55.5131 101.994 55.5131 101.994 50.7881ZM105.028 54.646 102.427 59.8477 99.8266 54.6462Z" transform="matrix(1.00053 0 0 1 -7.19168 -18.9155)"/><path d="M102.861 103.562 102.861 108.659 101.994 108.659 101.994 103.562ZM105.028 107.792 102.427 112.994 99.8266 107.792Z" transform="matrix(1.00053 0 0 1 -7.19168 -18.9155)"/><path d="M102.861 156.715 102.861 162.757 101.994 162.757 101.994 156.715ZM105.028 161.89 102.427 167.092 99.8266 161.89Z" transform="matrix(1.00053 0 0 1 -7.19168 -18.9155)"/><path d="M149.149 81.376 247.33 81.376 247.33 149.719 246.463 149.719 246.463 81.8096 246.897 82.2431 149.149 82.2431ZM249.497 148.852 246.897 154.054 244.296 148.852Z" transform="matrix(1.00053 0 0 1 -7.19168 -18.9155)"/><path d="M149.149 134.529 247.33 134.529 247.33 149.746 246.463 149.746 246.463 134.962 246.897 135.396 149.149 135.396ZM249.497 148.878 246.897 154.08 244.296 148.878Z" transform="matrix(1.00053 0 0 1 -7.19168 -18.9155)"/><path d="M54.1929 209.3 147.825 209.3 147.825 240.511 54.1929 240.511Z" stroke="#000000" stroke-width="1.30044" stroke-miterlimit="8" fill="#FFFFFF" transform="matrix(1.00053 0 0 1 -7.19168 -18.9155)"/><text font-family="Arial,Arial_MSFontService,sans-serif" font-weight="400" font-size="37" transform="matrix(0.189255 0 0 0.189155 58.5081 200)">PRESS UP</text><text font-family="Arial,Arial_MSFontService,sans-serif" font-weight="400" font-size="37" transform="matrix(0.189255 0 0 0.189155 93.9203 200)">/</text><text font-family="Arial,Arial_MSFontService,sans-serif" font-weight="400" font-size="37" transform="matrix(0.189255 0 0 0.189155 95.8658 200)">DOWN TO </text><text font-family="Arial,Arial_MSFontService,sans-serif" font-weight="400" font-size="37" transform="matrix(0.189255 0 0 0.189155 55.6328 209)">ADJUST THE PORTION </text><text font-family="Arial,Arial_MSFontService,sans-serif" font-weight="400" font-size="37" transform="matrix(0.189255 0 0 0.189155 72.3306 217)">BELT SPEED</text><path d="M101.754 281.548 101.817 286.258 100.516 286.275 100.453 281.567ZM103.756 285.365 101.225 290.601 98.5543 285.435Z" transform="matrix(1.00053 0 0 1 -7.19168 -18.9155)"/><path d="M101.754 240.511 101.754 246.057 100.453 246.057 100.453 240.511ZM103.704 245.19 101.103 250.392 98.5025 245.19Z" transform="matrix(1.00053 0 0 1 -7.19168 -18.9155)"/><path d="M54.1929 250.347 147.825 250.347 147.825 281.557 54.1929 281.557Z" stroke="#000000" stroke-width="1.30044" stroke-miterlimit="8" fill="#FFFFFF" transform="matrix(1.00053 0 0 1 -7.19168 -18.9155)"/><text font-family="Arial,Arial_MSFontService,sans-serif" font-weight="400" font-size="37" transform="matrix(0.189255 0 0 0.189155 71.3004 241)">RUN TARGET </text><text font-family="Arial,Arial_MSFontService,sans-serif" font-weight="400" font-size="37" transform="matrix(0.189255 0 0 0.189155 53.5184 250)">THROUGH  AND VERIFY </text><text font-family="Arial,Arial_MSFontService,sans-serif" font-weight="400" font-size="37" transform="matrix(0.189255 0 0 0.189155 79.9748 258)">WEIGHT</text><text font-family="Arial Narrow,Arial Narrow_MSFontService,sans-serif" font-weight="700" font-stretch="condensed" font-size="41" transform="matrix(0.189255 0 0 0.189155 104.005 330)">OK</text><text font-family="Arial Narrow,Arial Narrow_MSFontService,sans-serif" font-weight="700" font-stretch="condensed" font-size="41" transform="matrix(0.189255 0 0 0.189155 147.995 292)">OVER</text><path d="M54.3821 315.605 101.198 290.637 148.014 315.605 101.198 340.574Z" stroke="#000000" stroke-width="1.30044" stroke-miterlimit="8" fill="#FFFFFF" fill-rule="evenodd" transform="matrix(1.00053 0 0 1 -7.19168 -18.9155)"/><text font-family="Aptos,Aptos_MSFontService,sans-serif" font-weight="700" font-size="37" transform="matrix(0.189255 0 0 0.189155 70.0126 295)">Sample Weight </text><text font-family="Aptos,Aptos_MSFontService,sans-serif" font-weight="400" font-size="37" transform="matrix(0.189255 0 0 0.189155 69.0366 303)">OVER </text><text font-family="Aptos,Aptos_MSFontService,sans-serif" font-weight="400" font-size="37" transform="matrix(0.189255 0 0 0.189155 87.7394 303)">/ </text><text font-family="Aptos,Aptos_MSFontService,sans-serif" font-weight="400" font-size="37" transform="matrix(0.189255 0 0 0.189155 91.538 303)">UNDER </text><text font-family="Aptos,Aptos_MSFontService,sans-serif" font-weight="400" font-size="37" transform="matrix(0.189255 0 0 0.189155 115.616 303)">?</text><text font-family="Arial Narrow,Arial Narrow_MSFontService,sans-serif" font-weight="700" font-stretch="condensed" font-size="41" transform="matrix(0.189255 0 0 0.189155 13.4695 292)">UNDER</text><path d="M0-0.433481 3.46784-0.433481 3.46784 0.433481 0 0.433481ZM6.06872-0.433481 9.53658-0.433481 9.53658 0.433481 6.06872 0.433481ZM12.1375-0.433481 15.6053-0.433481 15.6053 0.433481 12.1375 0.433481ZM18.2062-0.433481 21.674-0.433481 21.674 0.433481 18.2062 0.433481ZM24.2748-0.433481 27.7428-0.433481 27.7428 0.433481 24.2748 0.433481ZM30.3437-0.433481 33.8115-0.433481 33.8115 0.433481 30.3437 0.433481ZM36.4124-0.433481 38.4322-0.433481 38.4322 1.88144 37.5653 1.88144 37.5653 0 37.9988 0.433481 36.4124 0.433481ZM38.4322 4.48233 38.4322 7.95017 37.5653 7.95017 37.5653 4.48233ZM38.4322 10.5511 38.4322 14.0189 37.5653 14.0189 37.5653 10.5511ZM38.4322 16.6198 38.4322 20.0877 37.5653 20.0877 37.5653 16.6198ZM38.4322 22.6886 38.4322 26.1564 37.5653 26.1564 37.5653 22.6886ZM38.4322 28.7572 38.4322 32.225 37.5653 32.225 37.5653 28.7572ZM38.4322 34.8259 38.4322 37.4478 37.5653 37.4478 37.5653 34.8259ZM40.5997 36.5809 37.9988 41.7827 35.3979 36.5809Z" transform="matrix(-1.83794e-16 -1 -1.00053 1.83697e-16 182.515 244.084)"/><path d="M7.41647 262.999 7.41647 259.53 8.28344 259.53 8.28344 262.999ZM7.41647 256.929 7.41647 253.462 8.28344 253.462 8.28344 256.929ZM7.41647 250.861 7.41647 247.394 8.28344 247.394 8.28344 250.861ZM7.41647 244.793 7.41647 241.324 8.28344 241.324 8.28344 244.793ZM7.41647 238.723 7.41647 235.256 8.28344 235.256 8.28344 238.723ZM7.41647 232.655 7.41647 229.188 8.28344 229.188 8.28344 232.655ZM7.41647 226.587 7.41647 224.567 9.73141 224.567 9.73141 225.433 7.84996 225.433 8.28344 225 8.28344 226.587ZM12.3323 224.567 15.8001 224.567 15.8001 225.433 12.3323 225.433ZM18.401 224.567 21.8688 224.567 21.8688 225.433 18.401 225.433ZM24.4697 224.567 27.9376 224.567 27.9376 225.433 24.4697 225.433ZM30.5385 224.567 34.0063 224.567 34.0063 225.433 30.5385 225.433ZM36.6072 224.567 40.075 224.567 40.075 225.433 36.6072 225.433ZM42.6758 224.567 46.1438 224.567 46.1438 225.433 42.6758 225.433ZM48.7447 224.567 49.978 224.567 49.978 225.433 48.7447 225.433ZM49.1109 222.399 54.3127 225 49.1109 227.601Z" transform="matrix(1.00053 0 0 1 -7.19168 -18.9155)"/><path d="M189.628 263.02C189.628 263.02 189.628 263.02 189.628 263.02 189.628 263.02 189.628 263.02 189.628 263.02 189.628 263.02 189.628 263.02 189.628 263.02 189.628 263.02 189.628 263.02 189.628 263.02Z" stroke="#042433" stroke-width="1.30044" stroke-miterlimit="8" fill="none" fill-rule="evenodd" transform="matrix(1.00053 0 0 1 -7.19168 -18.9155)"/><path d="M7.84996 263.02C7.84996 263.02 7.84997 263.02 7.84999 263.02 7.85001 263.02 7.85003 263.02 7.85003 263.02 7.85003 263.02 7.85001 263.02 7.84999 263.02 7.84997 263.02 7.84996 263.02 7.84996 263.02Z" stroke="#042433" stroke-width="1.30044" stroke-miterlimit="8" fill="none" fill-rule="evenodd" transform="matrix(1.00053 0 0 1 -7.19168 -18.9155)"/><path d="M189.675 263.02 189.675 315.73 148.014 315.73" stroke="#000000" stroke-width="0.86696" stroke-miterlimit="8" stroke-dasharray="3.46784 2.60088" fill="none" fill-rule="evenodd" transform="matrix(1.00053 0 0 1 -7.19168 -18.9155)"/><path d="M0 0 52.7102 0 52.7102 46.5842" stroke="#000000" stroke-width="0.86696" stroke-miterlimit="8" stroke-dasharray="3.46784 2.60088" fill="none" fill-rule="evenodd" transform="matrix(1.83794e-16 1 1.00053 -1.83697e-16 0.662411 244.105)"/><path d="M0.430464-0.0510556 1.22438 6.64264 0.36345 6.74474-0.430464 0.0510556ZM3.27458 5.52643 1.30447 10.9983-1.89098 6.13909Z" transform="matrix(-1.00053 0 0 1 95.2701 179.414)"/><path d="M13.5246 356.841 107.156 356.841 107.156 388.052 13.5246 388.052Z" stroke="#000000" stroke-width="1.30044" stroke-miterlimit="8" fill="#FFFFFF" transform="matrix(1.00053 0 0 1 -7.19168 -18.9155)"/><text font-family="Arial,Arial_MSFontService,sans-serif" font-weight="400" font-size="37" transform="matrix(0.189255 0 0 0.189155 14.3442 352)">PRESS AND HOLD THE</text><text font-family="Arial,Arial_MSFontService,sans-serif" font-weight="700" font-size="37" transform="matrix(0.189255 0 0 0.189155 15.5933 360)">TARE SCALE </text><text font-family="Arial,Arial_MSFontService,sans-serif" font-weight="400" font-size="37" transform="matrix(0.189255 0 0 0.189155 61.8916 360)">BUTTON</text><path d="M117.371 356.841 211.003 356.841 211.003 388.052 117.371 388.052Z" stroke="#000000" stroke-width="1.30044" stroke-miterlimit="8" fill="#FFFFFF" transform="matrix(1.00053 0 0 1 -7.19168 -18.9155)"/><text font-family="Arial,Arial_MSFontService,sans-serif" font-weight="400" font-size="37" transform="matrix(0.189255 0 0 0.189155 129.617 356)">VERIFY WEIGHT</text><path d="M221.217 357.03 314.849 357.03 314.849 388.241 221.217 388.241Z" stroke="#000000" stroke-width="1.30044" stroke-miterlimit="8" fill="#FFFFFF" transform="matrix(1.00053 0 0 1 -7.19168 -18.9155)"/><text font-family="Arial,Arial_MSFontService,sans-serif" font-weight="400" font-size="37" transform="matrix(0.189255 0 0 0.189155 233.537 352)">PRESS TOGGLE</text><text font-family="Arial,Arial_MSFontService,sans-serif" font-weight="400" font-size="37" transform="matrix(0.189255 0 0 0.189155 227.083 361)">PORTION CONTROL</text><path d="M211.01 372.108 216.798 372.199 216.783 373.065 210.995 372.974ZM215.964 370.018 221.124 372.7 215.883 375.219Z" transform="matrix(1.00053 0 0 1 -7.19168 -18.9155)"/><path d="M13.5246 423.235 107.156 423.235 107.156 454.445 13.5246 454.445Z" stroke="#000000" stroke-width="1.30044" stroke-miterlimit="8" fill="#FFFFFF" transform="matrix(1.00053 0 0 1 -7.19168 -18.9155)"/><text font-family="Arial,Arial_MSFontService,sans-serif" font-weight="700" font-size="37" transform="matrix(0.189255 0 0 0.189155 29.0904 418)">RAKE HEIGHT</text><text font-family="Arial,Arial_MSFontService,sans-serif" font-weight="700" font-size="37" transform="matrix(0.189255 0 0 0.189155 37.604 427)">(</text><text font-family="Arial,Arial_MSFontService,sans-serif" font-weight="700" font-size="37" transform="matrix(0.189255 0 0 0.189155 39.9359 427)">INCHES</text><text font-family="Arial,Arial_MSFontService,sans-serif" font-weight="700" font-size="37" transform="matrix(0.189255 0 0 0.189155 66.3933 427)">)</text><path d="M0-0.433481 49.1101-0.433481 49.1101 124.513 48.2433 124.513 48.2433 0 48.6768 0.433481 0 0.433481ZM51.2777 123.646 48.6768 128.848 46.0759 123.646Z" transform="matrix(1.83794e-16 1 1.00053 -1.83697e-16 53.086 435.53)"/><path d="M101.634 340.574 101.634 349.15 60.2459 349.15 60.6794 348.717 60.6794 352.525 59.8124 352.525 59.8124 348.284 101.201 348.284 100.767 348.717 100.767 340.574ZM62.8468 351.658 60.2459 356.86 57.645 351.658Z" transform="matrix(1.00053 0 0 1 -7.19168 -18.9155)"/><path d="M0 0.433481-15.6054 0.433481-15.1719 0-15.1719 33.056-15.6054 32.6224 152.089 32.6224 152.089 46.1716 151.222 46.1716 151.222 33.056 151.655 33.4893-16.0388 33.4893-16.0388-0.433481 0-0.433481ZM154.256 45.3047 151.655 50.5065 149.054 45.3047Z" transform="matrix(-1.00053 0 0 1 307.776 353.815)"/><path d="M563.02 422.478 656.652 422.478 656.652 453.689 563.02 453.689Z" stroke="#000000" stroke-width="1.30044" stroke-miterlimit="8" fill="#FFFFFF" transform="matrix(1.00053 0 0 1 -7.19168 -18.9155)"/><text font-family="Arial,Arial_MSFontService,sans-serif" font-weight="400" font-size="37" transform="matrix(0.189255 0 0 0.189155 567.541 413)">PRESS UP</text><text font-family="Arial,Arial_MSFontService,sans-serif" font-weight="400" font-size="37" transform="matrix(0.189255 0 0 0.189155 602.953 413)">/</text><text font-family="Arial,Arial_MSFontService,sans-serif" font-weight="400" font-size="37" transform="matrix(0.189255 0 0 0.189155 604.899 413)">DOWN TO </text><text font-family="Arial,Arial_MSFontService,sans-serif" font-weight="400" font-size="37" transform="matrix(0.189255 0 0 0.189155 564.667 422)">ADJUST THE PORTION </text><text font-family="Arial,Arial_MSFontService,sans-serif" font-weight="400" font-size="37" transform="matrix(0.189255 0 0 0.189155 581.363 430)">BELT SPEED</text><path d="M610.581 494.726 610.644 499.436 609.344 499.453 609.28 494.745ZM612.583 498.543 610.052 503.779 607.381 498.613Z" transform="matrix(1.00053 0 0 1 -7.19168 -18.9155)"/><path d="M610.581 453.689 610.581 459.235 609.28 459.235 609.28 453.689ZM612.531 458.368 609.931 463.57 607.33 458.368Z" transform="matrix(1.00053 0 0 1 -7.19168 -18.9155)"/><path d="M563.02 463.525 656.652 463.525 656.652 494.735 563.02 494.735Z" stroke="#000000" stroke-width="1.30044" stroke-miterlimit="8" fill="#FFFFFF" transform="matrix(1.00053 0 0 1 -7.19168 -18.9155)"/><text font-family="Arial,Arial_MSFontService,sans-serif" font-weight="400" font-size="37" transform="matrix(0.189255 0 0 0.189155 580.333 455)">RUN TARGET </text><text font-family="Arial,Arial_MSFontService,sans-serif" font-weight="400" font-size="37" transform="matrix(0.189255 0 0 0.189155 562.551 463)">THROUGH  AND VERIFY </text><text font-family="Arial,Arial_MSFontService,sans-serif" font-weight="400" font-size="37" transform="matrix(0.189255 0 0 0.189155 589.008 471)">WEIGHT</text><text font-family="Arial Narrow,Arial Narrow_MSFontService,sans-serif" font-weight="700" font-stretch="condensed" font-size="41" transform="matrix(0.189255 0 0 0.189155 613.038 543)">OK</text><text font-family="Arial Narrow,Arial Narrow_MSFontService,sans-serif" font-weight="700" font-stretch="condensed" font-size="41" transform="matrix(0.189255 0 0 0.189155 657.029 505)">OVER</text><path d="M563.209 528.783 610.025 503.815 656.841 528.783 610.025 553.752Z" stroke="#000000" stroke-width="1.30044" stroke-miterlimit="8" fill="#FFFFFF" fill-rule="evenodd" transform="matrix(1.00053 0 0 1 -7.19168 -18.9155)"/><text font-family="Aptos,Aptos_MSFontService,sans-serif" font-weight="700" font-size="37" transform="matrix(0.189255 0 0 0.189155 579.046 508)">Sample Weight </text><text font-family="Aptos,Aptos_MSFontService,sans-serif" font-weight="400" font-size="37" transform="matrix(0.189255 0 0 0.189155 578.07 516)">OVER </text><text font-family="Aptos,Aptos_MSFontService,sans-serif" font-weight="400" font-size="37" transform="matrix(0.189255 0 0 0.189155 596.772 516)">/ </text><text font-family="Aptos,Aptos_MSFontService,sans-serif" font-weight="400" font-size="37" transform="matrix(0.189255 0 0 0.189155 600.571 516)">UNDER </text><text font-family="Aptos,Aptos_MSFontService,sans-serif" font-weight="400" font-size="37" transform="matrix(0.189255 0 0 0.189155 624.649 516)">?</text><text font-family="Arial Narrow,Arial Narrow_MSFontService,sans-serif" font-weight="700" font-stretch="condensed" font-size="41" transform="matrix(0.189255 0 0 0.189155 522.502 505)">UNDER</text><path d="M0-0.433481 3.46784-0.433481 3.46784 0.433481 0 0.433481ZM6.06872-0.433481 9.53658-0.433481 9.53658 0.433481 6.06872 0.433481ZM12.1375-0.433481 15.6053-0.433481 15.6053 0.433481 12.1375 0.433481ZM18.2062-0.433481 21.674-0.433481 21.674 0.433481 18.2062 0.433481ZM24.2748-0.433481 27.7428-0.433481 27.7428 0.433481 24.2748 0.433481ZM30.3437-0.433481 33.8115-0.433481 33.8115 0.433481 30.3437 0.433481ZM36.4124-0.433481 38.4322-0.433481 38.4322 1.88144 37.5653 1.88144 37.5653 0 37.9988 0.433481 36.4124 0.433481ZM38.4322 4.48233 38.4322 7.95017 37.5653 7.95017 37.5653 4.48233ZM38.4322 10.5511 38.4322 14.0189 37.5653 14.0189 37.5653 10.5511ZM38.4322 16.6198 38.4322 20.0877 37.5653 20.0877 37.5653 16.6198ZM38.4322 22.6886 38.4322 26.1564 37.5653 26.1564 37.5653 22.6886ZM38.4322 28.7572 38.4322 32.225 37.5653 32.225 37.5653 28.7572ZM38.4322 34.8259 38.4322 37.4478 37.5653 37.4478 37.5653 34.8259ZM40.5997 36.5809 37.9988 41.7827 35.3979 36.5809Z" transform="matrix(-1.83794e-16 -1 -1.00053 1.83697e-16 691.611 457.073)"/><path d="M516.055 475.988 516.055 472.519 516.921 472.519 516.921 475.988ZM516.055 469.918 516.055 466.451 516.921 466.451 516.921 469.918ZM516.055 463.85 516.055 460.383 516.921 460.383 516.921 463.85ZM516.055 457.782 516.055 454.313 516.921 454.313 516.921 457.782ZM516.055 451.712 516.055 448.245 516.921 448.245 516.921 451.712ZM516.055 445.644 516.055 442.177 516.921 442.177 516.921 445.644ZM516.055 439.576 516.055 437.555 518.37 437.555 518.37 438.422 516.488 438.422 516.921 437.989 516.921 439.576ZM520.971 437.555 524.438 437.555 524.438 438.422 520.971 438.422ZM527.039 437.555 530.506 437.555 530.506 438.422 527.039 438.422ZM533.107 437.555 536.576 437.555 536.576 438.422 533.107 438.422ZM539.177 437.555 542.644 437.555 542.644 438.422 539.177 438.422ZM545.245 437.555 548.712 437.555 548.712 438.422 545.245 438.422ZM551.313 437.555 554.782 437.555 554.782 438.422 551.313 438.422ZM557.383 437.555 558.617 437.555 558.617 438.422 557.383 438.422ZM557.748 435.388 562.95 437.989 557.748 440.59Z" transform="matrix(1.00053 0 0 1 -7.19168 -18.9155)"/><path d="M698.455 476.009C698.455 476.009 698.455 476.009 698.455 476.009 698.455 476.009 698.455 476.009 698.455 476.009 698.455 476.009 698.455 476.009 698.455 476.009 698.455 476.009 698.455 476.009 698.455 476.009Z" stroke="#042433" stroke-width="1.30044" stroke-miterlimit="8" fill="none" fill-rule="evenodd" transform="matrix(1.00053 0 0 1 -7.19168 -18.9155)"/><path d="M516.488 476.009C516.488 476.009 516.488 476.009 516.488 476.009 516.488 476.009 516.488 476.009 516.488 476.009 516.488 476.009 516.488 476.009 516.488 476.009 516.488 476.009 516.488 476.009 516.488 476.009Z" stroke="#042433" stroke-width="1.30044" stroke-miterlimit="8" fill="none" fill-rule="evenodd" transform="matrix(1.00053 0 0 1 -7.19168 -18.9155)"/><path d="M698.503 476.009 698.503 528.719 656.841 528.719" stroke="#000000" stroke-width="0.86696" stroke-miterlimit="8" stroke-dasharray="3.46784 2.60088" fill="none" fill-rule="evenodd" transform="matrix(1.00053 0 0 1 -7.19168 -18.9155)"/><path d="M0 0 52.7102 0 52.7102 46.5842" stroke="#000000" stroke-width="0.86696" stroke-miterlimit="8" stroke-dasharray="3.46784 2.60088" fill="none" fill-rule="evenodd" transform="matrix(1.83794e-16 1 1.00053 -1.83697e-16 509.569 457.093)"/><path d="M0 0.433481-50.6109 0.433481-50.1776 0-50.1776 100.204-50.6109 99.7708 290.19 99.7708 290.19 100.638-51.0445 100.638-51.0445-0.433481 0-0.433481ZM289.322 97.6035 294.524 100.204 289.322 102.805Z" transform="matrix(-1.00053 0 0 1 649.816 460.309)"/><path d="M0-0.433481 10.0602-0.433481 10.0602 23.1386 9.62669 22.705 83.9105 22.705 83.9105 23.5719 9.19322 23.5719 9.19322 0 9.62669 0.433481 0 0.433481ZM83.0436 20.5377 88.2454 23.1386 83.0436 25.7395Z" transform="matrix(1.00053 0 0 -1 467.933 483.448)"/><path d="M157.85 179.413 163.335 173.928 183.576 173.928 189.061 179.413 189.061 187.17 183.576 192.654 163.335 192.654 157.85 187.17Z" stroke="#000000" stroke-width="1.30044" stroke-miterlimit="8" fill="#FFFFFF" fill-rule="evenodd" transform="matrix(1.00053 0 0 1 -7.19168 -18.9155)"/><text font-family="Arial,Arial_MSFontService,sans-serif" font-weight="700" font-size="37" transform="matrix(0.189255 0 0 0.189155 164.349 167)">1</text><path d="M196.816 249.59 202.301 244.105 222.541 244.105 228.026 249.59 228.026 257.346 222.541 262.831 202.301 262.831 196.816 257.346Z" stroke="#000000" stroke-width="1.30044" stroke-miterlimit="8" fill="#FFFFFF" fill-rule="evenodd" transform="matrix(1.00053 0 0 1 -7.19168 -18.9155)"/><text font-family="Arial,Arial_MSFontService,sans-serif" font-weight="700" font-size="37" transform="matrix(0.189255 0 0 0.189155 203.356 237)">2</text><path d="M16.3619 330.927 21.8467 325.441 42.0878 325.441 47.5725 330.927 47.5725 338.682 42.0878 344.168 21.8467 344.168 16.3619 338.682Z" stroke="#000000" stroke-width="1.30044" stroke-miterlimit="8" fill="#FFFFFF" fill-rule="evenodd" transform="matrix(1.00053 0 0 1 -7.19168 -18.9155)"/><text font-family="Arial,Arial_MSFontService,sans-serif" font-weight="700" font-size="37" transform="matrix(0.189255 0 0 0.189155 22.8063 319)">3</text><path d="M308.796 335.467 314.281 329.981 334.521 329.981 340.006 335.467 340.006 343.222 334.521 348.707 314.281 348.707 308.796 343.222Z" stroke="#000000" stroke-width="1.30044" stroke-miterlimit="8" fill="#FFFFFF" fill-rule="evenodd" transform="matrix(1.00053 0 0 1 -7.19168 -18.9155)"/><text font-family="Arial,Arial_MSFontService,sans-serif" font-weight="700" font-size="37" transform="matrix(0.189255 0 0 0.189155 315.314 323)">4</text><path d="M354.193 443.852 359.678 438.367 379.918 438.367 385.404 443.852 385.404 451.608 379.918 457.093 359.678 457.093 354.193 451.608Z" stroke="#000000" stroke-width="1.30044" stroke-miterlimit="8" fill="#FFFFFF" fill-rule="evenodd" transform="matrix(1.00053 0 0 1 -7.19168 -18.9155)"/><text font-family="Arial,Arial_MSFontService,sans-serif" font-weight="700" font-size="37" transform="matrix(0.189255 0 0 0.189155 360.691 431)">5</text><path d="M667.245 413.588 672.73 408.102 692.97 408.102 698.455 413.588 698.455 421.343 692.97 426.828 672.73 426.828 667.245 421.343Z" stroke="#000000" stroke-width="1.30044" stroke-miterlimit="8" fill="#FFFFFF" fill-rule="evenodd" transform="matrix(1.00053 0 0 1 -7.19168 -18.9155)"/><text font-family="Arial,Arial_MSFontService,sans-serif" font-weight="700" font-size="37" transform="matrix(0.189255 0 0 0.189155 673.967 401)">6</text></g></svg>