<svg width="341" height="691" xmlns="http://www.w3.org/2000/svg" xmlns:xlink="http://www.w3.org/1999/xlink" xml:space="preserve" overflow="hidden"><g><path d="M214.089 365.707 344.84 365.707 344.84 409.291 214.089 409.291Z" stroke="#000000" stroke-width="1.21066" stroke-miterlimit="8" fill="#FFFFFF" transform="matrix(1.00152 0 0 1 -17.1955 -68.6774)"/><text font-family="Arial,Arial_MSFontService,sans-serif" font-weight="400" font-size="37" transform="matrix(0.264546 0 0 0.264144 212.052 317)">RESET E</text><text font-family="Arial,Arial_MSFontService,sans-serif" font-weight="400" font-size="37" transform="matrix(0.264546 0 0 0.264144 253.732 317)">-</text><text font-family="Arial,Arial_MSFontService,sans-serif" font-weight="400" font-size="37" transform="matrix(0.264546 0 0 0.264144 256.914 317)">STOPS AND</text><text font-family="Arial,Arial_MSFontService,sans-serif" font-weight="400" font-size="37" transform="matrix(0.264546 0 0 0.264144 223.953 328)">CLOSE GUARDS</text><path d="M0-0.60533 15.7871-0.60533 15.7871 96.1311 14.5764 96.1311 14.5764 0 15.1818 0.60533 0 0.60533ZM18.8137 94.9203 15.1818 102.184 11.5498 94.9203Z" transform="matrix(-1.83977e-16 -1 -1.00152 1.83697e-16 262.787 297.156)"/><path d="M55.3381 564.871 186.089 564.871 186.089 608.455 55.3381 608.455Z" stroke="#000000" stroke-width="1.21066" stroke-miterlimit="8" fill="#FFFFFF" transform="matrix(1.00152 0 0 1 -17.1955 -68.6774)"/><text font-family="Arial,Arial_MSFontService,sans-serif" font-weight="400" font-size="37" transform="matrix(0.264546 0 0 0.264144 84.2648 510)">ENABLE </text><text font-family="Arial,Arial_MSFontService,sans-serif" font-weight="700" font-size="37" transform="matrix(0.264546 0 0 0.264144 53.346 522)">PORTION </text><text font-family="Arial,Arial_MSFontService,sans-serif" font-weight="700" font-size="37" transform="matrix(0.264546 0 0 0.264144 100.657 522)">/ </text><text font-family="Arial,Arial_MSFontService,sans-serif" font-weight="700" font-size="37" transform="matrix(0.264546 0 0 0.264144 106.096 522)">PRODUCT</text><text font-family="Arial,Arial_MSFontService,sans-serif" font-weight="400" font-size="37" transform="matrix(0.264546 0 0 0.264144 52.7397 533)">TENSION CYLINDERS</text><text font-family="Arial,Arial_MSFontService,sans-serif" font-weight="700" font-size="41" transform="matrix(0.264546 0 0 0.264144 186.733 439)">YES</text><text font-family="Arial,Arial_MSFontService,sans-serif" font-weight="700" font-size="41" transform="matrix(0.264546 0 0 0.264144 120.865 487)">NO</text><path d="M17.2243 575.205 17.2243 513.815 49.2908 513.815 49.2908 515.025 17.8297 515.025 18.435 514.42 18.435 575.205ZM48.0802 510.788 55.3442 514.42 48.0802 518.052Z" transform="matrix(1.00152 0 0 1 -17.1955 -68.6774)"/><text font-family="Arial,Arial_MSFontService,sans-serif" font-weight="700" font-size="41" transform="matrix(0.264546 0 0 0.264144 15.1434 583)">NO</text><text font-family="Arial,Arial_MSFontService,sans-serif" font-weight="700" font-size="41" transform="matrix(0.264546 0 0 0.264144 106.426 641)">YES</text><path d="M121.187 112.921 121.187 125.063 119.976 125.063 119.976 112.921ZM124.214 123.853 120.582 131.117 116.95 123.853Z" transform="matrix(1.00152 0 0 1 -17.1955 -68.6774)"/><path d="M121.187 249.22 121.187 261.362 119.976 261.362 119.976 249.22ZM124.214 260.151 120.582 267.414 116.95 260.151Z" transform="matrix(1.00152 0 0 1 -17.1955 -68.6774)"/><path d="M0.60528-0.00770042 0.740857 10.6491-0.469703 10.6645-0.60528 0.00770042ZM3.75184 9.4 0.21258 16.7096-3.5115 9.4924Z" transform="matrix(-1.00152 0 0 1 103.783 479.553)"/><path d="M121.187 608.447 121.312 617.156 120.102 617.174 119.976 608.463ZM124.321 615.904 120.794 623.218 117.058 616.007Z" transform="matrix(1.00152 0 0 1 -17.1955 -68.6774)"/><path d="M76.9979 69.3377 164.165 69.3377 164.165 104.205 120.582 112.921 76.9979 104.205Z" stroke="#000000" stroke-width="1.21066" stroke-miterlimit="8" fill="#FFFFFF" fill-rule="evenodd" transform="matrix(1.00152 0 0 1 -17.1955 -68.6774)"/><text font-family="Arial,Arial_MSFontService,sans-serif" font-weight="400" font-size="37" transform="matrix(0.264546 0 0 0.264144 79.4906 22)">START UP</text><path d="M17.8297 575.173C17.8297 575.173 17.8297 575.173 17.8297 575.173 17.8298 575.173 17.8298 575.173 17.8298 575.173 17.8298 575.173 17.8298 575.173 17.8297 575.173 17.8297 575.173 17.8297 575.173 17.8297 575.173Z" stroke="#042433" stroke-width="1.21066" stroke-miterlimit="8" fill="none" fill-rule="evenodd" transform="matrix(1.00152 0 0 1 -17.1955 -68.6774)"/><path d="M0 0 82.5977 0 82.5977 37.9395" stroke="#000000" stroke-width="1.21066" stroke-miterlimit="8" fill="none" fill-rule="evenodd" transform="matrix(1.83977e-16 1 1.00152 -1.83697e-16 0.661365 506.496)"/><path d="M120.923 692.976 121.077 709.102 119.867 709.115 119.712 692.986ZM124.092 707.863 120.53 715.161 116.829 707.932Z" transform="matrix(1.00152 0 0 1 -17.1955 -68.6774)"/><text font-family="Arial,Arial_MSFontService,sans-serif" font-weight="700" font-size="41" transform="matrix(0.264546 0 0 0.264144 178.933 373)">FLASHING</text><text font-family="Arial,Arial_MSFontService,sans-serif" font-weight="700" font-size="41" transform="matrix(0.264546 0 0 0.264144 111.68 403)">SOLID</text><path d="M0-0.60533 94.0729-0.60533 94.0729 11.933 92.8624 11.933 92.8624 0 93.4678 0.60533 0 0.60533ZM97.0998 10.7223 93.4678 17.9863 89.8358 10.7223Z" transform="matrix(1.00152 0 0 -1 169.177 358.599)"/><path d="M121.187 372.569 121.335 386.609 120.125 386.622 119.976 372.58ZM124.349 385.365 120.794 392.668 117.086 385.444Z" transform="matrix(1.00152 0 0 1 -17.1955 -68.6774)"/><path d="M121.451 462.384 121.451 473.155 120.241 473.155 120.24 462.384ZM124.478 471.946 120.846 479.21 117.214 471.946Z" transform="matrix(1.00152 0 0 1 -17.1955 -68.6774)"/><path d="M55.3381 427.913 120.45 393.442 185.561 427.913 120.45 462.384Z" stroke="#000000" stroke-width="1.21066" stroke-miterlimit="8" fill="#FFFFFF" fill-rule="evenodd" transform="matrix(1.00152 0 0 1 -17.1955 -68.6774)"/><text font-family="Arial,Arial_MSFontService,sans-serif" font-weight="400" font-size="41" transform="matrix(0.264546 0 0 0.264144 64.6228 356)">Machine Enable</text><text font-family="Arial,Arial_MSFontService,sans-serif" font-weight="400" font-size="41" transform="matrix(0.264546 0 0 0.264144 66.7447 369)">Light Flashing</text><text font-family="Arial,Arial_MSFontService,sans-serif" font-weight="400" font-size="41" transform="matrix(0.264546 0 0 0.264144 134.275 369)">?</text><path d="M55.3381 514.42 120.45 480.081 185.561 514.42 120.45 548.759Z" stroke="#000000" stroke-width="1.21066" stroke-miterlimit="8" fill="#FFFFFF" fill-rule="evenodd" transform="matrix(1.00152 0 0 1 -17.1955 -68.6774)"/><text font-family="Arial,Arial_MSFontService,sans-serif" font-weight="400" font-size="41" transform="matrix(0.264546 0 0 0.264144 77.9604 442)">Any Active</text><text font-family="Arial,Arial_MSFontService,sans-serif" font-weight="400" font-size="41" transform="matrix(0.264546 0 0 0.264144 83.7199 456)">Alarms</text><text font-family="Arial,Arial_MSFontService,sans-serif" font-weight="400" font-size="41" transform="matrix(0.264546 0 0 0.264144 117.467 456)">?</text><path d="M55.3381 658.51 120.45 624.04 185.561 658.51 120.45 692.981Z" stroke="#000000" stroke-width="1.21066" stroke-miterlimit="8" fill="#FFFFFF" fill-rule="evenodd" transform="matrix(1.00152 0 0 1 -17.1955 -68.6774)"/><text font-family="Arial,Arial_MSFontService,sans-serif" font-weight="400" font-size="41" transform="matrix(0.264546 0 0 0.264144 80.9916 586)">Cylinders</text><text font-family="Arial,Arial_MSFontService,sans-serif" font-weight="400" font-size="41" transform="matrix(0.264546 0 0 0.264144 77.6573 600)">Extended</text><text font-family="Arial,Arial_MSFontService,sans-serif" font-weight="400" font-size="41" transform="matrix(0.264546 0 0 0.264144 123.49 600)">?</text><path d="M245.257 715.169 332.425 715.169 332.425 750.036 288.841 758.753 245.257 750.036Z" stroke="#000000" stroke-width="1.21066" stroke-miterlimit="8" fill="#FFFFFF" fill-rule="evenodd" transform="matrix(1.00152 0 0 1 -17.1955 -68.6774)"/><text font-family="Arial,Arial_MSFontService,sans-serif" font-weight="400" font-size="37" transform="matrix(0.264546 0 0 0.264144 255.105 662)">ALARM</text><text font-family="Arial,Arial_MSFontService,sans-serif" font-weight="400" font-size="37" transform="matrix(0.264546 0 0 0.264144 238.664 673)">DESCRIPTION</text><path d="M76.9979 715.169 164.165 715.169 164.165 750.036 120.582 758.753 76.9979 750.036Z" stroke="#000000" stroke-width="1.21066" stroke-miterlimit="8" fill="#FFFFFF" fill-rule="evenodd" transform="matrix(1.00152 0 0 1 -17.1955 -68.6774)"/><text font-family="Arial,Arial_MSFontService,sans-serif" font-weight="400" font-size="37" transform="matrix(0.264546 0 0 0.264144 88.9632 662)">MODE</text><text font-family="Arial,Arial_MSFontService,sans-serif" font-weight="400" font-size="37" transform="matrix(0.264546 0 0 0.264144 84.568 673)">SELECT</text><path d="M186.089 513.023 289.406 513.023 289.406 709.091 288.197 709.091 288.197 513.628 288.802 514.232 186.089 514.232ZM292.434 707.881 288.802 715.145 285.17 707.881Z" transform="matrix(1.00152 0 0 1 -17.1955 -68.6774)"/><path d="M64.0549 205.636 177.373 205.636 177.373 249.22 64.0549 249.22Z" stroke="#000000" stroke-width="1.21066" stroke-miterlimit="8" fill="#FFFFFF" transform="matrix(1.00152 0 0 1 -17.1955 -68.6774)"/><text font-family="Arial,Arial_MSFontService,sans-serif" font-weight="400" font-size="37" transform="matrix(0.264546 0 0 0.264144 85.1741 156)">POWER</text><text font-family="Arial,Arial_MSFontService,sans-serif" font-weight="400" font-size="37" transform="matrix(0.264546 0 0 0.264144 96.7718 168)">UP</text><path d="M222.805 138.411C222.805 134.4 226.057 131.147 230.069 131.147L328.859 131.147C332.871 131.147 336.123 134.4 336.123 138.411L336.123 167.467C336.123 171.479 332.871 174.731 328.859 174.731L230.069 174.731C226.057 174.731 222.805 171.479 222.805 167.467Z" stroke="#000000" stroke-width="1.21066" stroke-miterlimit="8" fill="#FFFFFF" fill-rule="evenodd" transform="matrix(1.00152 0 0 1 -17.1955 -68.6774)"/><text font-family="Arial,Arial_MSFontService,sans-serif" font-style="italic" font-weight="400" font-size="46" transform="matrix(0.264546 0 0 0.264144 217.963 81)">Verify Air Supply</text><text font-family="Arial,Arial_MSFontService,sans-serif" font-style="italic" font-weight="400" font-size="46" transform="matrix(0.264546 0 0 0.264144 247.136 96)">Is ON</text><path d="M64.0549 138.411C64.0549 134.4 67.307 131.147 71.3188 131.147L170.109 131.147C174.12 131.147 177.373 134.4 177.373 138.411L177.373 167.467C177.373 171.479 174.12 174.731 170.109 174.731L71.3188 174.731C67.307 174.731 64.0549 171.479 64.0549 167.467Z" stroke="#000000" stroke-width="1.21066" stroke-miterlimit="8" fill="#FFFFFF" fill-rule="evenodd" transform="matrix(1.00152 0 0 1 -17.1955 -68.6774)"/><text font-family="Arial,Arial_MSFontService,sans-serif" font-style="italic" font-weight="400" font-size="46" transform="matrix(0.264546 0 0 0.264144 88.0508 74)">Verify </text><text font-family="Arial,Arial_MSFontService,sans-serif" font-style="italic" font-weight="400" font-size="46" transform="matrix(0.264546 0 0 0.264144 72.9735 89)">Mechanical</text><text font-family="Arial,Arial_MSFontService,sans-serif" font-style="italic" font-weight="400" font-size="46" transform="matrix(0.264546 0 0 0.264144 70.2452 103)">Reassembly</text><path d="M177.373 152.202 216.845 152.202 216.845 153.413 177.373 153.413ZM215.634 149.175 222.898 152.807 215.634 156.439Z" transform="matrix(1.00152 0 0 1 -17.1955 -68.6774)"/><path d="M64.0549 274.709C64.0549 270.697 67.307 267.446 71.3188 267.446L170.109 267.446C174.12 267.446 177.373 270.697 177.373 274.709L177.373 303.765C177.373 307.778 174.12 311.029 170.109 311.029L71.3188 311.029C67.307 311.029 64.0549 307.778 64.0549 303.765Z" stroke="#000000" stroke-width="1.21066" stroke-miterlimit="8" fill="#FFFFFF" fill-rule="evenodd" transform="matrix(1.00152 0 0 1 -17.1955 -68.6774)"/><text font-family="Arial,Arial_MSFontService,sans-serif" font-style="italic" font-weight="400" font-size="46" transform="matrix(0.264546 0 0 0.264144 92.3763 218)">HMI</text><text font-family="Arial,Arial_MSFontService,sans-serif" font-style="italic" font-weight="400" font-size="46" transform="matrix(0.264546 0 0 0.264144 78.657 232)">Initializes</text><path d="M121.187 311.029 121.187 322.916 119.976 322.916 119.976 311.029ZM124.214 321.706 120.582 328.97 116.95 321.706Z" transform="matrix(1.00152 0 0 1 -17.1955 -68.6774)"/><path d="M64.0549 328.991 177.373 328.991 177.373 372.575 64.0549 372.575Z" stroke="#000000" stroke-width="1.21066" stroke-miterlimit="8" fill="#FFFFFF" transform="matrix(1.00152 0 0 1 -17.1955 -68.6774)"/><text font-family="Arial,Arial_MSFontService,sans-serif" font-weight="400" font-size="37" transform="matrix(0.264546 0 0 0.264144 86.9928 274)">PRESS</text><text font-family="Arial,Arial_MSFontService,sans-serif" font-weight="700" font-size="37" transform="matrix(0.264546 0 0 0.264144 80.9305 286)">MACHINE</text><text font-family="Arial,Arial_MSFontService,sans-serif" font-weight="700" font-size="37" transform="matrix(0.264546 0 0 0.264144 83.5857 297)">ENABLE</text><path d="M280.029 174.731 280.029 190.781 120.582 190.781 121.187 190.176 121.187 199.567 119.976 199.567 119.976 189.571 279.424 189.571 278.82 190.176 278.82 174.731ZM124.214 198.357 120.582 205.621 116.95 198.357Z" transform="matrix(1.00152 0 0 1 -17.1955 -68.6774)"/><path d="M121.187 174.731 121.187 199.567 119.976 199.567 119.976 174.731ZM124.214 198.357 120.582 205.621 116.95 198.357Z" transform="matrix(1.00152 0 0 1 -17.1955 -68.6774)"/><path d="M201.674 84.1287 209.333 76.4696 237.598 76.4696 245.257 84.1287 245.257 94.9607 237.598 102.62 209.333 102.62 201.674 94.9607Z" stroke="#000000" stroke-width="1.81599" stroke-miterlimit="8" fill="#FFFFFF" fill-rule="evenodd" transform="matrix(1.00152 0 0 1 -17.1955 -68.6774)"/><text font-family="Arial,Arial_MSFontService,sans-serif" font-weight="700" font-size="37" transform="matrix(0.264546 0 0 0.264144 203.653 24)">1</text><path d="M202.202 255.822 209.861 248.163 238.127 248.163 245.786 255.822 245.786 266.653 238.127 274.313 209.861 274.313 202.202 266.653Z" stroke="#000000" stroke-width="1.81599" stroke-miterlimit="8" fill="#FFFFFF" fill-rule="evenodd" transform="matrix(1.00152 0 0 1 -17.1955 -68.6774)"/><text font-family="Arial,Arial_MSFontService,sans-serif" font-weight="700" font-size="37" transform="matrix(0.264546 0 0 0.264144 204.329 196)">2</text><path d="M313.142 327.67 320.803 320.01 349.066 320.01 356.726 327.67 356.726 338.5 349.066 346.16 320.803 346.16 313.142 338.5Z" stroke="#000000" stroke-width="1.81599" stroke-miterlimit="8" fill="#FFFFFF" fill-rule="evenodd" transform="matrix(1.00152 0 0 1 -17.1955 -68.6774)"/><text font-family="Arial,Arial_MSFontService,sans-serif" font-weight="700" font-size="37" transform="matrix(0.264546 0 0 0.264144 315.424 268)">3</text><path d="M245.257 474.534 252.917 466.874 281.181 466.874 288.841 474.534 288.841 485.364 281.181 493.024 252.917 493.024 245.257 485.364Z" stroke="#000000" stroke-width="1.81599" stroke-miterlimit="8" fill="#FFFFFF" fill-rule="evenodd" transform="matrix(1.00152 0 0 1 -17.1955 -68.6774)"/><text font-family="Arial,Arial_MSFontService,sans-serif" font-weight="700" font-size="37" transform="matrix(0.264546 0 0 0.264144 247.303 415)">4</text><path d="M186.353 624.04 194.013 616.379 222.278 616.379 229.937 624.04 229.937 634.869 222.278 642.53 194.013 642.53 186.353 634.869Z" stroke="#000000" stroke-width="1.81599" stroke-miterlimit="8" fill="#FFFFFF" fill-rule="evenodd" transform="matrix(1.00152 0 0 1 -17.1955 -68.6774)"/><text font-family="Arial,Arial_MSFontService,sans-serif" font-weight="700" font-size="37" transform="matrix(0.264546 0 0 0.264144 188.5 564)">5</text><path d="M186.353 731.282 194.013 723.622 222.278 723.622 229.937 731.282 229.937 742.112 222.278 749.772 194.013 749.772 186.353 742.112Z" stroke="#000000" stroke-width="1.81599" stroke-miterlimit="8" fill="#FFFFFF" fill-rule="evenodd" transform="matrix(1.00152 0 0 1 -17.1955 -68.6774)"/><text font-family="Arial,Arial_MSFontService,sans-serif" font-weight="700" font-size="37" transform="matrix(0.264546 0 0 0.264144 188.5 671)">6</text></g></svg>