<svg width="451" height="459" xmlns="http://www.w3.org/2000/svg" xmlns:xlink="http://www.w3.org/1999/xlink" xml:space="preserve" overflow="hidden"><g><path d="M70.2431 284.16 187.118 284.16 187.118 323.118 70.2431 323.118Z" stroke="#000000" stroke-width="1.08218" stroke-miterlimit="8" fill="#FFFFFF" transform="matrix(1.00111 0 0 1 -49.1656 -52.1806)"/><text font-family="Arial,Arial_MSFontService,sans-serif" font-weight="700" font-size="37" transform="matrix(0.236373 0 0 0.236111 56.5327 250)">SET POINT</text><text font-family="Arial,Arial_MSFontService,sans-serif" font-weight="700" font-size="37" transform="matrix(0.236373 0 0 0.236111 43.6026 260)">(</text><text font-family="Arial,Arial_MSFontService,sans-serif" font-weight="700" font-size="37" transform="matrix(0.236373 0 0 0.236111 46.515 260)">TARGET LEVEL</text><text font-family="Arial,Arial_MSFontService,sans-serif" font-weight="700" font-size="37" transform="matrix(0.236373 0 0 0.236111 112.433 260)">)</text><path d="M362.549 363.493 479.424 363.493 479.424 402.451 362.549 402.451Z" stroke="#000000" stroke-width="1.08218" stroke-miterlimit="8" fill="#FFFFFF" transform="matrix(1.00111 0 0 1 -49.1656 -52.1806)"/><text font-family="Arial,Arial_MSFontService,sans-serif" font-weight="700" font-size="37" transform="matrix(0.236373 0 0 0.236111 332.092 324)">RETURN </text><text font-family="Arial,Arial_MSFontService,sans-serif" font-weight="700" font-size="37" transform="matrix(0.236373 0 0 0.236111 370.962 324)">#</text><text font-family="Arial,Arial_MSFontService,sans-serif" font-weight="700" font-size="37" transform="matrix(0.236373 0 0 0.236111 375.826 324)">2 </text><text font-family="Arial,Arial_MSFontService,sans-serif" font-weight="700" font-size="37" transform="matrix(0.236373 0 0 0.236111 383.12 324)">SPEED</text><text font-family="Arial,Arial_MSFontService,sans-serif" font-weight="400" font-size="37" transform="matrix(0.236373 0 0 0.236111 338.115 334)">MIN SPEED</text><text font-family="Arial,Arial_MSFontService,sans-serif" font-weight="400" font-size="37" transform="matrix(0.236373 0 0 0.236111 386.226 334)">: </text><text font-family="Arial,Arial_MSFontService,sans-serif" font-weight="400" font-size="37" transform="matrix(0.236373 0 0 0.236111 390.796 334)">xx</text><text font-family="Arial,Arial_MSFontService,sans-serif" font-weight="400" font-size="37" transform="matrix(0.236373 0 0 0.236111 399.542 334)">.</text><text font-family="Arial,Arial_MSFontService,sans-serif" font-weight="400" font-size="37" transform="matrix(0.236373 0 0 0.236111 401.971 334)">x</text><text font-family="Arial,Arial_MSFontService,sans-serif" font-weight="400" font-size="37" transform="matrix(0.236373 0 0 0.236111 336.626 344)">MAX SPEED</text><text font-family="Arial,Arial_MSFontService,sans-serif" font-weight="400" font-size="37" transform="matrix(0.236373 0 0 0.236111 387.658 344)">: </text><text font-family="Arial,Arial_MSFontService,sans-serif" font-weight="400" font-size="37" transform="matrix(0.236373 0 0 0.236111 392.285 344)">xx</text><text font-family="Arial,Arial_MSFontService,sans-serif" font-weight="400" font-size="37" transform="matrix(0.236373 0 0 0.236111 401.031 344)">.</text><text font-family="Arial,Arial_MSFontService,sans-serif" font-weight="400" font-size="37" transform="matrix(0.236373 0 0 0.236111 403.461 344)">x</text><path d="M329.965 382.55 357.083 382.55 357.083 383.631 329.965 383.631ZM356.001 379.844 362.494 383.09 356.001 386.337Z" transform="matrix(1.00111 0 0 1 -49.1656 -52.1806)"/><path d="M259.765 462.44 173.591 462.44 173.591 412.821 174.673 412.821 174.673 461.899 174.132 461.359 259.765 461.359ZM170.885 413.903 174.132 407.41 177.378 413.903Z" transform="matrix(1.00111 0 0 1 -49.1656 -52.1806)"/><path d="M150.757 384.035C150.757 371.124 161.222 360.66 174.132 360.66 187.042 360.66 197.507 371.124 197.507 384.035 197.507 396.945 187.042 407.41 174.132 407.41 161.222 407.41 150.757 396.945 150.757 384.035Z" fill="#FFFFFF" fill-rule="evenodd" transform="matrix(1.00111 0 0 1 -49.1656 -52.1806)"/><path d="M157.603 367.507 190.66 400.562M190.66 367.507 157.603 400.562" stroke="#000000" stroke-width="1.08218" stroke-miterlimit="8" fill="none" fill-rule="evenodd" transform="matrix(1.00111 0 0 1 -49.1656 -52.1806)"/><path d="M150.757 384.035C150.757 371.124 161.222 360.66 174.132 360.66 187.042 360.66 197.507 371.124 197.507 384.035 197.507 396.945 187.042 407.41 174.132 407.41 161.222 407.41 150.757 396.945 150.757 384.035Z" stroke="#000000" stroke-width="1.08218" stroke-miterlimit="8" fill="none" fill-rule="evenodd" transform="matrix(1.00111 0 0 1 -49.1656 -52.1806)"/><path d="M153 379.903 168.583 379.903 168.583 387.694 153 387.694Z" fill="#FFFFFF" transform="matrix(1.00111 0 0 1 -49.1656 -52.1806)"/><text font-family="Arial,Arial_MSFontService,sans-serif" font-weight="700" font-size="64" transform="matrix(0.236373 0 0 0.236111 107.33 337)">+</text><path d="M165.75 393.833 181.333 393.833 181.333 401.625 165.75 401.625Z" fill="#FFFFFF" transform="matrix(1.00111 0 0 1 -49.1656 -52.1806)"/><text font-family="Arial,Arial_MSFontService,sans-serif" font-weight="700" font-size="82" transform="matrix(0.236373 0 0 0.236111 121.283 353)">-</text><path d="M252.049 363.493 329.965 363.493 329.965 402.451 252.049 402.451Z" stroke="#000000" stroke-width="1.08218" stroke-miterlimit="8" fill="#FFFFFF" transform="matrix(1.00111 0 0 1 -49.1656 -52.1806)"/><text font-family="Arial,Arial_MSFontService,sans-serif" font-weight="700" font-size="37" transform="matrix(0.236373 0 0 0.236111 234.86 329)">PID</text><text font-family="Arial,Arial_MSFontService,sans-serif" font-weight="700" font-size="37" transform="matrix(0.236373 0 0 0.236111 220.711 339)">CONTROL</text><path d="M0.00932542-0.541008 49.0908 0.305015 49.0722 1.38703-0.00932542 0.541008ZM48.0555-2.41867 54.4916 0.939278 47.9435 4.07341Z" transform="matrix(1.00111 0 0 -1 148.561 331.849)"/><path d="M49.7014 267.868 342.951 267.868 342.951 422.757 49.7014 422.757Z" stroke="#156082" stroke-width="1.08218" stroke-linejoin="round" stroke-miterlimit="10" stroke-dasharray="4.3287 3.24653" fill="none" transform="matrix(1.00111 0 0 1 -49.1656 -52.1806)"/><path d="M259.84 442.354 376.715 442.354 376.715 481.312 259.84 481.312Z" stroke="#000000" stroke-width="1.08218" stroke-miterlimit="8" fill="#FFFFFF" transform="matrix(1.00111 0 0 1 -49.1656 -52.1806)"/><text font-family="Arial,Arial_MSFontService,sans-serif" font-weight="700" font-size="37" transform="matrix(0.236373 0 0 0.236111 241.892 408)">RAKE LEVEL</text><text font-family="Arial,Arial_MSFontService,sans-serif" font-weight="400" font-size="37" transform="matrix(0.236373 0 0 0.236111 249.206 418)">(</text><text font-family="Arial,Arial_MSFontService,sans-serif" font-weight="400" font-size="37" transform="matrix(0.236373 0 0 0.236111 252.118 418)">WEIGHT</text><text font-family="Arial,Arial_MSFontService,sans-serif" font-weight="400" font-size="37" transform="matrix(0.236373 0 0 0.236111 287.097 418)">)</text><text font-family="Arial,Arial_MSFontService,sans-serif" font-weight="700" font-size="37" transform="matrix(0.236373 0 0 0.236111 358.434 394)">SENSOR</text><text font-family="Arial,Arial_MSFontService,sans-serif" font-weight="700" font-size="37" transform="matrix(0.236373 0 0 0.236111 352.747 405)">FEEDBACK</text><text font-family="Arial,Arial_MSFontService,sans-serif" font-weight="700" font-size="37" transform="matrix(0.236373 0 0 0.236111 142.542 423)">MEASURED</text><text font-family="Arial,Arial_MSFontService,sans-serif" font-weight="700" font-size="37" transform="matrix(0.236373 0 0 0.236111 152.634 433)">VALUE</text><path d="M0-0.541089 61.3015-0.541089 61.3015 16.8283 60.2192 16.8283 60.2192 0 60.7604 0.541089 0 0.541089ZM64.0069 15.7461 60.7604 22.2391 57.5138 15.7461Z" transform="matrix(1.83901e-16 1 1.00111 -1.83697e-16 79.5396 270.938)"/><path d="M0-0.541089 98.6085-0.541089 98.6085 12.5624 97.5264 12.5624 97.5264 0 98.0673 0.541089 0 0.541089ZM101.314 11.4802 98.0673 17.9732 94.8208 11.4802Z" transform="matrix(1.00111 0 0 -1 137.451 114.425)"/><path d="M70.2431 216.396 187.118 216.396 187.118 255.354 70.2431 255.354Z" stroke="#000000" stroke-width="1.08218" stroke-miterlimit="8" fill="#FFFFFF" transform="matrix(1.00111 0 0 1 -49.1656 -52.1806)"/><text font-family="Arial,Arial_MSFontService,sans-serif" font-weight="400" font-size="37" transform="matrix(0.236373 0 0 0.236111 53.8271 176)">PID ENABLE</text><text font-family="Arial,Arial_MSFontService,sans-serif" font-weight="400" font-size="37" transform="matrix(0.236373 0 0 0.236111 34.1909 187)">(</text><text font-family="Arial,Arial_MSFontService,sans-serif" font-weight="400" font-size="37" transform="matrix(0.236373 0 0 0.236111 37.1033 187)">INTERNAL PROGRAM </text><text font-family="Arial,Arial_MSFontService,sans-serif" font-weight="400" font-size="37" transform="matrix(0.236373 0 0 0.236111 61.6816 197)">ACTION</text><text font-family="Arial,Arial_MSFontService,sans-serif" font-weight="400" font-size="37" transform="matrix(0.236373 0 0 0.236111 94.7218 197)">)</text><path d="M128.631 197.962 129.04 211.019 127.959 211.053 127.549 197.996ZM131.711 209.852 128.669 216.444 125.221 210.056Z" transform="matrix(1.00111 0 0 1 -49.1656 -52.1806)"/><text font-family="Arial Narrow,Arial Narrow_MSFontService,sans-serif" font-weight="700" font-stretch="condensed" font-size="41" transform="matrix(0.236373 0 0 0.236111 90.6635 154)">NO</text><text font-family="Arial Narrow,Arial Narrow_MSFontService,sans-serif" font-weight="700" font-stretch="condensed" font-size="41" transform="matrix(0.236373 0 0 0.236111 139.901 107)">YES</text><path d="M69.5347 166.812 127.972 135.646 186.41 166.812 127.972 197.979Z" stroke="#000000" stroke-width="1.08218" stroke-miterlimit="8" fill="#FFFFFF" fill-rule="evenodd" transform="matrix(1.00111 0 0 1 -49.1656 -52.1806)"/><text font-family="Arial,Arial_MSFontService,sans-serif" font-weight="400" font-size="37" transform="matrix(0.236373 0 0 0.236111 48.1693 113)">Conserve Mode</text><text font-family="Arial,Arial_MSFontService,sans-serif" font-weight="400" font-size="37" transform="matrix(0.236373 0 0 0.236111 64.6204 123)">Active</text><text font-family="Arial,Arial_MSFontService,sans-serif" font-weight="400" font-size="37" transform="matrix(0.236373 0 0 0.236111 88.4365 123)">?</text><path d="M0 0 21.8424 0 21.8424 18.272 43.6848 18.272" stroke="#000000" stroke-width="1.08218" stroke-miterlimit="8" fill="none" fill-rule="evenodd" transform="matrix(1.83901e-16 1 1.00111 -1.83697e-16 60.6297 39.5486)"/><path d="M0 0 8.95987 0 8.95987 174.777 17.9197 174.777" stroke="#000000" stroke-width="1.08218" stroke-miterlimit="8" fill="none" fill-rule="evenodd" transform="matrix(-1.83901e-16 -1 -1.00111 1.83697e-16 235.6 57.4683)"/><text font-family="Arial Narrow,Arial Narrow_MSFontService,sans-serif" font-weight="700" font-stretch="condensed" font-size="41" transform="matrix(0.236373 0 0 0.236111 160.692 326)">ERROR</text><path d="M0 0.541089-19.4795 0.541089-18.9384 0-18.9384 78.8047-19.4795 78.2635 97.2693 78.2635 97.2693 79.3458-20.0206 79.3458-20.0206-0.541089 0-0.541089ZM96.1872 75.5581 102.68 78.8047 96.1872 82.0512Z" transform="matrix(-1.00111 0 0 1 430.762 330.91)"/><path d="M128.868 255.354 128.868 278.859 127.785 278.859 127.785 255.354ZM131.573 277.778 128.326 284.271 125.08 277.778Z" transform="matrix(1.00111 0 0 1 -49.1656 -52.1806)"/><path d="M226.076 109.674 342.951 109.674 342.951 148.632 226.076 148.632Z" stroke="#000000" stroke-width="1.08218" stroke-miterlimit="8" fill="#FFFFFF" transform="matrix(1.00111 0 0 1 -49.1656 -52.1806)"/><text font-family="Arial,Arial_MSFontService,sans-serif" font-weight="400" font-size="37" transform="matrix(0.236373 0 0 0.236111 198.821 80)">FLAG PHOTOEYE</text><path d="M70.7153 52.7708 148.632 52.7708 148.632 83.9375 109.674 91.7292 70.7153 83.9375Z" stroke="#000000" stroke-width="1.08218" stroke-miterlimit="8" fill="#FFFFFF" fill-rule="evenodd" transform="matrix(1.00111 0 0 1 -49.1656 -52.1806)"/><text font-family="Arial,Arial_MSFontService,sans-serif" font-weight="700" font-size="37" transform="matrix(0.236373 0 0 0.236111 37.0546 19)">RUN MODE</text><path d="M206.715 223.242 213.562 216.396 238.826 216.396 245.674 223.242 245.674 232.925 238.826 239.771 213.562 239.771 206.715 232.925Z" stroke="#000000" stroke-width="1.62326" stroke-miterlimit="8" fill="#FFFFFF" fill-rule="evenodd" transform="matrix(1.00111 0 0 1 -49.1656 -52.1806)"/><text font-family="Arial,Arial_MSFontService,sans-serif" font-weight="700" font-size="37" transform="matrix(0.236373 0 0 0.236111 174.649 179)">1</text><path d="M368.924 274.715 375.771 267.868 401.035 267.868 407.882 274.715 407.882 284.396 401.035 291.243 375.771 291.243 368.924 284.396Z" stroke="#000000" stroke-width="1.62326" stroke-miterlimit="8" fill="#FFFFFF" fill-rule="evenodd" transform="matrix(1.00111 0 0 1 -49.1656 -52.1806)"/><text font-family="Arial,Arial_MSFontService,sans-serif" font-weight="700" font-size="37" transform="matrix(0.236373 0 0 0.236111 337.096 231)">2</text><path d="M439.285 339.174 446.132 332.326 471.396 332.326 478.243 339.174 478.243 348.854 471.396 355.701 446.132 355.701 439.285 348.854Z" stroke="#000000" stroke-width="1.62326" stroke-miterlimit="8" fill="#FFFFFF" fill-rule="evenodd" transform="matrix(1.00111 0 0 1 -49.1656 -52.1806)"/><text font-family="Arial,Arial_MSFontService,sans-serif" font-weight="700" font-size="37" transform="matrix(0.236373 0 0 0.236111 407.522 295)">3</text></g></svg>