<svg width="2570" height="2445" xmlns="http://www.w3.org/2000/svg" xmlns:xlink="http://www.w3.org/1999/xlink" xml:space="preserve" overflow="hidden"><g transform="translate(-187 -267)"><path d="M1206.5 291.5C1206.5 279.35 1216.35 269.5 1228.5 269.5L1448.5 269.5C1460.65 269.5 1470.5 279.35 1470.5 291.5L1470.5 379.5C1470.5 391.65 1460.65 401.5 1448.5 401.5L1228.5 401.5C1216.35 401.5 1206.5 391.65 1206.5 379.5Z" stroke="#000000" stroke-width="4.58333" stroke-miterlimit="8" fill="#FFFFFF" fill-rule="evenodd"/><text font-family="Arial,Arial_MSFontService,sans-serif" font-style="italic" font-weight="400" font-size="37" transform="matrix(1 0 0 1 1283.07 349)">HOME</text><path d="M189.5 600.5C189.5 588.35 199.35 578.5 211.5 578.5L431.5 578.5C443.65 578.5 453.5 588.35 453.5 600.5L453.5 688.5C453.5 700.65 443.65 710.5 431.5 710.5L211.5 710.5C199.35 710.5 189.5 700.65 189.5 688.5Z" stroke="#000000" stroke-width="4.58333" stroke-miterlimit="8" fill="#FFFFFF" fill-rule="evenodd"/><text font-family="Arial,Arial_MSFontService,sans-serif" font-style="italic" font-weight="400" font-size="37" transform="matrix(1 0 0 1 252.617 658)">RECIPE</text><path d="M484.5 600.5C484.5 588.35 494.35 578.5 506.5 578.5L726.5 578.5C738.65 578.5 748.5 588.35 748.5 600.5L748.5 688.5C748.5 700.65 738.65 710.5 726.5 710.5L506.5 710.5C494.35 710.5 484.5 700.65 484.5 688.5Z" stroke="#000000" stroke-width="4.58333" stroke-miterlimit="8" fill="#FFFFFF" fill-rule="evenodd"/><text font-family="Arial,Arial_MSFontService,sans-serif" font-style="italic" font-weight="400" font-size="37" transform="matrix(1 0 0 1 532.487 658)">PORTION</text><path d="M779.5 600.5C779.5 588.35 789.35 578.5 801.5 578.5L1021.5 578.5C1033.65 578.5 1043.5 588.35 1043.5 600.5L1043.5 688.5C1043.5 700.65 1033.65 710.5 1021.5 710.5L801.5 710.5C789.35 710.5 779.5 700.65 779.5 688.5Z" stroke="#000000" stroke-width="4.58333" stroke-miterlimit="8" fill="#FFFFFF" fill-rule="evenodd"/><text font-family="Arial,Arial_MSFontService,sans-serif" font-style="italic" font-weight="400" font-size="37" transform="matrix(1 0 0 1 861.056 658)">RAKE</text><path d="M1074.5 600.5C1074.5 588.35 1084.35 578.5 1096.5 578.5L1316.5 578.5C1328.65 578.5 1338.5 588.35 1338.5 600.5L1338.5 688.5C1338.5 700.65 1328.65 710.5 1316.5 710.5L1096.5 710.5C1084.35 710.5 1074.5 700.65 1074.5 688.5Z" stroke="#000000" stroke-width="4.58333" stroke-miterlimit="8" fill="#FFFFFF" fill-rule="evenodd"/><text font-family="Arial,Arial_MSFontService,sans-serif" font-style="italic" font-weight="400" font-size="37" transform="matrix(1 0 0 1 1128.61 658)">HOPPER</text><path d="M1369.5 600.5C1369.5 588.35 1379.35 578.5 1391.5 578.5L1611.5 578.5C1623.65 578.5 1633.5 588.35 1633.5 600.5L1633.5 688.5C1633.5 700.65 1623.65 710.5 1611.5 710.5L1391.5 710.5C1379.35 710.5 1369.5 700.65 1369.5 688.5Z" stroke="#000000" stroke-width="4.58333" stroke-miterlimit="8" fill="#FFFFFF" fill-rule="evenodd"/><text font-family="Arial,Arial_MSFontService,sans-serif" font-style="italic" font-weight="400" font-size="37" transform="matrix(1 0 0 1 1424.81 658)">MANUA</text><text font-family="Arial,Arial_MSFontService,sans-serif" font-style="italic" font-weight="400" font-size="37" transform="matrix(1 0 0 1 1557.15 658)">L</text><path d="M1664.5 600.5C1664.5 588.35 1674.35 578.5 1686.5 578.5L1906.5 578.5C1918.65 578.5 1928.5 588.35 1928.5 600.5L1928.5 688.5C1928.5 700.65 1918.65 710.5 1906.5 710.5L1686.5 710.5C1674.35 710.5 1664.5 700.65 1664.5 688.5Z" stroke="#000000" stroke-width="4.58333" stroke-miterlimit="8" fill="#FFFFFF" fill-rule="evenodd"/><text font-family="Arial,Arial_MSFontService,sans-serif" font-style="italic" font-weight="400" font-size="37" transform="matrix(1 0 0 1 1733.04 658)">ALAR</text><text font-family="Arial,Arial_MSFontService,sans-serif" font-style="italic" font-weight="400" font-size="37" transform="matrix(1 0 0 1 1829.29 658)">M</text><path d="M1959.5 600.5C1959.5 588.35 1969.35 578.5 1981.5 578.5L2300.5 578.5C2312.65 578.5 2322.5 588.35 2322.5 600.5L2322.5 688.5C2322.5 700.65 2312.65 710.5 2300.5 710.5L1981.5 710.5C1969.35 710.5 1959.5 700.65 1959.5 688.5Z" stroke="#000000" stroke-width="4.58333" stroke-miterlimit="8" fill="#FFFFFF" fill-rule="evenodd"/><text font-family="Arial,Arial_MSFontService,sans-serif" font-style="italic" font-weight="400" font-size="37" transform="matrix(1 0 0 1 2007.41 658)">MAINTENANCE</text><path d="M775.5 1621.5C775.5 1609.35 785.35 1599.5 797.5 1599.5L1017.5 1599.5C1029.65 1599.5 1039.5 1609.35 1039.5 1621.5L1039.5 1709.5C1039.5 1721.65 1029.65 1731.5 1017.5 1731.5L797.5 1731.5C785.35 1731.5 775.5 1721.65 775.5 1709.5Z" stroke="#000000" stroke-width="4.58333" stroke-miterlimit="8" fill="#FFFFFF" fill-rule="evenodd"/><text font-family="Arial,Arial_MSFontService,sans-serif" font-style="italic" font-weight="400" font-size="37" transform="matrix(1 0 0 1 839.147 1657)">MOTOR</text><text font-family="Arial,Arial_MSFontService,sans-serif" font-style="italic" font-weight="400" font-size="37" transform="matrix(1 0 0 1 846.022 1701)">SETUP</text><path d="M1382.5 1621.5C1382.5 1609.35 1392.35 1599.5 1404.5 1599.5L1723.5 1599.5C1735.65 1599.5 1745.5 1609.35 1745.5 1621.5L1745.5 1709.5C1745.5 1721.65 1735.65 1731.5 1723.5 1731.5L1404.5 1731.5C1392.35 1731.5 1382.5 1721.65 1382.5 1709.5Z" stroke="#000000" stroke-width="4.58333" stroke-miterlimit="8" fill="#FFFFFF" fill-rule="evenodd"/><text font-family="Arial,Arial_MSFontService,sans-serif" font-style="italic" font-weight="400" font-size="37" transform="matrix(1 0 0 1 1436.14 1657)">CALIBRATION/</text><text font-family="Arial,Arial_MSFontService,sans-serif" font-style="italic" font-weight="400" font-size="37" transform="matrix(1 0 0 1 1480.55 1701)">TUNNING</text><path d="M2135.5 1621.5C2135.5 1609.35 2145.35 1599.5 2157.5 1599.5L2377.5 1599.5C2389.65 1599.5 2399.5 1609.35 2399.5 1621.5L2399.5 1709.5C2399.5 1721.65 2389.65 1731.5 2377.5 1731.5L2157.5 1731.5C2145.35 1731.5 2135.5 1721.65 2135.5 1709.5Z" stroke="#000000" stroke-width="4.58333" stroke-miterlimit="8" fill="#FFFFFF" fill-rule="evenodd"/><text font-family="Arial,Arial_MSFontService,sans-serif" font-style="italic" font-weight="400" font-size="37" transform="matrix(1 0 0 1 2182.67 1657)">MACHINE</text><text font-family="Arial,Arial_MSFontService,sans-serif" font-style="italic" font-weight="400" font-size="37" transform="matrix(1 0 0 1 2178.36 1701)">OPTION</text><text font-family="Arial,Arial_MSFontService,sans-serif" font-style="italic" font-weight="400" font-size="37" transform="matrix(1 0 0 1 2319.3 1701)">S</text><text font-family="Arial,Arial_MSFontService,sans-serif" font-style="italic" font-weight="400" font-size="37" transform="matrix(1 0 0 1 2343.93 1701)">`</text><path d="M2436.5 1621.5C2436.5 1609.35 2446.35 1599.5 2458.5 1599.5L2678.5 1599.5C2690.65 1599.5 2700.5 1609.35 2700.5 1621.5L2700.5 1709.5C2700.5 1721.65 2690.65 1731.5 2678.5 1731.5L2458.5 1731.5C2446.35 1731.5 2436.5 1721.65 2436.5 1709.5Z" stroke="#000000" stroke-width="4.58333" stroke-miterlimit="8" fill="#FFFFFF" fill-rule="evenodd"/><text font-family="Arial,Arial_MSFontService,sans-serif" font-style="italic" font-weight="400" font-size="37" transform="matrix(1 0 0 1 2484.79 1657)">DEFAULT</text><text font-family="Arial,Arial_MSFontService,sans-serif" font-style="italic" font-weight="400" font-size="37" transform="matrix(1 0 0 1 2499.98 1701)">RECIP</text><text font-family="Arial,Arial_MSFontService,sans-serif" font-style="italic" font-weight="400" font-size="37" transform="matrix(1 0 0 1 2612.28 1701)">E</text><path d="M2137.57 1375 2137.57 1492.11 907 1492.11 912.156 1486.95 912.156 1573.12 901.844 1573.12 901.844 1481.79 2132.42 1481.79 2127.26 1486.95 2127.26 1375ZM922.469 1567.96 907 1598.9 891.531 1567.96Z" fill="#E97132"/><path d="M2138 1375 2138 1492.11 1564 1492.11 1569.16 1486.95 1569.16 1573.12 1558.84 1573.12 1558.84 1481.79 2132.84 1481.79 2127.69 1486.95 2127.69 1375ZM1579.47 1567.96 1564 1598.9 1548.53 1567.96Z" fill="#E97132"/><path d="M0-5.15625 117.106-5.15625 117.106 134.422 111.95 129.265 198.119 129.265 198.119 139.578 106.794 139.578 106.794 0 111.95 5.15625 0 5.15625ZM192.962 118.953 223.9 134.422 192.962 149.89Z" fill="#E97132" transform="matrix(1.83697e-16 1 1 -1.83697e-16 2133 1375)"/><path d="M0-5.15625 117.106-5.15625 117.106 435.696 111.95 430.539 198.119 430.539 198.119 440.852 106.794 440.852 106.794 0 111.95 5.15625 0 5.15625ZM192.963 420.227 223.9 435.696 192.963 451.164Z" fill="#E97132" transform="matrix(1.83697e-16 1 1 -1.83697e-16 2133 1375)"/><path d="M1569.5 1081.5C1569.5 1069.35 1579.35 1059.5 1591.5 1059.5L1811.5 1059.5C1823.65 1059.5 1833.5 1069.35 1833.5 1081.5L1833.5 1169.5C1833.5 1181.65 1823.65 1191.5 1811.5 1191.5L1591.5 1191.5C1579.35 1191.5 1569.5 1181.65 1569.5 1169.5Z" stroke="#000000" stroke-width="4.58333" stroke-miterlimit="8" fill="#FFFFFF" fill-rule="evenodd"/><text font-family="Arial,Arial_MSFontService,sans-serif" font-style="italic" font-weight="400" font-size="37" transform="matrix(1 0 0 1 1629.12 1117)">SAFETY</text><text font-family="Arial,Arial_MSFontService,sans-serif" font-style="italic" font-weight="400" font-size="37" transform="matrix(1 0 0 1 1664.94 1161)">PL</text><text font-family="Arial,Arial_MSFontService,sans-serif" font-style="italic" font-weight="400" font-size="37" transform="matrix(1 0 0 1 1710.2 1161)">C</text><path d="M1368.5 865.5C1368.5 853.35 1378.35 843.5 1390.5 843.5L1610.5 843.5C1622.65 843.5 1632.5 853.35 1632.5 865.5L1632.5 953.5C1632.5 965.65 1622.65 975.5 1610.5 975.5L1390.5 975.5C1378.35 975.5 1368.5 965.65 1368.5 953.5Z" stroke="#000000" stroke-width="4.58333" stroke-miterlimit="8" fill="#FFFFFF" fill-rule="evenodd"/><text font-family="Arial,Arial_MSFontService,sans-serif" font-style="italic" font-weight="400" font-size="37" transform="matrix(1 0 0 1 1423.33 901)">MANUAL</text><text font-family="Arial,Arial_MSFontService,sans-serif" font-style="italic" font-weight="400" font-size="37" transform="matrix(1 0 0 1 1410.16 945)">CONTRO</text><text font-family="Arial,Arial_MSFontService,sans-serif" font-style="italic" font-weight="400" font-size="37" transform="matrix(1 0 0 1 1568.86 945)">L</text><path d="M1506.63 710 1506.63 781.566 1500 781.566 1505.16 776.41 1505.16 817.039 1494.84 817.039 1494.84 771.254 1501.47 771.254 1496.32 776.41 1496.32 710ZM1515.47 811.882 1500 842.82 1484.53 811.882Z" fill="#E97132"/><path d="M190.5 865.5C190.5 853.35 200.35 843.5 212.5 843.5L432.5 843.5C444.65 843.5 454.5 853.35 454.5 865.5L454.5 953.5C454.5 965.65 444.65 975.5 432.5 975.5L212.5 975.5C200.35 975.5 190.5 965.65 190.5 953.5Z" stroke="#000000" stroke-width="4.58333" stroke-miterlimit="8" fill="#FFFFFF" fill-rule="evenodd"/><text font-family="Arial,Arial_MSFontService,sans-serif" font-style="italic" font-weight="400" font-size="37" transform="matrix(1 0 0 1 253.779 901)">RECIPE</text><text font-family="Arial,Arial_MSFontService,sans-serif" font-style="italic" font-weight="400" font-size="37" transform="matrix(1 0 0 1 234.3 945)">CATALOG</text><path d="M0-5.15625 71.5666-5.15625 71.5666 1.16207 66.4103-3.99418 107.039-3.99418 107.039 6.31832 61.2541 6.31832 61.2541 0 66.4103 5.15625 0 5.15625ZM101.883-14.3067 132.82 1.16207 101.883 16.6308Z" fill="#E97132" transform="matrix(1.83697e-16 1 1 -1.83697e-16 321 710)"/><path d="M1343.14 401 1343.14 494.759 321 494.759 326.156 489.603 326.156 552.425 315.844 552.425 315.844 484.447 1337.99 484.447 1332.83 489.603 1332.83 401ZM336.469 547.268 321 578.206 305.531 547.268Z" fill="#E97132"/><path d="M1343.09 401 1343.09 494.765 616 494.765 621.156 489.609 621.156 552.436 610.844 552.436 610.844 484.452 1337.93 484.452 1332.78 489.609 1332.78 401ZM631.469 547.28 616 578.217 600.531 547.28Z" fill="#E97132"/><path d="M1343.04 401 1343.04 494.759 911 494.759 916.156 489.603 916.156 552.425 905.844 552.425 905.844 484.447 1337.88 484.447 1332.73 489.603 1332.73 401ZM926.469 547.268 911 578.206 895.531 547.268Z" fill="#E97132"/><path d="M1342.99 401 1342.99 494.759 1206 494.759 1211.16 489.603 1211.16 552.424 1200.84 552.424 1200.84 484.447 1337.83 484.447 1332.67 489.603 1332.67 401ZM1221.47 547.268 1206 578.206 1190.53 547.268Z" fill="#E97132"/><path d="M0-5.15625 93.7591-5.15625 93.7591 163.224 88.6029 158.068 151.424 158.068 151.424 168.38 83.4466 168.38 83.4466 0 88.6029 5.15625 0 5.15625ZM146.268 147.755 177.206 163.224 146.268 178.693Z" fill="#E97132" transform="matrix(1.83697e-16 1 1 -1.83697e-16 1338 401)"/><path d="M0-5.15625 93.7591-5.15625 93.7591 458.277 88.6029 453.121 151.424 453.121 151.424 463.433 83.4466 463.433 83.4466 0 88.6029 5.15625 0 5.15625ZM146.268 442.808 177.206 458.277 146.268 473.746Z" fill="#E97132" transform="matrix(1.83697e-16 1 1 -1.83697e-16 1338 401)"/><path d="M0-5.15625 93.7591-5.15625 93.7591 802.83 88.6029 797.674 151.424 797.674 151.424 807.986 83.4466 807.986 83.4466 0 88.6029 5.15625 0 5.15625ZM146.268 787.361 177.206 802.83 146.268 818.299Z" fill="#E97132" transform="matrix(1.83697e-16 1 1 -1.83697e-16 1338 401)"/><path d="M2423.5 1852.5C2423.5 1840.35 2433.35 1830.5 2445.5 1830.5L2731.5 1830.5C2743.65 1830.5 2753.5 1840.35 2753.5 1852.5L2753.5 1940.5C2753.5 1952.65 2743.65 1962.5 2731.5 1962.5L2445.5 1962.5C2433.35 1962.5 2423.5 1952.65 2423.5 1940.5Z" stroke="#000000" stroke-width="4.58333" stroke-miterlimit="8" fill="#FFFFFF" fill-rule="evenodd"/><text font-family="Arial,Arial_MSFontService,sans-serif" font-style="italic" font-weight="400" font-size="37" transform="matrix(1 0 0 1 2504.74 1910)">OPTIONS</text><path d="M2424.5 2052.5C2424.5 2040.35 2434.35 2030.5 2446.5 2030.5L2732.5 2030.5C2744.65 2030.5 2754.5 2040.35 2754.5 2052.5L2754.5 2140.5C2754.5 2152.65 2744.65 2162.5 2732.5 2162.5L2446.5 2162.5C2434.35 2162.5 2424.5 2152.65 2424.5 2140.5Z" stroke="#000000" stroke-width="4.58333" stroke-miterlimit="8" fill="#FFFFFF" fill-rule="evenodd"/><text font-family="Arial,Arial_MSFontService,sans-serif" font-style="italic" font-weight="400" font-size="37" transform="matrix(1 0 0 1 2510.13 2088)">CUSTOM</text><text font-family="Arial,Arial_MSFontService,sans-serif" font-style="italic" font-weight="400" font-size="37" transform="matrix(1 0 0 1 2497.52 2132)">SETTINGS</text><path d="M2423.5 2254.5C2423.5 2242.35 2433.35 2232.5 2445.5 2232.5L2731.5 2232.5C2743.65 2232.5 2753.5 2242.35 2753.5 2254.5L2753.5 2342.5C2753.5 2354.65 2743.65 2364.5 2731.5 2364.5L2445.5 2364.5C2433.35 2364.5 2423.5 2354.65 2423.5 2342.5Z" stroke="#000000" stroke-width="4.58333" stroke-miterlimit="8" fill="#FFFFFF" fill-rule="evenodd"/><text font-family="Arial,Arial_MSFontService,sans-serif" font-style="italic" font-weight="400" font-size="37" transform="matrix(1 0 0 1 2513.06 2268)">TARGET</text><text font-family="Arial,Arial_MSFontService,sans-serif" font-style="italic" font-weight="400" font-size="37" transform="matrix(1 0 0 1 2499.58 2312)">GENERAL</text><text font-family="Arial,Arial_MSFontService,sans-serif" font-style="italic" font-weight="400" font-size="37" transform="matrix(1 0 0 1 2528.23 2356)">LIMITS</text><path d="M0-5.15625 170.031-5.15625 170.031 129.58 159.719 129.58 159.719 0 164.875 5.15625 0 5.15625ZM180.344 124.424 164.875 155.361 149.406 124.424Z" fill="#E97132" transform="matrix(1.83697e-16 1 1 -1.83697e-16 2267 1731)"/><path d="M0-5.15625 369.439-5.15625 369.439 131.531 359.126 131.531 359.126 0 364.283 5.15625 0 5.15625ZM379.751 126.375 364.283 157.313 348.814 126.375Z" fill="#E97132" transform="matrix(1.83697e-16 1 1 -1.83697e-16 2267 1731)"/><path d="M0-5.15625 572.04-5.15625 572.04 129.58 561.728 129.58 561.728 0 566.884 5.15625 0 5.15625ZM582.353 124.424 566.884 155.361 551.415 124.424Z" fill="#E97132" transform="matrix(1.83697e-16 1 1 -1.83697e-16 2267 1731)"/><path d="M1684.5 1852.5C1684.5 1840.35 1694.35 1830.5 1706.5 1830.5L1992.5 1830.5C2004.65 1830.5 2014.5 1840.35 2014.5 1852.5L2014.5 1940.5C2014.5 1952.65 2004.65 1962.5 1992.5 1962.5L1706.5 1962.5C1694.35 1962.5 1684.5 1952.65 1684.5 1940.5Z" stroke="#000000" stroke-width="4.58333" stroke-miterlimit="8" fill="#FFFFFF" fill-rule="evenodd"/><text font-family="Arial,Arial_MSFontService,sans-serif" font-style="italic" font-weight="400" font-size="37" transform="matrix(1 0 0 1 1798.71 1888)">RAKE</text><text font-family="Arial,Arial_MSFontService,sans-serif" font-style="italic" font-weight="400" font-size="37" transform="matrix(1 0 0 1 1735.12 1932)">LOAD</text><text font-family="Arial,Arial_MSFontService,sans-serif" font-style="italic" font-weight="400" font-size="37" transform="matrix(1 0 0 1 1845.69 1932)">CELL</text><text font-family="Arial,Arial_MSFontService,sans-serif" font-style="italic" font-weight="400" font-size="37" transform="matrix(1 0 0 1 1937.93 1932)">S</text><path d="M1684.5 2046.5C1684.5 2034.35 1694.35 2024.5 1706.5 2024.5L1992.5 2024.5C2004.65 2024.5 2014.5 2034.35 2014.5 2046.5L2014.5 2134.5C2014.5 2146.65 2004.65 2156.5 1992.5 2156.5L1706.5 2156.5C1694.35 2156.5 1684.5 2146.65 1684.5 2134.5Z" stroke="#000000" stroke-width="4.58333" stroke-miterlimit="8" fill="#FFFFFF" fill-rule="evenodd"/><text font-family="Arial,Arial_MSFontService,sans-serif" font-style="italic" font-weight="400" font-size="37" transform="matrix(1 0 0 1 1765.21 2082)">PORTIO</text><text font-family="Arial,Arial_MSFontService,sans-serif" font-style="italic" font-weight="400" font-size="37" transform="matrix(1 0 0 1 1906.14 2082)">N</text><text font-family="Arial,Arial_MSFontService,sans-serif" font-style="italic" font-weight="400" font-size="37" transform="matrix(1 0 0 1 1735.12 2126)">LOAD</text><text font-family="Arial,Arial_MSFontService,sans-serif" font-style="italic" font-weight="400" font-size="37" transform="matrix(1 0 0 1 1845.69 2126)">CELL</text><text font-family="Arial,Arial_MSFontService,sans-serif" font-style="italic" font-weight="400" font-size="37" transform="matrix(1 0 0 1 1937.93 2126)">S</text><path d="M1684.5 2226.5C1684.5 2214.35 1694.35 2204.5 1706.5 2204.5L1992.5 2204.5C2004.65 2204.5 2014.5 2214.35 2014.5 2226.5L2014.5 2314.5C2014.5 2326.65 2004.65 2336.5 1992.5 2336.5L1706.5 2336.5C1694.35 2336.5 1684.5 2326.65 1684.5 2314.5Z" stroke="#000000" stroke-width="4.58333" stroke-miterlimit="8" fill="#FFFFFF" fill-rule="evenodd"/><text font-family="Arial,Arial_MSFontService,sans-serif" font-style="italic" font-weight="400" font-size="37" transform="matrix(1 0 0 1 1771.21 2262)">HOPPER</text><text font-family="Arial,Arial_MSFontService,sans-serif" font-style="italic" font-weight="400" font-size="37" transform="matrix(1 0 0 1 1779.53 2306)">HEIGH</text><text font-family="Arial,Arial_MSFontService,sans-serif" font-style="italic" font-weight="400" font-size="37" transform="matrix(1 0 0 1 1895.83 2306)">T</text><path d="M1684.5 2412.5C1684.5 2400.35 1694.35 2390.5 1706.5 2390.5L1992.5 2390.5C2004.65 2390.5 2014.5 2400.35 2014.5 2412.5L2014.5 2500.5C2014.5 2512.65 2004.65 2522.5 1992.5 2522.5L1706.5 2522.5C1694.35 2522.5 1684.5 2512.65 1684.5 2500.5Z" stroke="#000000" stroke-width="4.58333" stroke-miterlimit="8" fill="#FFFFFF" fill-rule="evenodd"/><text font-family="Arial,Arial_MSFontService,sans-serif" font-style="italic" font-weight="400" font-size="37" transform="matrix(1 0 0 1 1798.7 2448)">RAK</text><text font-family="Arial,Arial_MSFontService,sans-serif" font-style="italic" font-weight="400" font-size="37" transform="matrix(1 0 0 1 1874.32 2448)">E</text><text font-family="Arial,Arial_MSFontService,sans-serif" font-style="italic" font-weight="400" font-size="37" transform="matrix(1 0 0 1 1779.52 2492)">HEIGH</text><text font-family="Arial,Arial_MSFontService,sans-serif" font-style="italic" font-weight="400" font-size="37" transform="matrix(1 0 0 1 1895.82 2492)">T</text><path d="M1684.5 2599.5C1684.5 2587.35 1694.35 2577.5 1706.5 2577.5L1992.5 2577.5C2004.65 2577.5 2014.5 2587.35 2014.5 2599.5L2014.5 2687.5C2014.5 2699.65 2004.65 2709.5 1992.5 2709.5L1706.5 2709.5C1694.35 2709.5 1684.5 2699.65 1684.5 2687.5Z" stroke="#000000" stroke-width="4.58333" stroke-miterlimit="8" fill="#FFFFFF" fill-rule="evenodd"/><text font-family="Arial,Arial_MSFontService,sans-serif" font-style="italic" font-weight="400" font-size="37" transform="matrix(1 0 0 1 1771.21 2635)">FLICKE</text><text font-family="Arial,Arial_MSFontService,sans-serif" font-style="italic" font-weight="400" font-size="37" transform="matrix(1 0 0 1 1900.12 2635)">R</text><text font-family="Arial,Arial_MSFontService,sans-serif" font-style="italic" font-weight="400" font-size="37" transform="matrix(1 0 0 1 1779.53 2679)">HEIGH</text><text font-family="Arial,Arial_MSFontService,sans-serif" font-style="italic" font-weight="400" font-size="37" transform="matrix(1 0 0 1 1895.83 2679)">T</text><path d="M0-5.15625 170.032-5.15625 170.032 94.1639 159.719 94.1639 159.719 0 164.875 5.15625 0 5.15625ZM180.344 89.0076 164.875 119.945 149.407 89.0076Z" fill="#E97132" transform="matrix(1.83697e-16 1 1 -1.83697e-16 1564 1731)"/><path d="M0-5.15625 363.434-5.15625 363.434 94.1639 353.121 94.1639 353.121 0 358.277 5.15625 0 5.15625ZM373.746 89.0076 358.277 119.945 342.809 89.0076Z" fill="#E97132" transform="matrix(1.83697e-16 1 1 -1.83697e-16 1564 1731)"/><path d="M0-5.15625 543.448-5.15625 543.448 94.1639 533.135 94.1639 533.135 0 538.292 5.15625 0 5.15625ZM553.76 89.0076 538.292 119.945 522.823 89.0076Z" fill="#E97132" transform="matrix(1.83697e-16 1 1 -1.83697e-16 1564 1731)"/><path d="M0-5.15625 730.156-5.15625 730.156 94.1639 719.843 94.1639 719.843 0 725 5.15625 0 5.15625ZM740.468 89.0076 725 119.945 709.531 89.0076Z" fill="#E97132" transform="matrix(1.83697e-16 1 1 -1.83697e-16 1564 1731)"/><path d="M0-5.15625 916.864-5.15625 916.864 94.1639 906.551 94.1639 906.551 0 911.707 5.15625 0 5.15625ZM927.176 89.0076 911.707 119.945 896.239 89.0076Z" fill="#E97132" transform="matrix(1.83697e-16 1 1 -1.83697e-16 1564 1731)"/><path d="M1074.5 1621.5C1074.5 1609.35 1084.35 1599.5 1096.5 1599.5L1316.5 1599.5C1328.65 1599.5 1338.5 1609.35 1338.5 1621.5L1338.5 1709.5C1338.5 1721.65 1328.65 1731.5 1316.5 1731.5L1096.5 1731.5C1084.35 1731.5 1074.5 1721.65 1074.5 1709.5Z" stroke="#000000" stroke-width="4.58333" stroke-miterlimit="8" fill="#FFFFFF" fill-rule="evenodd"/><text font-family="Arial,Arial_MSFontService,sans-serif" font-style="italic" font-weight="400" font-size="37" transform="matrix(1 0 0 1 1166.63 1657)">RUN</text><text font-family="Arial,Arial_MSFontService,sans-serif" font-style="italic" font-weight="400" font-size="37" transform="matrix(1 0 0 1 1123.39 1701)">OPTION</text><text font-family="Arial,Arial_MSFontService,sans-serif" font-style="italic" font-weight="400" font-size="37" transform="matrix(1 0 0 1 1264.33 1701)">S</text><path d="M1775.5 1621.5C1775.5 1609.35 1785.35 1599.5 1797.5 1599.5L2083.5 1599.5C2095.65 1599.5 2105.5 1609.35 2105.5 1621.5L2105.5 1709.5C2105.5 1721.65 2095.65 1731.5 2083.5 1731.5L1797.5 1731.5C1785.35 1731.5 1775.5 1721.65 1775.5 1709.5Z" stroke="#000000" stroke-width="4.58333" stroke-miterlimit="8" fill="#FFFFFF" fill-rule="evenodd"/><text font-family="Arial,Arial_MSFontService,sans-serif" font-style="italic" font-weight="400" font-size="37" transform="matrix(1 0 0 1 1870.48 1657)">HEIGHT</text><text font-family="Arial,Arial_MSFontService,sans-serif" font-style="italic" font-weight="400" font-size="37" transform="matrix(1 0 0 1 1843.83 1701)">OVERRIDE</text><path d="M2137.72 1375 2137.72 1492.11 1206 1492.11 1211.16 1486.95 1211.16 1573.12 1200.84 1573.12 1200.84 1481.79 2132.56 1481.79 2127.41 1486.95 2127.41 1375ZM1221.47 1567.96 1206 1598.9 1190.53 1567.96Z" fill="#E97132"/><path d="M2138.1 1375 2138.1 1492.11 1940 1492.11 1945.16 1486.95 1945.16 1573.12 1934.84 1573.12 1934.84 1481.79 2132.94 1481.79 2127.79 1486.95 2127.79 1375ZM1955.47 1567.96 1940 1598.9 1924.53 1567.96Z" fill="#E97132"/><path d="M2133.5 1375.5C2133.5 1375.5 2133.5 1375.5 2133.5 1375.5 2133.5 1375.5 2133.5 1375.5 2133.5 1375.5 2133.5 1375.5 2133.5 1375.5 2133.5 1375.5 2133.5 1375.5 2133.5 1375.5 2133.5 1375.5Z" stroke="#622C0F" stroke-width="6.875" stroke-miterlimit="8" fill="#E97132" fill-rule="evenodd"/><path d="M0-5.15625 155.544-5.15625 155.544 43.1373 145.232 43.1373 145.232 0 150.388 5.15625 0 5.15625ZM165.857 37.981 150.388 68.9185 134.919 37.981Z" fill="#E97132" transform="matrix(1.83697e-16 1 1 -1.83697e-16 1500 975)"/><path d="M1570.5 1234.5C1570.5 1222.35 1580.35 1212.5 1592.5 1212.5L1812.5 1212.5C1824.65 1212.5 1834.5 1222.35 1834.5 1234.5L1834.5 1322.5C1834.5 1334.65 1824.65 1344.5 1812.5 1344.5L1592.5 1344.5C1580.35 1344.5 1570.5 1334.65 1570.5 1322.5Z" stroke="#000000" stroke-width="4.58333" stroke-miterlimit="8" fill="#FFFFFF" fill-rule="evenodd"/><text font-family="Arial,Arial_MSFontService,sans-serif" font-style="italic" font-weight="400" font-size="37" transform="matrix(1 0 0 1 1629.43 1270)">INPUTS/</text><text font-family="Arial,Arial_MSFontService,sans-serif" font-style="italic" font-weight="400" font-size="37" transform="matrix(1 0 0 1 1614.23 1314)">OUTPUT</text><text font-family="Arial,Arial_MSFontService,sans-serif" font-style="italic" font-weight="400" font-size="37" transform="matrix(1 0 0 1 1764.91 1314)">S</text><path d="M0-5.15625 308.723-5.15625 308.723 44.2878 298.411 44.2878 298.411 0 303.567 5.15625 0 5.15625ZM319.036 39.1316 303.567 70.0691 288.098 39.1316Z" fill="#E97132" transform="matrix(1.83697e-16 1 1 -1.83697e-16 1500 975)"/><path d="M0 0 8.15761 665.312" stroke="#E97132" stroke-width="10.3125" stroke-miterlimit="8" fill="none" fill-rule="evenodd" transform="matrix(-1 0 0 1 2141.16 710)"/></g></svg>