<svg width="3733" height="1688" xmlns="http://www.w3.org/2000/svg" xmlns:xlink="http://www.w3.org/1999/xlink" xml:space="preserve" overflow="hidden"><g transform="translate(-353 -756)"><rect x="360" y="763" width="528" height="165" stroke="#000000" stroke-width="13.75" stroke-miterlimit="8" fill="#FFFFFF"/><text font-family="Arial,Arial_MSFontService,sans-serif" font-weight="700" font-size="46" transform="matrix(1 0 0 1 449.087 863)">ACTIVE RECIPE</text><path d="M0.0636635-5.15586 194.073-2.76026 193.946 7.55145-0.0636635 5.15586ZM189.045-13.1356 219.789 2.71391 188.663 17.7995Z" fill="#F07132" transform="matrix(1 0 0 -1 888 844.714)"/><rect x="1108" y="779" width="765" height="127" stroke="#F07132" stroke-width="10.3125" stroke-miterlimit="8" fill="none"/><rect x="1106" y="929" width="765" height="72.9999" stroke="#F07132" stroke-width="10.3125" stroke-miterlimit="8" fill="none"/><rect x="360" y="1021" width="528" height="165" stroke="#000000" stroke-width="13.75" stroke-miterlimit="8" fill="#FFFFFF"/><text font-family="Arial,Arial_MSFontService,sans-serif" font-weight="700" font-size="46" transform="matrix(1 0 0 1 426.17 1121)">USER LOGGED IN</text><path d="M2.76533-4.352 198.858 120.248 193.327 128.952-2.76533 4.352ZM200.036 108.779 217.852 138.427 183.444 134.891Z" fill="#F07132" transform="matrix(1 0 0 -1 888 1103.43)"/><rect x="3545" y="763" width="528" height="165" stroke="#000000" stroke-width="13.75" stroke-miterlimit="8" fill="#FFFFFF"/><text font-family="Arial,Arial_MSFontService,sans-serif" font-weight="700" font-size="46" transform="matrix(1 0 0 1 3604.22 835)">MACHINE STATUS </text><text font-family="Arial,Arial_MSFontService,sans-serif" font-weight="700" font-size="46" transform="matrix(1 0 0 1 3711.06 890)">BANNER</text><path d="M3544.95 849.87 3307.73 847.422 3307.83 837.11 3545.05 839.558ZM3312.78 857.787 3282 842 3313.1 826.851Z" fill="#F07132"/><rect x="2518" y="779" width="764" height="127" stroke="#F07132" stroke-width="10.3125" stroke-miterlimit="8" fill="none"/><rect x="2515" y="929" width="765" height="72.9999" stroke="#F07132" stroke-width="10.3125" stroke-miterlimit="8" fill="none"/><rect x="3545" y="1021" width="528" height="165" stroke="#000000" stroke-width="13.75" stroke-miterlimit="8" fill="#FFFFFF"/><text font-family="Arial,Arial_MSFontService,sans-serif" font-weight="700" font-size="46" transform="matrix(1 0 0 1 3629.72 1121)">DATE AND TIME</text><path d="M3543.23 1108 3300.48 981.488 3305.25 972.343 3547.99 1098.85ZM3300.29 993.016 3280 965 3314.58 965.58Z" fill="#F07132"/><rect x="2518" y="1473" width="755" height="296" stroke="#F07132" stroke-width="10.3125" stroke-miterlimit="8" fill="none"/><rect x="3551" y="1538" width="528" height="165" stroke="#000000" stroke-width="13.75" stroke-miterlimit="8" fill="#FFFFFF"/><text font-family="Arial,Arial_MSFontService,sans-serif" font-weight="700" font-size="46" transform="matrix(1 0 0 1 3685.99 1583)">SHREDDER </text><text font-family="Arial,Arial_MSFontService,sans-serif" font-weight="700" font-size="46" transform="matrix(1 0 0 1 3714.94 1638)">MANUAL</text><text font-family="Arial,Arial_MSFontService,sans-serif" font-weight="700" font-size="46" transform="matrix(1 0 0 1 3701.19 1693)">CONTROL</text><path d="M0.00433372-5.15625 251.608-4.94478 251.6 5.36772-0.00433372 5.15625ZM246.461-15.2616 277.385 0.233136 246.435 15.6759Z" fill="#F07132" transform="matrix(-1 0 0 1 3550.39 1621)"/><rect x="2518" y="1084" width="755" height="375" stroke="#F07132" stroke-width="10.3125" stroke-miterlimit="8" fill="none"/><rect x="3545" y="1280" width="528" height="165" stroke="#000000" stroke-width="13.75" stroke-miterlimit="8" fill="#FFFFFF"/><text font-family="Arial,Arial_MSFontService,sans-serif" font-weight="700" font-size="46" transform="matrix(1 0 0 1 3585.32 1352)">PRODUCT/PORTION </text><text font-family="Arial,Arial_MSFontService,sans-serif" font-weight="700" font-size="46" transform="matrix(1 0 0 1 3584.17 1407)">TENSION CYLINDER</text><path d="M3543.47 1366.57 3295.83 1284.04 3299.09 1274.26 3546.73 1356.79ZM3297.46 1295.46 3273 1271 3307.24 1266.11Z" fill="#F07132"/><rect x="3545" y="2106" width="528" height="165" stroke="#000000" stroke-width="13.75" stroke-miterlimit="8" fill="#FFFFFF"/><text font-family="Arial,Arial_MSFontService,sans-serif" font-weight="700" font-size="46" transform="matrix(1 0 0 1 3665.53 2206)">NAVIGATION</text><path d="M2.49764-4.51095 248.817 131.872 243.822 140.894-2.49764 4.51095ZM249.301 120.353 268.874 148.871 234.316 147.418Z" fill="#F07132" transform="matrix(-1 0 0 1 3544.87 2188)"/><rect x="1106" y="1077" width="657" height="1029" stroke="#F07132" stroke-width="10.3125" stroke-miterlimit="8" fill="none"/><rect x="360" y="1522" width="528" height="165" stroke="#000000" stroke-width="13.75" stroke-miterlimit="8" fill="#FFFFFF"/><text font-family="Arial,Arial_MSFontService,sans-serif" font-weight="700" font-size="46" transform="matrix(1 0 0 1 517.264 1595)">MACHINE</text><text font-family="Arial,Arial_MSFontService,sans-serif" font-weight="700" font-size="46" transform="matrix(1 0 0 1 510.962 1650)">CONTROL</text><path d="M0.319277-5.14636 192.439 6.77267 191.801 17.0654-0.319277 5.14636ZM187.932-3.83931 217.852 13.5154 186.016 27.0388Z" fill="#F07132" transform="matrix(1 0 0 -1 888 1604.52)"/><rect x="1764" y="1071" width="412" height="1035" stroke="#F07132" stroke-width="10.3125" stroke-miterlimit="8" fill="none"/><rect x="366" y="2106" width="528" height="165" stroke="#000000" stroke-width="13.75" stroke-miterlimit="8" fill="#FFFFFF"/><text font-family="Arial,Arial_MSFontService,sans-serif" font-weight="700" font-size="46" transform="matrix(1 0 0 1 490.535 2178)">OPER</text><text font-family="Arial,Arial_MSFontService,sans-serif" font-weight="700" font-size="46" transform="matrix(1 0 0 1 632.618 2178)">MODE </text><text font-family="Arial,Arial_MSFontService,sans-serif" font-weight="700" font-size="46" transform="matrix(1 0 0 1 499.404 2233)">SELECTION</text><path d="M0.393899-5.14118 1056.35 75.7626 1055.57 86.045-0.393899 5.14118ZM1052 65.0866 1081.67 82.8735 1049.64 95.9337Z" fill="#F07132" transform="matrix(1 0 0 -1 888 2188.87)"/><rect x="1106" y="2235" width="2170" height="204" stroke="#F07132" stroke-width="10.3125" stroke-miterlimit="8" fill="none"/></g></svg>